<?xml version="1.0" encoding="utf-8"?>
<!-- Generator: Adobe Illustrator 16.0.0, SVG Export Plug-In . SVG Version: 6.00 Build 0)  -->
<!DOCTYPE svg PUBLIC "-//W3C//DTD SVG 1.1//EN" "http://www.w3.org/Graphics/SVG/1.1/DTD/svg11.dtd">
<svg version="1.1" id="Layer_1" xmlns="http://www.w3.org/2000/svg" xmlns:xlink="http://www.w3.org/1999/xlink" x="0px" y="0px"
	 width="260px" height="260px" viewBox="0 0 260 260" enable-background="new 0 0 260 260" xml:space="preserve">
<path id="XMLID_22_" fill="none" stroke="#FFFFFF" stroke-miterlimit="10" d="M151.393,156.864
	c-0.219-0.034-0.438-0.051-0.656-0.051c-0.891,0-1.754,0.28-2.486,0.816l0,0c-0.911,0.666-1.508,1.647-1.681,2.763
	s0.099,2.231,0.765,3.143c1.377,1.881,4.027,2.289,5.906,0.914c0.91-0.666,1.508-1.647,1.681-2.763
	c0.173-1.116-0.099-2.231-0.766-3.142C153.488,157.634,152.508,157.036,151.393,156.864z"/>
<path fill="none" stroke="#FFFFFF" stroke-miterlimit="10" d="M94.202,147.437c-7.606,13.892-7.044,31.529,2.908,45.133
	c13.709,18.736,40.105,22.828,58.839,9.118c17.619-12.891,22.283-36.998,11.379-55.408
	C160.889,145.399,124.558,140.936,94.202,147.437z M104.903,158.807h13.171c1.233,0,2.233,1,2.233,2.232
	c0,1.234-1,2.233-2.233,2.233h-13.171c-1.233,0-2.233-0.999-2.233-2.233C102.67,159.807,103.669,158.807,104.903,158.807z
	 M129.437,203.675c-0.044,0-0.088-0.001-0.133-0.003c-13.703-0.799-24.896-11.279-26.617-24.918
	c-0.154-1.223,0.712-2.34,1.936-2.494c1.217-0.146,2.34,0.713,2.495,1.937c1.451,11.504,10.891,20.343,22.447,21.017
	c1.231,0.072,2.171,1.128,2.099,2.359C131.595,202.759,130.611,203.675,129.437,203.675z M159.334,162.37
	c-0.356,2.294-1.583,4.313-3.457,5.683c-1.543,1.13-3.34,1.674-5.121,1.674c-2.68,0-5.324-1.231-7.025-3.555
	c-1.37-1.874-1.93-4.169-1.574-6.464c0.355-2.294,1.584-4.312,3.457-5.682c1.874-1.37,4.17-1.929,6.463-1.575
	c2.293,0.355,4.313,1.583,5.683,3.457C159.129,157.78,159.689,160.076,159.334,162.37z"/>
<path id="XMLID_17_" fill="none" stroke="#FFFFFF" stroke-miterlimit="10" d="M35.759,70.024c4.879-3.57,5.944-10.445,2.375-15.325
	c-3.57-4.88-10.445-5.943-15.325-2.375c-2.363,1.729-3.913,4.276-4.361,7.171s0.257,5.791,1.987,8.154
	C24.002,72.527,30.879,73.596,35.759,70.024z"/>
<path id="XMLID_16_" fill="none" stroke="#FFFFFF" stroke-miterlimit="10" d="M22.808,152.189c-2.363,1.729-3.913,4.276-4.361,7.171
	s0.257,5.791,1.987,8.154c3.569,4.878,10.445,5.945,15.325,2.375c4.879-3.57,5.944-10.445,2.375-15.325
	C34.564,149.686,27.688,148.618,22.808,152.189z"/>
<path id="XMLID_15_" fill="none" stroke="#FFFFFF" stroke-miterlimit="10" d="M232.404,97.271c-0.568-0.088-1.138-0.131-1.703-0.131
	c-2.309,0-4.552,0.728-6.451,2.117c-2.363,1.729-3.912,4.276-4.361,7.171c-0.448,2.895,0.258,5.791,1.986,8.154
	c1.73,2.363,4.276,3.913,7.17,4.361c2.896,0.448,5.791-0.257,8.155-1.986c4.88-3.57,5.944-10.445,2.374-15.324
	C237.845,99.268,235.298,97.719,232.404,97.271z"/>
<path fill="#FFFFFF" stroke="#FFFFFF" stroke-miterlimit="10" d="M152.076,152.451c-2.293-0.354-4.589,0.205-6.463,1.575
	c-1.873,1.37-3.102,3.388-3.457,5.682c-0.355,2.295,0.204,4.59,1.574,6.464c1.701,2.323,4.346,3.555,7.025,3.555
	c1.781,0,3.578-0.544,5.121-1.674c1.874-1.37,3.101-3.389,3.457-5.683c0.355-2.294-0.205-4.59-1.575-6.462
	C156.389,154.034,154.369,152.807,152.076,152.451z M154.921,161.687c-0.173,1.115-0.771,2.097-1.681,2.763
	c-1.879,1.375-4.529,0.967-5.906-0.914c-0.666-0.911-0.938-2.027-0.765-3.143s0.77-2.097,1.681-2.763l0,0
	c0.732-0.536,1.596-0.816,2.486-0.816c0.218,0,0.438,0.017,0.656,0.051c1.115,0.172,2.096,0.77,2.763,1.681
	C154.822,159.455,155.094,160.57,154.921,161.687z"/>
<path fill="#FFFFFF" stroke="#FFFFFF" stroke-miterlimit="10" d="M172.538,76.515c-12.462,1.228-23.692,7.582-30.593,17.021
	c-2.767-12.3-10.325-22.927-21.729-30.363c-18.18-11.853-43.266-13.749-68.824-5.201c-1.002,0.335-1.632,1.326-1.51,2.376
	s0.964,1.87,2.016,1.965c18.831,1.702,40.133,12.517,45.576,37.583c-12.067-4.807-27.355-3.805-39.417,2.86
	c-12.831,7.089-20.426,19.603-21.385,35.234c-0.054,0.872,0.407,1.696,1.178,2.107c0.77,0.409,1.71,0.333,2.406-0.197
	c7.678-5.87,19.222-12.386,30.585-10.079c7.509,1.523,14.001,6.809,19.318,15.695c-8.281,15.328-7.608,34.72,3.346,49.69
	c9.109,12.451,23.283,19.055,37.644,19.054c9.539-0.001,19.164-2.916,27.436-8.969c19.656-14.381,24.727-41.383,12.258-61.81
	c-0.305-2.932-0.902-13.338,4.43-23.506c6.334-12.078,18.52-19.315,36.223-21.51c0.798-0.099,1.48-0.619,1.789-1.362
	c0.307-0.742,0.191-1.593-0.303-2.227C202.699,81.688,187.953,74.986,172.538,76.515z M171.318,117.902
	c-4.902,9.35-5.284,18.888-5.078,23.731c-9.783-1.23-43.555-4.731-72.407,1.308c-5.959-9.847-13.389-15.73-22.103-17.497
	c-1.911-0.388-3.815-0.564-5.702-0.564c-9.003,0-17.589,4.036-24.346,8.52c1.979-11.774,8.443-21.16,18.535-26.735
	c11.972-6.616,28.064-7.014,39.134-0.967c0.741,0.405,1.645,0.356,2.339-0.122c0.693-0.479,1.058-1.31,0.942-2.145
	C99.579,81.408,84.14,64.981,62.259,59.531c20.874-4.83,40.71-2.273,55.519,7.382c12.088,7.881,19.434,19.653,20.685,33.147
	c0.093,0.992,0.83,1.802,1.81,1.987c0.976,0.184,1.962-0.302,2.409-1.191c5.518-10.977,17.126-18.601,30.294-19.898
	c12.862-1.264,24.786,3.566,33.966,13.669C189.844,97.586,177.872,105.403,171.318,117.902z M155.949,201.688
	c-18.734,13.71-45.13,9.618-58.839-9.118c-9.953-13.604-10.515-31.241-2.908-45.133c30.356-6.501,66.687-2.037,73.126-1.157
	C178.232,164.689,173.568,188.797,155.949,201.688z"/>
<path fill="#FFFFFF" stroke="#FFFFFF" stroke-miterlimit="10" d="M243.178,98.995c-2.434-3.326-6.018-5.506-10.09-6.138
	c-4.07-0.63-8.148,0.362-11.475,2.796s-5.506,6.018-6.138,10.091c-0.631,4.073,0.362,8.148,2.796,11.475s6.018,5.506,10.091,6.137
	c0.8,0.125,1.601,0.186,2.396,0.186c3.25,0,6.406-1.024,9.079-2.98C246.703,115.535,248.203,105.861,243.178,98.995z M237.2,116.957
	c-2.364,1.729-5.259,2.435-8.155,1.986c-2.894-0.448-5.439-1.998-7.17-4.361c-1.729-2.363-2.435-5.26-1.986-8.154
	c0.449-2.895,1.998-5.441,4.361-7.171c1.899-1.39,4.143-2.117,6.451-2.117c0.565,0,1.135,0.043,1.703,0.131
	c2.894,0.448,5.44,1.997,7.17,4.362C243.145,106.512,242.08,113.387,237.2,116.957z"/>
<path fill="#FFFFFF" stroke="#FFFFFF" stroke-miterlimit="10" d="M29.303,76.6c3.162,0,6.351-0.967,9.092-2.972
	c6.867-5.024,8.365-14.698,3.341-21.565c-2.433-3.326-6.017-5.506-10.09-6.138c-4.076-0.629-8.148,0.362-11.475,2.796
	c-3.327,2.434-5.506,6.018-6.137,10.091c-0.631,4.073,0.362,8.148,2.796,11.475C19.849,74.412,24.545,76.6,29.303,76.6z
	 M18.447,59.495c0.448-2.895,1.998-5.441,4.361-7.171c4.88-3.568,11.755-2.505,15.325,2.375c3.57,4.88,2.504,11.755-2.375,15.325
	c-4.88,3.571-11.756,2.503-15.325-2.375C18.704,65.286,17.999,62.39,18.447,59.495z"/>
<path fill="#FFFFFF" stroke="#FFFFFF" stroke-miterlimit="10" d="M20.171,148.586c-3.327,2.434-5.506,6.018-6.137,10.091
	c-0.631,4.073,0.362,8.148,2.796,11.475c3.018,4.126,7.715,6.313,12.473,6.313c3.162,0,6.351-0.967,9.092-2.972
	c6.867-5.024,8.365-14.698,3.341-21.565C36.712,145.062,27.04,143.562,20.171,148.586z M35.759,169.89
	c-4.88,3.57-11.756,2.503-15.325-2.375c-1.729-2.363-2.435-5.26-1.987-8.154s1.998-5.441,4.361-7.171
	c4.88-3.571,11.756-2.504,15.325,2.375C41.703,159.444,40.638,166.319,35.759,169.89z"/>
<path id="XMLID_3_" fill="#FFFFFF" stroke="#FFFFFF" stroke-miterlimit="10" d="M129.565,199.213
	c-11.556-0.674-20.996-9.513-22.447-21.017c-0.154-1.224-1.278-2.083-2.495-1.937c-1.224,0.154-2.09,1.271-1.936,2.494
	c1.72,13.639,12.914,24.119,26.617,24.918c0.045,0.002,0.089,0.003,0.133,0.003c1.174,0,2.158-0.916,2.227-2.103
	C131.736,200.341,130.796,199.285,129.565,199.213z"/>
<path id="XMLID_2_" fill="#FFFFFF" stroke="#FFFFFF" stroke-miterlimit="10" d="M104.903,163.272h13.171
	c1.233,0,2.233-0.999,2.233-2.233c0-1.232-1-2.232-2.233-2.232h-13.171c-1.233,0-2.233,1-2.233,2.232
	C102.67,162.273,103.669,163.272,104.903,163.272z"/>
<g>
</g>
<g>
</g>
<g>
</g>
<g>
</g>
<g>
</g>
<g>
</g>
</svg>
