<?xml version="1.0" encoding="utf-8"?>
<!-- Generator: Adobe Illustrator 16.0.0, SVG Export Plug-In . SVG Version: 6.00 Build 0)  -->
<!DOCTYPE svg PUBLIC "-//W3C//DTD SVG 1.1//EN" "http://www.w3.org/Graphics/SVG/1.1/DTD/svg11.dtd">
<svg version="1.1" xmlns="http://www.w3.org/2000/svg" xmlns:xlink="http://www.w3.org/1999/xlink" x="0px" y="0px" width="200px"
	 height="66px" viewBox="0 0 200 66" enable-background="new 0 0 200 66" xml:space="preserve">
<g id="Layer_1" display="none">
	<g id="Layer_2" display="inline">
		<rect x="42" y="40.75" fill="none" width="116" height="19.25"/>
		<g opacity="0.54" enable-background="new    ">
			<path d="M76.95,50.189c-0.158,1.354-0.658,2.398-1.499,3.133c-0.841,0.736-1.958,1.104-3.353,1.104
				c-1.512,0-2.723-0.542-3.634-1.626s-1.367-2.534-1.367-4.351v-1.23c0-1.189,0.212-2.235,0.637-3.138s1.027-1.595,1.806-2.079
				c0.779-0.482,1.682-0.725,2.707-0.725c1.359,0,2.449,0.38,3.27,1.139s1.298,1.809,1.433,3.15h-1.696
				c-0.146-1.022-0.464-1.763-0.954-2.222c-0.489-0.458-1.173-0.688-2.052-0.688c-1.078,0-1.923,0.398-2.536,1.196
				s-0.918,1.933-0.918,3.404v1.24c0,1.39,0.29,2.495,0.87,3.316s1.392,1.231,2.435,1.231c0.938,0,1.657-0.212,2.158-0.638
				c0.501-0.424,0.833-1.164,0.998-2.219H76.95z"/>
			<path d="M82.944,54.426c-1.289,0-2.338-0.423-3.146-1.27s-1.213-1.979-1.213-3.397V49.46c0-0.943,0.18-1.785,0.541-2.526
				s0.864-1.321,1.512-1.74s1.349-0.629,2.105-0.629c1.236,0,2.197,0.407,2.883,1.222s1.028,1.98,1.028,3.498v0.677h-6.442
				c0.023,0.938,0.297,1.695,0.822,2.271c0.524,0.578,1.191,0.866,2,0.866c0.574,0,1.061-0.117,1.459-0.352s0.747-0.545,1.046-0.932
				l0.993,0.773C85.733,53.813,84.538,54.426,82.944,54.426z M82.742,45.9c-0.656,0-1.207,0.239-1.652,0.717
				s-0.721,1.146-0.826,2.008h4.764v-0.123c-0.047-0.826-0.27-1.466-0.668-1.92S83.422,45.9,82.742,45.9z"/>
			<path d="M93.131,46.199c-0.246-0.041-0.513-0.062-0.8-0.062c-1.066,0-1.79,0.454-2.171,1.362v6.75h-1.626v-9.51h1.582
				l0.026,1.099c0.533-0.85,1.289-1.274,2.268-1.274c0.316,0,0.557,0.041,0.721,0.123V46.199z"/>
			<path d="M97.271,42.438v2.303h1.775v1.257h-1.775v5.905c0,0.381,0.079,0.667,0.237,0.857s0.428,0.286,0.809,0.286
				c0.188,0,0.445-0.035,0.773-0.105v1.311c-0.428,0.116-0.844,0.175-1.248,0.175c-0.727,0-1.274-0.22-1.644-0.659
				s-0.554-1.063-0.554-1.872v-5.897h-1.731V44.74h1.731v-2.303H97.271z"/>
			<path d="M100.953,42.218c0-0.264,0.08-0.486,0.242-0.668c0.16-0.182,0.399-0.272,0.716-0.272s0.557,0.091,0.721,0.272
				s0.246,0.404,0.246,0.668s-0.082,0.483-0.246,0.659s-0.404,0.264-0.721,0.264s-0.556-0.088-0.716-0.264
				C101.033,42.701,100.953,42.481,100.953,42.218z M102.711,54.25h-1.626v-9.51h1.626V54.25z"/>
			<path d="M106.112,54.25v-8.253h-1.503V44.74h1.503v-0.976c0-1.02,0.272-1.808,0.817-2.364s1.315-0.835,2.312-0.835
				c0.375,0,0.747,0.05,1.116,0.148l-0.088,1.311c-0.275-0.053-0.568-0.079-0.879-0.079c-0.527,0-0.935,0.154-1.222,0.463
				s-0.431,0.751-0.431,1.327v1.005h2.03v1.257h-2.03v8.253H106.112z"/>
			<path d="M111.57,42.218c0-0.264,0.08-0.486,0.242-0.668c0.16-0.182,0.399-0.272,0.716-0.272s0.557,0.091,0.721,0.272
				s0.246,0.404,0.246,0.668s-0.082,0.483-0.246,0.659s-0.404,0.264-0.721,0.264s-0.556-0.088-0.716-0.264
				C111.65,42.701,111.57,42.481,111.57,42.218z M113.328,54.25h-1.626v-9.51h1.626V54.25z"/>
			<path d="M119.876,54.426c-1.289,0-2.338-0.423-3.146-1.27s-1.213-1.979-1.213-3.397V49.46c0-0.943,0.181-1.785,0.54-2.526
				c0.361-0.741,0.865-1.321,1.512-1.74c0.648-0.419,1.35-0.629,2.105-0.629c1.236,0,2.197,0.407,2.883,1.222
				s1.028,1.98,1.028,3.498v0.677h-6.442c0.023,0.938,0.297,1.695,0.822,2.271c0.523,0.578,1.19,0.866,1.999,0.866
				c0.574,0,1.061-0.117,1.459-0.352s0.747-0.545,1.046-0.932l0.993,0.773C122.665,53.813,121.47,54.426,119.876,54.426z
				 M119.674,45.9c-0.656,0-1.207,0.239-1.652,0.717s-0.721,1.146-0.826,2.008h4.764v-0.123c-0.047-0.826-0.27-1.466-0.668-1.92
				S120.354,45.9,119.674,45.9z"/>
			<path d="M125.07,49.416c0-1.459,0.346-2.633,1.037-3.52c0.691-0.889,1.597-1.332,2.716-1.332c1.113,0,1.995,0.381,2.646,1.143
				V40.75h1.626v13.5h-1.494l-0.079-1.02c-0.65,0.797-1.556,1.195-2.716,1.195c-1.102,0-1.999-0.451-2.694-1.354
				c-0.693-0.902-1.041-2.08-1.041-3.533V49.416z M126.696,49.601c0,1.078,0.223,1.922,0.668,2.531s1.061,0.914,1.846,0.914
				c1.031,0,1.784-0.463,2.259-1.389v-4.368c-0.486-0.896-1.233-1.345-2.241-1.345c-0.797,0-1.418,0.308-1.863,0.923
				S126.696,48.394,126.696,49.601z"/>
		</g>
	</g>
	<g id="Layer_1_1_" display="inline">
		<path opacity="0.54" enable-background="new    " d="M43.063,21.234v2.4H48.8c-0.175,1.346-0.624,2.331-1.307,3.023
			c-0.839,0.84-2.146,1.756-4.429,1.756c-3.532,0-6.293-2.848-6.293-6.38c0-3.532,2.761-6.38,6.293-6.38
			c1.902,0,3.297,0.751,4.322,1.717l1.688-1.688c-1.424-1.386-3.336-2.439-6.01-2.439c-4.839,0-8.907,3.941-8.907,8.78
			s4.068,8.78,8.907,8.78c2.615,0,4.585-0.858,6.127-2.459c1.58-1.58,2.078-3.814,2.078-5.609c0-0.556-0.039-1.073-0.126-1.502
			L43.063,21.234L43.063,21.234z M58.439,19.283c-3.132,0-5.688,2.381-5.688,5.668c0,3.259,2.556,5.668,5.688,5.668
			s5.688-2.399,5.688-5.668C64.127,21.664,61.571,19.283,58.439,19.283z M58.439,28.385c-1.717,0-3.2-1.414-3.2-3.434
			c0-2.039,1.483-3.434,3.2-3.434c1.717,0,3.2,1.395,3.2,3.434C61.639,26.971,60.156,28.385,58.439,28.385z M86.322,20.551h-0.087
			c-0.556-0.664-1.629-1.269-2.985-1.269c-2.83,0-5.298,2.468-5.298,5.668c0,3.181,2.468,5.668,5.298,5.668
			c1.356,0,2.429-0.604,2.985-1.287h0.087v0.79c0,2.165-1.161,3.327-3.024,3.327c-1.522,0-2.468-1.094-2.858-2.02l-2.166,0.896
			c0.625,1.503,2.273,3.348,5.024,3.348c2.917,0,5.386-1.718,5.386-5.903V19.576h-2.361v0.975H86.322z M83.463,28.385
			c-1.717,0-3.024-1.463-3.024-3.434c0-2,1.307-3.434,3.024-3.434c1.698,0,3.024,1.463,3.024,3.454
			C86.498,26.951,85.161,28.385,83.463,28.385z M71.122,19.283c-3.132,0-5.688,2.381-5.688,5.668c0,3.259,2.556,5.668,5.688,5.668
			s5.688-2.399,5.688-5.668C76.81,21.664,74.254,19.283,71.122,19.283z M71.122,28.385c-1.717,0-3.2-1.414-3.2-3.434
			c0-2.039,1.483-3.434,3.2-3.434c1.717,0,3.2,1.395,3.2,3.434C74.322,26.971,72.839,28.385,71.122,28.385z M90.634,13.478h2.449
			v17.141h-2.449V13.478z M100.645,28.385c-1.27,0-2.166-0.575-2.751-1.717l7.58-3.131l-0.252-0.645
			c-0.47-1.268-1.914-3.61-4.85-3.61c-2.918,0-5.347,2.293-5.347,5.668c0,3.181,2.399,5.668,5.621,5.668
			c2.595,0,4.097-1.59,4.721-2.507l-1.932-1.288C102.79,27.761,101.912,28.385,100.645,28.385L100.645,28.385z M100.469,21.41
			c1.004,0,1.863,0.517,2.146,1.249l-5.123,2.117C97.492,22.395,99.181,21.41,100.469,21.41z M109.492,30.629h2.205l1.513-4.186
			h6.497l1.493,4.186h2.204l-5.844-15.453h-2.244L109.492,30.629L109.492,30.629z M113.873,24.58l2.527-6.965h0.088l2.525,6.965
			H113.873z M128.956,30.971c1.688,0,2.995-0.839,3.601-1.814h0.088v1.463h1.902V15.195h-1.99v4.858l0.088,1.463h-0.088
			c-0.604-0.976-1.922-1.814-3.601-1.814c-2.673,0-5.024,2.4-5.024,5.629C123.932,28.561,126.283,30.971,128.956,30.971z
			 M129.277,29.156c-1.767,0-3.365-1.443-3.365-3.824s1.6-3.825,3.365-3.825c1.767,0,3.367,1.405,3.367,3.825
			C132.645,27.751,131.044,29.156,129.277,29.156z M155.307,15.195h-2.066l-3.094,12.146h-0.088l-3.346-10.078h-1.854l-3.348,10.078
			h-0.088l-3.258-12.146h-2.068l4.293,15.453h2.029l3.326-10.185h0.088l3.327,10.185h2.028L155.307,15.195z M160.508,19.703
			c-3.172,0-5.435,2.419-5.435,5.629c0,3.209,2.263,5.629,5.435,5.629c3.17,0,5.434-2.42,5.434-5.629
			C165.941,22.122,163.678,19.703,160.508,19.703z M160.508,29.156c-1.766,0-3.453-1.405-3.453-3.824
			c0-2.42,1.688-3.825,3.453-3.825s3.453,1.405,3.453,3.825C163.961,27.751,162.273,29.156,160.508,29.156z M169.521,30.629v-5.785
			c0-1.941,1.386-3.083,2.742-3.083c0.43,0,0.779,0.039,1.053,0.146l0.752-1.854c-0.41-0.176-0.84-0.264-1.492-0.264
			c-1.104,0-2.635,0.781-3.064,1.99h-0.088v-1.727h-1.902v10.575h2V30.629z M179.678,30.971c1.688,0,2.996-0.839,3.6-1.814h0.089
			v1.463h1.901V15.195h-1.99v4.858l0.089,1.463h-0.089c-0.604-0.976-1.922-1.814-3.6-1.814c-2.673,0-5.023,2.4-5.023,5.629
			C174.654,28.561,177.005,30.971,179.678,30.971z M180,29.156c-1.766,0-3.365-1.443-3.365-3.824s1.6-3.825,3.365-3.825
			s3.365,1.405,3.365,3.825C183.365,27.751,181.775,29.156,180,29.156z M190.977,30.971c2.478,0,4.166-1.443,4.166-3.326
			c0-1.299-0.819-2.586-2.918-3.084l-2.098-0.497c-0.84-0.195-1.404-0.566-1.404-1.229c0-0.858,0.975-1.356,2.098-1.356
			c1.033,0,2.01,0.41,2.42,1.405l1.727-0.712c-0.645-1.62-2.242-2.458-4.078-2.458c-2.203,0-4.185,1.229-4.185,3.151
			c0,1.854,1.854,2.703,2.828,2.937l2.137,0.517c1.122,0.283,1.444,0.859,1.444,1.406c0,0.887-0.889,1.492-2.117,1.492
			c-1.278,0-2.313-0.645-2.868-1.99l-1.767,0.731C186.984,29.459,188.43,30.971,190.977,30.971L190.977,30.971z"/>
		<g>
			<g>
				<g>
					<defs>
						<path id="SVGID_1_" d="M23.95,8.366h-9.864L4.331,37.635h7.278c1.444,0,2.722-0.918,3.181-2.283l4.205-12.371l4.146,12.371
							c0.449,1.365,1.737,2.283,3.181,2.283H33.6L23.95,8.366z"/>
					</defs>
					<clipPath id="SVGID_2_">
						<use xlink:href="#SVGID_1_"  overflow="visible"/>
					</clipPath>
					<path clip-path="url(#SVGID_2_)" fill="#0F9D58" d="M33.599,37.635L23.95,8.366h-9.864l9.054,26.985
						c0.449,1.365,1.737,2.283,3.181,2.283H33.599z"/>
				</g>
			</g>
			<g>
				<g>
					<defs>
						<path id="SVGID_3_" d="M23.95,8.366h-9.864L4.331,37.635h7.278c1.444,0,2.722-0.918,3.181-2.283l4.205-12.371l4.146,12.371
							c0.449,1.365,1.737,2.283,3.181,2.283H33.6L23.95,8.366z"/>
					</defs>
					<clipPath id="SVGID_4_">
						<use xlink:href="#SVGID_3_"  overflow="visible"/>
					</clipPath>
					<g clip-path="url(#SVGID_4_)">
						
							<image overflow="visible" opacity="0.2" enable-background="new    " width="155" height="211" xlink:href="20982994.png"  transform="matrix(0.1611 0 0 0.1611 -7808.4834 -7902.9941)">
						</image>
						<path fill="#4285F4" d="M4.331,37.635l9.756-29.269h9.864L14.79,35.352c-0.449,1.365-1.736,2.283-3.181,2.283H4.331z"/>
					</g>
				</g>
			</g>
			<g>
				<g>
					<defs>
						<path id="SVGID_5_" d="M23.95,8.366h-9.864L4.331,37.635h7.278c1.444,0,2.722-0.918,3.181-2.283l4.205-12.371l4.146,12.371
							c0.449,1.365,1.737,2.283,3.181,2.283H33.6L23.95,8.366z"/>
					</defs>
					<clipPath id="SVGID_6_">
						<use xlink:href="#SVGID_5_"  overflow="visible"/>
					</clipPath>
					
						<radialGradient id="SVGID_7_" cx="1261.7969" cy="-1166.063" r="40.3046" gradientTransform="matrix(0.4878 0 0 -0.4878 -595.8774 -545.1714)" gradientUnits="userSpaceOnUse">
						<stop  offset="0" style="stop-color:#263238;stop-opacity:0.2"/>
						<stop  offset="1" style="stop-color:#263238;stop-opacity:0.02"/>
					</radialGradient>
					<path clip-path="url(#SVGID_6_)" fill="url(#SVGID_7_)" d="M18.994,22.98l0.02,0.068l14.585,14.586L23.95,8.366L18.994,22.98z"
						/>
				</g>
			</g>
			<g>
				<g>
					<defs>
						<path id="SVGID_8_" d="M23.95,18.366h-9.864L4.331,47.635h7.278c1.444,0,2.722-0.918,3.181-2.283l4.205-12.371l4.146,12.371
							c0.449,1.365,1.737,2.283,3.181,2.283H33.6L23.95,18.366z"/>
					</defs>
					<clipPath id="SVGID_9_">
						<use xlink:href="#SVGID_8_"  overflow="visible"/>
					</clipPath>
					<path opacity="0.2" clip-path="url(#SVGID_9_)" fill="#FFFFFF" enable-background="new    " d="M23.901,18.532l0.049-0.166
						h-9.864L4.331,47.635H4.39l9.697-29.103H23.901L23.901,18.532z"/>
				</g>
			</g>
			<g>
				<g>
					<defs>
						<path id="SVGID_10_" d="M23.95,18.366h-9.864L4.331,47.635h7.278c1.444,0,2.722-0.918,3.181-2.283l4.205-12.371l4.146,12.371
							c0.449,1.365,1.737,2.283,3.181,2.283H33.6L23.95,18.366z"/>
					</defs>
					<clipPath id="SVGID_11_">
						<use xlink:href="#SVGID_10_"  overflow="visible"/>
					</clipPath>
					<path opacity="0.2" clip-path="url(#SVGID_11_)" fill="#1A237E" enable-background="new    " d="M14.789,45.186
						c-0.449,1.365-1.736,2.283-3.181,2.283H4.389L4.33,47.635h7.278c1.444,0,2.722-0.918,3.181-2.283l9.161-26.985h-0.059
						L14.789,45.186z"/>
				</g>
			</g>
			<g>
				<g>
					<defs>
						<path id="SVGID_12_" d="M23.95,18.366h-9.864L4.331,47.635h7.278c1.444,0,2.722-0.918,3.181-2.283l4.205-12.371l4.146,12.371
							c0.449,1.365,1.737,2.283,3.181,2.283H33.6L23.95,18.366z"/>
					</defs>
					<clipPath id="SVGID_13_">
						<use xlink:href="#SVGID_12_"  overflow="visible"/>
					</clipPath>
					<path opacity="0.2" clip-path="url(#SVGID_13_)" fill="#263238" enable-background="new    " d="M26.321,47.469
						c-1.444,0-2.722-0.918-3.181-2.283l-4.126-12.283l-0.029,0.088l4.146,12.37c0.449,1.365,1.737,2.283,3.181,2.283H33.6
						l-0.058-0.166h-7.22L26.321,47.469L26.321,47.469z"/>
				</g>
			</g>
			<g>
				<g>
					<defs>
						<path id="SVGID_14_" d="M23.95,8.366h-9.864L4.331,37.635h7.278c1.444,0,2.722-0.918,3.181-2.283l4.205-12.371l4.146,12.371
							c0.449,1.365,1.737,2.283,3.181,2.283H33.6L23.95,8.366z"/>
					</defs>
					<clipPath id="SVGID_15_">
						<use xlink:href="#SVGID_14_"  overflow="visible"/>
					</clipPath>
					<path opacity="0.2" clip-path="url(#SVGID_15_)" fill="#FFFFFF" enable-background="new    " d="M23.95,8.532l9.59,29.103
						h0.058L23.95,8.366V8.532z"/>
				</g>
			</g>
			
				<radialGradient id="SVGID_16_" cx="1246.627" cy="-1146.8584" r="64.6289" gradientTransform="matrix(0.4878 0 0 -0.4878 -595.8774 -545.1714)" gradientUnits="userSpaceOnUse">
				<stop  offset="0" style="stop-color:#FFFFFF"/>
				<stop  offset="1" style="stop-color:#FFFFFF;stop-opacity:0"/>
			</radialGradient>
			<path fill="url(#SVGID_16_)" fill-opacity="0.1" d="M23.95,8.366h-9.864L4.331,37.635h7.278c1.444,0,2.722-0.918,3.181-2.283
				l4.205-12.371l4.146,12.371c0.449,1.365,1.737,2.283,3.181,2.283H33.6L23.95,8.366z"/>
		</g>
	</g>
</g>
<g id="Layer_2_1_">
	<g>
		<path fill-rule="evenodd" clip-rule="evenodd" fill="#FEC419" d="M9.43,50.094c-4.572-1.083-3.276-4.647-3.245-7.676
			c1.337-3.766,3.738-5.7,7.975-5.08c1.336,0.192,2.957,0.637,4.187-0.622l-0.129,0.06c1.842-3.712-0.123-7.79,1.108-11.562
			c0.695-0.681,1.391-1.362,2.086-2.042c3.368-0.76,6.767-0.331,10.154-0.266c2.815,2.688,1.659,6.021,1.505,9.19
			c-4.92,6.552-11.601,11.402-17.038,17.467C13.861,50.091,11.582,49.289,9.43,50.094z"/>
		<path fill-rule="evenodd" clip-rule="evenodd" fill="#F58513" d="M32.784,22.083c0.706-3.671-1.453-7.701,1.389-11.105
			c3.444-0.998,6.904-0.721,10.369-0.141c2.945,1.687,1.792,4.423,1.758,6.872c-2.923,3.098-5.402,6.692-9.485,8.5
			c-1.085,0.119-1.996-0.297-2.835-0.928c-0.394-0.319-0.724-0.7-1.004-1.122c-0.109-0.224-0.216-0.453-0.325-0.679
			C32.449,22.992,32.494,22.526,32.784,22.083z"/>
		<path fill-rule="evenodd" clip-rule="evenodd" fill="#F17A06" d="M46.3,35.681c0.062,0.93,0.167,1.861,0.178,2.791
			c0.15,12.319,0.147,12.319-12.361,11.666c-0.636-0.599-0.764-1.35-0.664-2.173c1.403-6.065,6.928-8.946,10.386-13.433
			C45.145,33.872,45.806,34.598,46.3,35.681z"/>
		<path fill-rule="evenodd" clip-rule="evenodd" fill="#F5830E" d="M36.362,25.578c3.863-1.928,5.429-6.756,9.938-7.869
			c0,2.625,0,5.248,0,7.872c-1.693,1.903-3.146,4.088-5.761,4.917C38.047,29.792,35.984,28.721,36.362,25.578z"/>
		<path fill-rule="evenodd" clip-rule="evenodd" fill="#F4810A" d="M40.861,30.079c1.361-2.046,2.7-4.119,5.438-4.499
			c0,3.368,0,6.734,0,10.101c-0.688-0.369-1.375-0.738-2.063-1.106c-1.813-0.404-2.876-1.688-3.748-3.199
			C40.367,30.873,40.48,30.437,40.861,30.079z"/>
		<path fill-rule="evenodd" clip-rule="evenodd" fill="#F8AC10" d="M31.859,33.453c0.019-3.319,0.037-6.637,0.056-9.955
			c0.237-0.58,0.558-0.66,0.975-0.164l0.21,0.059c2.407,4.619,1.127,9.611,1.475,14.44c0.014,4.172-0.069,8.333-1.58,12.311
			c-0.375,0.001-0.751,0.002-1.126,0.002c-0.445-0.468-0.796-0.998-1.06-1.59c-0.823-2.82-0.338-5.725-0.552-8.589
			C30.173,37.645,30.5,35.42,31.859,33.453z"/>
		<path fill-rule="evenodd" clip-rule="evenodd" fill="#FEC720" d="M18.347,36.716c-0.421,0.35-0.909,1.055-1.257,0.993
			c-4.706-0.849-7.889,1.716-10.904,4.709c-0.693-3.996,0.97-5.894,5.039-5.757C13.596,36.74,15.973,36.7,18.347,36.716z"/>
		<path fill-rule="evenodd" clip-rule="evenodd" fill="#FABD14" d="M31.851,49.19c0.005,0.319,0.011,0.638,0.018,0.956
			C24.39,50.129,16.91,50.111,9.43,50.094c2.048-1.663,4.462-0.588,6.691-0.899c2-1.729,4.416-1.665,6.836-1.591
			C26.005,47.66,29.19,46.971,31.851,49.19z"/>
		<path fill-rule="evenodd" clip-rule="evenodd" fill="#E86C0A" d="M32.995,50.145c0.025-4.063,0.049-8.129,0.074-12.194
			c0.704-0.32,1.263-0.153,1.681,0.497c1.732,3.334-0.011,6.441-0.629,9.621c-0.001,0.689-0.004,1.38-0.005,2.069
			C33.743,50.14,33.369,50.143,32.995,50.145z"/>
		<path fill-rule="evenodd" clip-rule="evenodd" fill="#FECC34" d="M19.326,25.213c-0.231,3.867,1.608,7.933-1.108,11.562
			C19.178,32.979,17.563,28.935,19.326,25.213z"/>
		<path fill-rule="evenodd" clip-rule="evenodd" fill="#FECC34" d="M32.89,23.334c-0.329,0.028-0.655,0.082-0.976,0.161
			c-3.5-0.106-6.999-0.215-10.501-0.324c3.661-1.718,7.638-0.141,11.372-1.09C32.819,22.5,32.854,22.917,32.89,23.334z"/>
		<path fill-rule="evenodd" clip-rule="evenodd" fill="#F58A1C" d="M44.542,10.837c-3.457,0.047-6.913,0.094-10.369,0.141
			C37.605,9.18,41.063,9.257,44.542,10.837z"/>
		<path fill-rule="evenodd" clip-rule="evenodd" fill="#FEC415" d="M22.868,49.194c-2.249,0-4.498,0-6.747,0
			c3.787-6.705,9.268-11.719,15.737-15.741c-0.001,2.25-0.002,4.497-0.002,6.747C29.26,43.599,25.836,46.169,22.868,49.194z"/>
		<path fill-rule="evenodd" clip-rule="evenodd" fill="#ED790F" d="M40.861,30.079c0,0.375,0,0.749,0,1.123
			c-0.559,2.52-2.113,4.315-4.313,5.483c-1.095,0.58-2.525,1.156-2.967-0.911c0.273-3.772-0.647-7.6,0.541-11.327
			c0.747,0.378,1.493,0.754,2.239,1.131C37.441,27.499,38.942,28.999,40.861,30.079z"/>
		<path fill-rule="evenodd" clip-rule="evenodd" fill="#E66D12" d="M34.123,24.447c0,4.125,0,8.25-0.001,12.376
			c0.251,0.251,0.334,0.503,0.248,0.751c-0.086,0.251-0.172,0.374-0.256,0.374c-0.348,0-0.697,0.002-1.044,0.002
			c0.01-4.853,0.02-9.706,0.03-14.558C33.441,23.745,33.782,24.096,34.123,24.447z"/>
		<path fill-rule="evenodd" clip-rule="evenodd" fill="#EF790A" d="M34.113,37.948c0.003-0.376,0.006-0.751,0.009-1.125
			c3.184-0.751,3.935-4.419,6.74-5.622c1.518,0.73,2.642,1.856,3.375,3.373c-0.168,3-2.729,4.305-4.49,6.102
			c-2.2,2.244-4.289,4.516-5.625,7.393C34.119,44.695,34.116,41.321,34.113,37.948z"/>
		<path fill-rule="evenodd" clip-rule="evenodd" fill="#FEC311" d="M22.868,49.194c1.455-4.539,5.025-6.963,8.988-8.994
			c-0.001,2.996-0.003,5.995-0.005,8.99C28.857,49.192,25.862,49.193,22.868,49.194z"/>
	</g>
	<g>
		<rect x="51" y="10.5" fill-rule="evenodd" clip-rule="evenodd" fill="none" width="145" height="38.5"/>
		<path fill="#565656" d="M63.917,22.321c-0.434,0.621-1.039,1.085-1.815,1.393s-1.68,0.461-2.711,0.461
			c-1.043,0-1.969-0.245-2.777-0.734s-1.434-1.185-1.876-2.087s-0.669-1.948-0.681-3.138v-1.116c0-1.928,0.45-3.422,1.349-4.482
			s2.164-1.591,3.792-1.591c1.336,0,2.411,0.341,3.226,1.024s1.313,1.651,1.494,2.905H62.23c-0.316-1.699-1.324-2.549-3.023-2.549
			c-1.131,0-1.988,0.397-2.571,1.192c-0.583,0.795-0.877,1.946-0.883,3.453v1.047c0,1.437,0.328,2.579,0.984,3.426
			c0.656,0.847,1.544,1.271,2.663,1.271c0.633,0,1.187-0.07,1.661-0.21c0.475-0.14,0.867-0.377,1.178-0.71v-2.867h-2.962v-1.38
			h4.641V22.321z"/>
		<path fill="#565656" d="M66.477,19.157c0-0.932,0.183-1.77,0.549-2.514s0.876-1.318,1.529-1.723s1.399-0.606,2.237-0.606
			c1.295,0,2.342,0.448,3.142,1.345s1.2,2.089,1.2,3.577v0.114c0,0.926-0.177,1.756-0.532,2.492s-0.861,1.308-1.521,1.718
			s-1.417,0.615-2.272,0.615c-1.289,0-2.333-0.448-3.133-1.345s-1.2-2.083-1.2-3.56V19.157z M68.111,19.351
			c0,1.055,0.245,1.901,0.734,2.54s1.144,0.958,1.964,0.958c0.826,0,1.482-0.324,1.969-0.971s0.729-1.554,0.729-2.72
			c0-1.043-0.248-1.888-0.743-2.536s-1.153-0.971-1.973-0.971c-0.803,0-1.45,0.319-1.942,0.958S68.111,18.161,68.111,19.351z"/>
		<path fill="#565656" d="M77.174,19.157c0-0.932,0.183-1.77,0.549-2.514s0.876-1.318,1.529-1.723s1.399-0.606,2.237-0.606
			c1.295,0,2.342,0.448,3.142,1.345s1.2,2.089,1.2,3.577v0.114c0,0.926-0.177,1.756-0.532,2.492s-0.861,1.308-1.521,1.718
			s-1.417,0.615-2.272,0.615c-1.289,0-2.333-0.448-3.133-1.345s-1.2-2.083-1.2-3.56V19.157z M78.809,19.351
			c0,1.055,0.245,1.901,0.734,2.54s1.144,0.958,1.964,0.958c0.826,0,1.482-0.324,1.969-0.971s0.729-1.554,0.729-2.72
			c0-1.043-0.248-1.888-0.743-2.536s-1.153-0.971-1.973-0.971c-0.803,0-1.45,0.319-1.942,0.958S78.809,18.161,78.809,19.351z"/>
		<path fill="#565656" d="M87.916,19.166c0-1.482,0.343-2.662,1.028-3.538s1.594-1.314,2.725-1.314c1.16,0,2.065,0.41,2.716,1.23
			l0.079-1.055h1.485v9.281c0,1.23-0.365,2.2-1.094,2.909s-1.709,1.063-2.94,1.063c-0.686,0-1.356-0.146-2.013-0.439
			s-1.157-0.694-1.503-1.204l0.844-0.976c0.697,0.861,1.55,1.292,2.558,1.292c0.791,0,1.408-0.223,1.85-0.668
			s0.664-1.072,0.664-1.881v-0.817c-0.65,0.75-1.538,1.125-2.663,1.125c-1.113,0-2.014-0.448-2.703-1.345
			S87.916,20.713,87.916,19.166z M89.55,19.351c0,1.072,0.22,1.915,0.659,2.527s1.055,0.918,1.846,0.918
			c1.025,0,1.778-0.466,2.259-1.397v-4.342c-0.498-0.908-1.245-1.362-2.241-1.362c-0.791,0-1.409,0.308-1.854,0.923
			S89.55,18.144,89.55,19.351z"/>
		<path fill="#565656" d="M100.6,24h-1.626V10.5h1.626V24z"/>
		<path fill="#565656" d="M107.58,24.176c-1.289,0-2.338-0.423-3.146-1.27s-1.213-1.979-1.213-3.397V19.21
			c0-0.943,0.18-1.786,0.54-2.527s0.864-1.321,1.512-1.74s1.349-0.628,2.104-0.628c1.236,0,2.197,0.407,2.883,1.222
			s1.029,1.98,1.029,3.498v0.677h-6.443c0.023,0.938,0.298,1.695,0.822,2.272c0.523,0.577,1.191,0.866,2,0.866
			c0.574,0,1.061-0.117,1.459-0.352s0.746-0.545,1.045-0.932l0.994,0.773C110.369,23.563,109.174,24.176,107.58,24.176z
			 M107.377,15.65c-0.656,0-1.207,0.239-1.652,0.716s-0.721,1.147-0.826,2.008h4.764v-0.123c-0.047-0.826-0.27-1.466-0.668-1.92
			S108.057,15.65,107.377,15.65z"/>
		<path fill="#565656" d="M125.812,20.651h-5.361L119.246,24h-1.74l4.887-12.797h1.477L128.765,24h-1.731L125.812,20.651z
			 M120.96,19.271h4.351l-2.18-5.985L120.96,19.271z"/>
		<path fill="#565656" d="M132.202,14.49l0.053,1.195c0.727-0.914,1.676-1.371,2.848-1.371c2.01,0,3.023,1.134,3.041,3.401V24
			h-1.626v-6.293c-0.006-0.686-0.162-1.192-0.471-1.521c-0.307-0.328-0.786-0.492-1.437-0.492c-0.527,0-0.99,0.141-1.389,0.422
			s-0.709,0.65-0.932,1.107V24h-1.626v-9.51H132.202z"/>
		<path fill="#565656" d="M146.898,24c-0.094-0.188-0.17-0.521-0.229-1.002c-0.756,0.785-1.658,1.178-2.707,1.178
			c-0.938,0-1.707-0.265-2.307-0.795c-0.602-0.53-0.901-1.203-0.901-2.017c0-0.99,0.376-1.759,1.13-2.307
			c0.752-0.548,1.812-0.822,3.177-0.822h1.582v-0.747c0-0.568-0.17-1.021-0.51-1.358s-0.841-0.505-1.503-0.505
			c-0.58,0-1.066,0.146-1.459,0.439s-0.589,0.647-0.589,1.063h-1.635c0-0.475,0.168-0.933,0.505-1.375s0.794-0.792,1.371-1.05
			s1.212-0.387,1.903-0.387c1.096,0,1.954,0.274,2.575,0.822s0.943,1.302,0.967,2.263v4.377c0,0.873,0.111,1.567,0.334,2.083V24
			H146.898z M144.2,22.761c0.51,0,0.993-0.132,1.45-0.396s0.788-0.606,0.993-1.028v-1.951h-1.274c-1.992,0-2.988,0.583-2.988,1.749
			c0,0.51,0.17,0.908,0.51,1.195S143.667,22.761,144.2,22.761z"/>
		<path fill="#565656" d="M153.018,24h-1.626V10.5h1.626V24z"/>
		<path fill="#565656" d="M159.162,21.618l2.215-7.128h1.74l-3.823,10.978c-0.592,1.582-1.532,2.373-2.821,2.373l-0.308-0.026
			l-0.606-0.114v-1.318l0.439,0.035c0.551,0,0.98-0.111,1.287-0.334c0.309-0.223,0.562-0.63,0.761-1.222l0.36-0.967l-3.393-9.404
			h1.775L159.162,21.618z"/>
		<path fill="#565656" d="M167.205,12.188v2.303h1.775v1.257h-1.775v5.905c0,0.381,0.079,0.667,0.237,0.858
			c0.158,0.191,0.428,0.286,0.809,0.286c0.188,0,0.445-0.035,0.773-0.105v1.311c-0.428,0.117-0.844,0.175-1.248,0.175
			c-0.727,0-1.274-0.22-1.644-0.659s-0.554-1.063-0.554-1.872v-5.897h-1.731V14.49h1.731v-2.303H167.205z"/>
		<path fill="#565656" d="M171.32,11.968c0-0.264,0.08-0.486,0.241-0.668s0.4-0.272,0.717-0.272s0.557,0.091,0.721,0.272
			s0.246,0.404,0.246,0.668s-0.082,0.483-0.246,0.659s-0.404,0.264-0.721,0.264s-0.556-0.088-0.717-0.264
			S171.32,12.231,171.32,11.968z M173.078,24h-1.626v-9.51h1.626V24z"/>
		<path fill="#565656" d="M179.926,22.849c0.58,0,1.087-0.176,1.521-0.527s0.674-0.791,0.721-1.318h1.538
			c-0.029,0.545-0.217,1.063-0.563,1.556s-0.808,0.885-1.385,1.178s-1.188,0.439-1.832,0.439c-1.295,0-2.324-0.432-3.09-1.296
			c-0.764-0.864-1.146-2.046-1.146-3.546v-0.272c0-0.926,0.17-1.749,0.51-2.47s0.827-1.28,1.463-1.679s1.388-0.598,2.255-0.598
			c1.066,0,1.952,0.319,2.659,0.958c0.705,0.639,1.082,1.468,1.129,2.487h-1.538c-0.047-0.615-0.28-1.121-0.698-1.516
			c-0.42-0.396-0.937-0.593-1.552-0.593c-0.826,0-1.467,0.297-1.921,0.892s-0.681,1.455-0.681,2.58v0.308
			c0,1.096,0.226,1.939,0.677,2.531S179.088,22.849,179.926,22.849z"/>
		<path fill="#565656" d="M191.503,21.478c0-0.439-0.166-0.781-0.496-1.024c-0.332-0.243-0.909-0.453-1.732-0.628
			s-1.477-0.387-1.959-0.633c-0.484-0.246-0.842-0.539-1.072-0.879c-0.232-0.34-0.348-0.744-0.348-1.213
			c0-0.779,0.33-1.438,0.988-1.978c0.66-0.539,1.502-0.809,2.527-0.809c1.078,0,1.952,0.278,2.623,0.835s1.007,1.269,1.007,2.136
			h-1.635c0-0.445-0.188-0.829-0.567-1.151c-0.377-0.322-0.854-0.483-1.428-0.483c-0.592,0-1.055,0.129-1.389,0.387
			s-0.501,0.595-0.501,1.011c0,0.393,0.155,0.688,0.466,0.888s0.871,0.39,1.684,0.571c0.811,0.182,1.469,0.398,1.973,0.65
			s0.877,0.555,1.121,0.91c0.242,0.354,0.364,0.787,0.364,1.296c0,0.85-0.34,1.531-1.02,2.043s-1.562,0.769-2.646,0.769
			c-0.762,0-1.436-0.135-2.021-0.404s-1.045-0.646-1.375-1.129c-0.332-0.483-0.497-1.006-0.497-1.569h1.626
			c0.029,0.545,0.247,0.977,0.654,1.296s0.945,0.479,1.613,0.479c0.615,0,1.108-0.125,1.48-0.374S191.503,21.894,191.503,21.478z"/>
		<path fill="#565656" d="M98.503,43.539c-0.158,1.354-0.658,2.398-1.499,3.133c-0.841,0.736-1.958,1.104-3.353,1.104
			c-1.512,0-2.723-0.542-3.634-1.626s-1.367-2.534-1.367-4.351v-1.23c0-1.189,0.212-2.235,0.637-3.138s1.027-1.595,1.806-2.079
			c0.779-0.482,1.682-0.725,2.707-0.725c1.359,0,2.449,0.38,3.27,1.139s1.298,1.809,1.433,3.15h-1.696
			c-0.146-1.022-0.464-1.763-0.954-2.222c-0.489-0.458-1.173-0.688-2.052-0.688c-1.078,0-1.923,0.398-2.536,1.196
			s-0.918,1.933-0.918,3.404v1.24c0,1.39,0.29,2.495,0.87,3.316s1.392,1.231,2.435,1.231c0.938,0,1.657-0.212,2.158-0.638
			c0.501-0.424,0.833-1.164,0.998-2.219H98.503z"/>
		<path fill="#565656" d="M104.93,47.775c-1.289,0-2.338-0.423-3.146-1.27s-1.213-1.979-1.213-3.397V42.81
			c0-0.943,0.18-1.785,0.54-2.526s0.864-1.321,1.512-1.74s1.349-0.629,2.104-0.629c1.236,0,2.197,0.407,2.883,1.222
			s1.029,1.98,1.029,3.498v0.677h-6.443c0.023,0.938,0.298,1.695,0.822,2.271c0.524,0.578,1.191,0.866,2,0.866
			c0.574,0,1.061-0.117,1.459-0.352s0.746-0.545,1.045-0.932l0.994,0.773C107.719,47.163,106.523,47.775,104.93,47.775z
			 M104.727,39.25c-0.656,0-1.207,0.239-1.652,0.717s-0.721,1.146-0.826,2.008h4.764v-0.123c-0.047-0.826-0.27-1.466-0.668-1.92
			S105.406,39.25,104.727,39.25z"/>
		<path fill="#565656" d="M115.548,39.549c-0.246-0.041-0.513-0.062-0.8-0.062c-1.066,0-1.79,0.454-2.171,1.362v6.75h-1.626v-9.51
			h1.582l0.026,1.099c0.533-0.85,1.289-1.274,2.268-1.274c0.316,0,0.557,0.041,0.721,0.123V39.549z"/>
		<path fill="#565656" d="M120.119,35.787v2.303h1.775v1.257h-1.775v5.905c0,0.381,0.079,0.667,0.237,0.857s0.428,0.286,0.809,0.286
			c0.188,0,0.445-0.035,0.773-0.105v1.311c-0.428,0.116-0.844,0.175-1.248,0.175c-0.727,0-1.274-0.22-1.644-0.659
			s-0.554-1.063-0.554-1.872v-5.897h-1.731V38.09h1.731v-2.303H120.119z"/>
		<path fill="#565656" d="M124.233,35.567c0-0.264,0.08-0.486,0.241-0.668s0.4-0.272,0.717-0.272s0.557,0.091,0.721,0.272
			s0.246,0.404,0.246,0.668s-0.082,0.483-0.246,0.659s-0.404,0.264-0.721,0.264s-0.556-0.088-0.717-0.264
			S124.233,35.831,124.233,35.567z M125.991,47.6h-1.626v-9.51h1.626V47.6z"/>
		<path fill="#565656" d="M129.825,47.6v-8.253h-1.503V38.09h1.503v-0.976c0-1.02,0.272-1.808,0.817-2.364s1.315-0.835,2.312-0.835
			c0.375,0,0.747,0.05,1.116,0.148l-0.088,1.311c-0.275-0.053-0.568-0.079-0.879-0.079c-0.527,0-0.935,0.154-1.222,0.463
			s-0.431,0.751-0.431,1.327v1.005h2.03v1.257h-2.03V47.6H129.825z"/>
		<path fill="#565656" d="M135.715,35.567c0-0.264,0.08-0.486,0.241-0.668s0.4-0.272,0.717-0.272s0.557,0.091,0.721,0.272
			s0.246,0.404,0.246,0.668s-0.082,0.483-0.246,0.659s-0.404,0.264-0.721,0.264s-0.556-0.088-0.717-0.264
			S135.715,35.831,135.715,35.567z M137.473,47.6h-1.626v-9.51h1.626V47.6z"/>
		<path fill="#565656" d="M144.453,47.775c-1.289,0-2.338-0.423-3.146-1.27s-1.213-1.979-1.213-3.397V42.81
			c0-0.943,0.181-1.785,0.54-2.526c0.361-0.741,0.864-1.321,1.512-1.74s1.35-0.629,2.105-0.629c1.236,0,2.197,0.407,2.883,1.222
			s1.028,1.98,1.028,3.498v0.677h-6.442c0.023,0.938,0.297,1.695,0.822,2.271c0.523,0.578,1.19,0.866,1.999,0.866
			c0.574,0,1.061-0.117,1.459-0.352s0.747-0.545,1.046-0.932l0.993,0.773C147.242,47.163,146.047,47.775,144.453,47.775z
			 M144.251,39.25c-0.656,0-1.207,0.239-1.652,0.717s-0.721,1.146-0.826,2.008h4.764v-0.123c-0.047-0.826-0.27-1.466-0.668-1.92
			S144.931,39.25,144.251,39.25z"/>
		<path fill="#565656" d="M150.079,42.766c0-1.459,0.346-2.633,1.037-3.52c0.691-0.889,1.597-1.332,2.716-1.332
			c1.113,0,1.995,0.381,2.646,1.143V34.1h1.626v13.5h-1.494l-0.079-1.02c-0.65,0.797-1.556,1.195-2.716,1.195
			c-1.102,0-2-0.451-2.693-1.354c-0.695-0.902-1.042-2.08-1.042-3.533V42.766z M151.705,42.95c0,1.078,0.223,1.922,0.668,2.531
			s1.061,0.914,1.846,0.914c1.031,0,1.784-0.463,2.259-1.389v-4.368c-0.486-0.896-1.233-1.345-2.241-1.345
			c-0.797,0-1.418,0.308-1.863,0.923S151.705,41.743,151.705,42.95z"/>
	</g>
</g>
</svg>
