<?xml version="1.0" encoding="utf-8"?>
<!-- Generator: Adobe Illustrator 16.0.0, SVG Export Plug-In . SVG Version: 6.00 Build 0)  -->
<!DOCTYPE svg PUBLIC "-//W3C//DTD SVG 1.1//EN" "http://www.w3.org/Graphics/SVG/1.1/DTD/svg11.dtd">
<svg version="1.1" xmlns="http://www.w3.org/2000/svg" xmlns:xlink="http://www.w3.org/1999/xlink" x="0px" y="0px" width="200px"
	 height="66px" viewBox="0 0 200 66" enable-background="new 0 0 200 66" xml:space="preserve">
<g id="Layer_2">
	<g>
		<rect x="39.5" y="13.75" fill-rule="evenodd" clip-rule="evenodd" fill="none" width="145" height="38.5"/>
		<path fill="#565656" d="M52.674,25.589c-0.463,0.604-1.104,1.061-1.925,1.371s-1.752,0.466-2.795,0.466
			c-1.072,0-2.021-0.243-2.848-0.729s-1.463-1.182-1.912-2.087s-0.681-1.961-0.699-3.168v-1.002c0-1.934,0.463-3.444,1.389-4.531
			s2.218-1.63,3.876-1.63c1.424,0,2.555,0.353,3.393,1.059s1.342,1.721,1.512,3.045h-2.18c-0.246-1.541-1.14-2.312-2.681-2.312
			c-0.996,0-1.753,0.358-2.272,1.074s-0.787,1.766-0.804,3.151v0.981c0,1.379,0.292,2.45,0.875,3.212
			c0.583,0.763,1.393,1.144,2.43,1.144c1.137,0,1.945-0.256,2.426-0.77v-2.491h-2.637v-1.688h4.852V25.589z"/>
		<path fill="#565656" d="M54.943,22.407c0-0.932,0.185-1.771,0.554-2.518s0.888-1.321,1.556-1.723s1.436-0.602,2.303-0.602
			c1.283,0,2.325,0.413,3.125,1.239s1.232,1.922,1.296,3.287l0.009,0.501c0,0.938-0.18,1.775-0.541,2.514s-0.876,1.31-1.547,1.714
			s-1.446,0.606-2.325,0.606c-1.342,0-2.416-0.447-3.221-1.34s-1.208-2.084-1.208-3.573V22.407z M57.079,22.592
			c0,0.979,0.202,1.745,0.606,2.298s0.967,0.831,1.688,0.831s1.282-0.281,1.683-0.844s0.602-1.386,0.602-2.47
			c0-0.961-0.207-1.723-0.62-2.285s-0.974-0.844-1.683-0.844c-0.697,0-1.251,0.277-1.661,0.831S57.079,21.49,57.079,22.592z"/>
		<path fill="#565656" d="M65.623,22.407c0-0.932,0.185-1.771,0.554-2.518s0.888-1.321,1.556-1.723s1.436-0.602,2.303-0.602
			c1.283,0,2.325,0.413,3.125,1.239s1.232,1.922,1.296,3.287l0.009,0.501c0,0.938-0.18,1.775-0.541,2.514s-0.876,1.31-1.547,1.714
			s-1.446,0.606-2.325,0.606c-1.342,0-2.416-0.447-3.221-1.34s-1.208-2.084-1.208-3.573V22.407z M67.758,22.592
			c0,0.979,0.202,1.745,0.606,2.298s0.967,0.831,1.688,0.831s1.282-0.281,1.683-0.844s0.602-1.386,0.602-2.47
			c0-0.961-0.207-1.723-0.62-2.285s-0.974-0.844-1.683-0.844c-0.697,0-1.251,0.277-1.661,0.831S67.758,21.49,67.758,22.592z"/>
		<path fill="#565656" d="M76.329,22.425c0-1.477,0.347-2.656,1.042-3.538s1.616-1.323,2.764-1.323c1.084,0,1.937,0.378,2.558,1.134
			l0.097-0.958h1.925v9.22c0,1.248-0.388,2.232-1.165,2.953s-1.824,1.081-3.142,1.081c-0.697,0-1.378-0.145-2.043-0.435
			s-1.17-0.669-1.516-1.138l1.011-1.283c0.656,0.779,1.465,1.169,2.426,1.169c0.709,0,1.269-0.192,1.679-0.576
			s0.615-0.948,0.615-1.692v-0.642c-0.615,0.686-1.436,1.028-2.461,1.028c-1.113,0-2.023-0.442-2.729-1.327
			S76.329,23.989,76.329,22.425z M78.456,22.609c0,0.955,0.195,1.707,0.584,2.254s0.93,0.822,1.622,0.822
			c0.861,0,1.5-0.369,1.916-1.107v-4.184c-0.404-0.721-1.037-1.081-1.898-1.081c-0.703,0-1.25,0.278-1.639,0.835
			S78.456,21.525,78.456,22.609z"/>
		<path fill="#565656" d="M89.611,27.25h-2.136v-13.5h2.136V27.25z"/>
		<path fill="#565656" d="M96.556,27.426c-1.354,0-2.451-0.426-3.292-1.279c-0.84-0.853-1.261-1.988-1.261-3.406v-0.264
			c0-0.949,0.183-1.797,0.549-2.544s0.88-1.329,1.542-1.745s1.4-0.624,2.215-0.624c1.295,0,2.295,0.413,3.001,1.239
			s1.06,1.995,1.06,3.507v0.861h-6.214c0.064,0.785,0.326,1.406,0.787,1.863c0.459,0.457,1.038,0.686,1.735,0.686
			c0.979,0,1.775-0.396,2.391-1.187l1.151,1.099c-0.381,0.568-0.89,1.009-1.525,1.323S97.347,27.426,96.556,27.426z M96.301,19.278
			c-0.586,0-1.059,0.205-1.42,0.615c-0.359,0.41-0.59,0.981-0.689,1.714h4.069v-0.158c-0.047-0.715-0.237-1.255-0.571-1.622
			S96.893,19.278,96.301,19.278z"/>
		<path fill="#565656" d="M114.743,24.271h-4.957l-1.037,2.979h-2.312l4.834-12.797h1.995l4.843,12.797h-2.32L114.743,24.271z
			 M110.41,22.478h3.709l-1.854-5.309L110.41,22.478z"/>
		<path fill="#565656" d="M119.385,22.425c0-1.465,0.34-2.641,1.02-3.529s1.591-1.332,2.733-1.332c1.008,0,1.822,0.352,2.443,1.055
			V13.75h2.136v13.5h-1.934l-0.105-0.984c-0.639,0.773-1.491,1.16-2.558,1.16c-1.113,0-2.015-0.448-2.703-1.345
			S119.385,23.966,119.385,22.425z M121.521,22.609c0,0.967,0.186,1.721,0.559,2.263c0.371,0.542,0.9,0.813,1.586,0.813
			c0.873,0,1.512-0.39,1.916-1.169v-4.061c-0.393-0.762-1.025-1.143-1.898-1.143c-0.691,0-1.225,0.274-1.6,0.822
			S121.521,21.508,121.521,22.609z"/>
		<path fill="#565656" d="M140.62,24.086l1.969-9.633h2.206l-2.953,12.797h-2.127l-2.435-9.343l-2.487,9.343h-2.136l-2.953-12.797
			h2.206l1.986,9.615l2.443-9.615h1.863L140.62,24.086z"/>
		<path fill="#565656" d="M145.975,22.407c0-0.932,0.185-1.771,0.554-2.518s0.888-1.321,1.556-1.723s1.436-0.602,2.303-0.602
			c1.283,0,2.325,0.413,3.124,1.239c0.801,0.826,1.232,1.922,1.297,3.287l0.009,0.501c0,0.938-0.181,1.775-0.54,2.514
			c-0.361,0.738-0.877,1.31-1.547,1.714c-0.672,0.404-1.446,0.606-2.325,0.606c-1.342,0-2.416-0.447-3.222-1.34
			s-1.208-2.084-1.208-3.573V22.407z M148.11,22.592c0,0.979,0.202,1.745,0.606,2.298s0.967,0.831,1.688,0.831
			s1.281-0.281,1.683-0.844s0.603-1.386,0.603-2.47c0-0.961-0.206-1.723-0.62-2.285c-0.412-0.563-0.974-0.844-1.683-0.844
			c-0.697,0-1.251,0.277-1.661,0.831S148.11,21.49,148.11,22.592z"/>
		<path fill="#565656" d="M162.033,19.691c-0.281-0.047-0.571-0.07-0.87-0.07c-0.979,0-1.638,0.375-1.978,1.125v6.504h-2.136v-9.51
			h2.039l0.053,1.063c0.516-0.826,1.23-1.239,2.145-1.239c0.305,0,0.557,0.041,0.756,0.123L162.033,19.691z"/>
		<path fill="#565656" d="M163.247,22.425c0-1.465,0.34-2.641,1.02-3.529s1.591-1.332,2.733-1.332c1.008,0,1.822,0.352,2.443,1.055
			V13.75h2.136v13.5h-1.934l-0.105-0.984c-0.639,0.773-1.491,1.16-2.558,1.16c-1.113,0-2.015-0.448-2.703-1.345
			S163.247,23.966,163.247,22.425z M165.383,22.609c0,0.967,0.186,1.721,0.559,2.263c0.371,0.542,0.9,0.813,1.586,0.813
			c0.873,0,1.512-0.39,1.916-1.169v-4.061c-0.393-0.762-1.025-1.143-1.898-1.143c-0.691,0-1.225,0.274-1.6,0.822
			S165.383,21.508,165.383,22.609z"/>
		<path fill="#565656" d="M179.57,24.666c0-0.381-0.157-0.671-0.47-0.87c-0.314-0.199-0.834-0.375-1.561-0.527
			s-1.333-0.346-1.819-0.58c-1.066-0.516-1.6-1.263-1.6-2.241c0-0.82,0.346-1.506,1.037-2.057s1.57-0.826,2.637-0.826
			c1.137,0,2.055,0.281,2.755,0.844s1.051,1.292,1.051,2.188h-2.136c0-0.41-0.152-0.751-0.457-1.024s-0.709-0.409-1.213-0.409
			c-0.469,0-0.852,0.108-1.147,0.325s-0.443,0.507-0.443,0.87c0,0.328,0.138,0.583,0.413,0.765s0.832,0.365,1.67,0.549
			s1.495,0.404,1.974,0.659c0.477,0.255,0.831,0.561,1.063,0.918s0.348,0.791,0.348,1.301c0,0.855-0.354,1.548-1.063,2.079
			s-1.638,0.795-2.786,0.795c-0.779,0-1.474-0.141-2.083-0.422s-1.084-0.668-1.424-1.16s-0.51-1.022-0.51-1.591h2.074
			c0.029,0.504,0.22,0.892,0.571,1.165s0.817,0.409,1.397,0.409c0.563,0,0.99-0.107,1.283-0.321S179.57,25.012,179.57,24.666z"/>
		<path fill="#565656" d="M48.854,38.053l4.184,10.441l4.184-10.441h2.188V50.85h-1.688v-4.983l0.158-5.379L53.679,50.85h-1.292
			l-4.192-10.336l0.167,5.353v4.983h-1.688V38.053H48.854z"/>
		<path fill="#565656" d="M62.135,46.007c0-0.932,0.183-1.77,0.549-2.514s0.876-1.318,1.529-1.723s1.399-0.606,2.237-0.606
			c1.295,0,2.342,0.448,3.142,1.345s1.2,2.089,1.2,3.577V46.2c0,0.926-0.177,1.757-0.532,2.491C69.906,49.428,69.399,50,68.74,50.41
			s-1.417,0.615-2.272,0.615c-1.289,0-2.333-0.448-3.133-1.345s-1.2-2.083-1.2-3.56V46.007z M63.77,46.2
			c0,1.055,0.245,1.901,0.734,2.54s1.144,0.958,1.964,0.958c0.826,0,1.482-0.323,1.969-0.972c0.486-0.646,0.729-1.554,0.729-2.72
			c0-1.043-0.248-1.888-0.743-2.536c-0.495-0.646-1.153-0.971-1.973-0.971c-0.803,0-1.45,0.319-1.942,0.958S63.77,45.011,63.77,46.2
			z"/>
		<path fill="#565656" d="M81.314,46.2c0,1.453-0.334,2.621-1.002,3.503s-1.564,1.322-2.689,1.322c-1.201,0-2.13-0.425-2.786-1.274
			l-0.079,1.099h-1.494v-13.5h1.626v5.036c0.656-0.814,1.562-1.222,2.716-1.222s2.061,0.437,2.72,1.31s0.989,2.068,0.989,3.586V46.2
			z M79.688,46.016c0-1.107-0.214-1.963-0.642-2.566s-1.043-0.905-1.846-0.905c-1.072,0-1.843,0.498-2.312,1.494v4.113
			c0.498,0.996,1.274,1.494,2.329,1.494c0.779,0,1.386-0.302,1.819-0.905S79.688,47.229,79.688,46.016z"/>
		<path fill="#565656" d="M83.803,38.817c0-0.264,0.081-0.486,0.242-0.668s0.4-0.272,0.716-0.272s0.557,0.091,0.721,0.272
			s0.246,0.404,0.246,0.668s-0.082,0.483-0.246,0.659s-0.404,0.264-0.721,0.264s-0.555-0.088-0.716-0.264
			S83.803,39.081,83.803,38.817z M85.561,50.85h-1.626v-9.51h1.626V50.85z"/>
		<path fill="#565656" d="M90.361,50.85h-1.626v-13.5h1.626V50.85z"/>
		<path fill="#565656" d="M97.341,51.025c-1.289,0-2.338-0.423-3.146-1.27s-1.213-1.979-1.213-3.397V46.06
			c0-0.943,0.181-1.785,0.54-2.526c0.361-0.741,0.864-1.321,1.512-1.74s1.35-0.629,2.105-0.629c1.236,0,2.197,0.407,2.883,1.222
			s1.028,1.98,1.028,3.498v0.677h-6.442c0.023,0.938,0.297,1.695,0.822,2.271c0.523,0.578,1.19,0.866,1.999,0.866
			c0.574,0,1.061-0.117,1.459-0.352s0.747-0.545,1.046-0.932l0.993,0.773C100.13,50.413,98.935,51.025,97.341,51.025z M97.139,42.5
			c-0.656,0-1.207,0.239-1.652,0.717s-0.721,1.146-0.826,2.008h4.764v-0.123c-0.047-0.826-0.27-1.466-0.668-1.92
			S97.818,42.5,97.139,42.5z"/>
		<path fill="#565656" d="M117.919,46.789c-0.158,1.354-0.658,2.398-1.498,3.133c-0.842,0.736-1.959,1.104-3.354,1.104
			c-1.512,0-2.724-0.542-3.635-1.626s-1.366-2.534-1.366-4.351v-1.23c0-1.189,0.212-2.235,0.638-3.138
			c0.424-0.902,1.026-1.595,1.806-2.079c0.779-0.482,1.682-0.725,2.707-0.725c1.359,0,2.449,0.38,3.27,1.139s1.298,1.809,1.433,3.15
			h-1.696c-0.146-1.022-0.465-1.763-0.954-2.222c-0.489-0.458-1.173-0.688-2.052-0.688c-1.078,0-1.924,0.398-2.536,1.196
			s-0.918,1.933-0.918,3.404v1.24c0,1.39,0.29,2.495,0.87,3.316s1.392,1.231,2.435,1.231c0.938,0,1.656-0.212,2.158-0.638
			c0.5-0.424,0.833-1.164,0.997-2.219H117.919z"/>
		<path fill="#565656" d="M124.345,51.025c-1.289,0-2.338-0.423-3.146-1.27s-1.213-1.979-1.213-3.397V46.06
			c0-0.943,0.181-1.785,0.54-2.526c0.361-0.741,0.864-1.321,1.512-1.74s1.35-0.629,2.105-0.629c1.236,0,2.197,0.407,2.883,1.222
			s1.028,1.98,1.028,3.498v0.677h-6.442c0.023,0.938,0.297,1.695,0.822,2.271c0.523,0.578,1.19,0.866,1.999,0.866
			c0.574,0,1.061-0.117,1.459-0.352s0.747-0.545,1.046-0.932l0.993,0.773C127.134,50.413,125.938,51.025,124.345,51.025z
			 M124.143,42.5c-0.656,0-1.207,0.239-1.652,0.717s-0.721,1.146-0.826,2.008h4.764v-0.123c-0.047-0.826-0.27-1.466-0.668-1.92
			S124.822,42.5,124.143,42.5z"/>
		<path fill="#565656" d="M134.963,42.799c-0.246-0.041-0.513-0.062-0.8-0.062c-1.066,0-1.79,0.454-2.171,1.362v6.75h-1.626v-9.51
			h1.582l0.026,1.099c0.533-0.85,1.289-1.274,2.268-1.274c0.316,0,0.557,0.041,0.721,0.123V42.799z"/>
		<path fill="#565656" d="M139.535,39.037v2.303h1.775v1.257h-1.775v5.905c0,0.381,0.079,0.667,0.237,0.857s0.428,0.286,0.809,0.286
			c0.188,0,0.445-0.035,0.773-0.105v1.311c-0.428,0.116-0.844,0.175-1.248,0.175c-0.727,0-1.274-0.22-1.644-0.659
			s-0.554-1.063-0.554-1.872v-5.897h-1.731V41.34h1.731v-2.303H139.535z"/>
		<path fill="#565656" d="M143.649,38.817c0-0.264,0.08-0.486,0.241-0.668s0.4-0.272,0.717-0.272s0.557,0.091,0.721,0.272
			s0.246,0.404,0.246,0.668s-0.082,0.483-0.246,0.659s-0.404,0.264-0.721,0.264s-0.556-0.088-0.717-0.264
			S143.649,39.081,143.649,38.817z M145.407,50.85h-1.626v-9.51h1.626V50.85z"/>
		<path fill="#565656" d="M149.24,50.85v-8.253h-1.503V41.34h1.503v-0.976c0-1.02,0.272-1.808,0.817-2.364s1.315-0.835,2.312-0.835
			c0.375,0,0.747,0.05,1.116,0.148l-0.088,1.311c-0.275-0.053-0.568-0.079-0.879-0.079c-0.527,0-0.935,0.154-1.222,0.463
			s-0.431,0.751-0.431,1.327v1.005h2.03v1.257h-2.03v8.253H149.24z"/>
		<path fill="#565656" d="M155.131,38.817c0-0.264,0.08-0.486,0.241-0.668s0.4-0.272,0.717-0.272s0.557,0.091,0.721,0.272
			s0.246,0.404,0.246,0.668s-0.082,0.483-0.246,0.659s-0.404,0.264-0.721,0.264s-0.556-0.088-0.717-0.264
			S155.131,39.081,155.131,38.817z M156.889,50.85h-1.626v-9.51h1.626V50.85z"/>
		<path fill="#565656" d="M163.868,51.025c-1.289,0-2.338-0.423-3.146-1.27s-1.213-1.979-1.213-3.397V46.06
			c0-0.943,0.181-1.785,0.54-2.526c0.361-0.741,0.864-1.321,1.512-1.74s1.35-0.629,2.105-0.629c1.236,0,2.197,0.407,2.883,1.222
			s1.028,1.98,1.028,3.498v0.677h-6.442c0.023,0.938,0.297,1.695,0.822,2.271c0.523,0.578,1.19,0.866,1.999,0.866
			c0.574,0,1.061-0.117,1.459-0.352s0.747-0.545,1.046-0.932l0.993,0.773C166.657,50.413,165.462,51.025,163.868,51.025z
			 M163.666,42.5c-0.656,0-1.207,0.239-1.652,0.717s-0.721,1.146-0.826,2.008h4.764v-0.123c-0.047-0.826-0.27-1.466-0.668-1.92
			S164.346,42.5,163.666,42.5z"/>
		<path fill="#565656" d="M169.495,46.016c0-1.459,0.346-2.633,1.037-3.52c0.691-0.889,1.597-1.332,2.716-1.332
			c1.113,0,1.995,0.381,2.646,1.143V37.35h1.626v13.5h-1.494l-0.079-1.02c-0.65,0.797-1.556,1.195-2.716,1.195
			c-1.102,0-2-0.451-2.693-1.354c-0.695-0.902-1.042-2.08-1.042-3.533V46.016z M171.121,46.2c0,1.078,0.223,1.922,0.668,2.531
			s1.061,0.914,1.846,0.914c1.031,0,1.784-0.463,2.259-1.389v-4.368c-0.486-0.896-1.233-1.345-2.241-1.345
			c-0.797,0-1.418,0.308-1.863,0.923S171.121,44.993,171.121,46.2z"/>
	</g>
</g>
<g id="Layer_1">
	<g>
		<g>
			<defs>
				<path id="SVGID_1_" d="M23.95,8.366h-9.864L4.331,37.635h7.278c1.444,0,2.722-0.918,3.181-2.283l4.205-12.371l4.146,12.371
					c0.449,1.365,1.737,2.283,3.181,2.283h7.278L23.95,8.366z"/>
			</defs>
			<clipPath id="SVGID_2_">
				<use xlink:href="#SVGID_1_"  overflow="visible"/>
			</clipPath>
			<path clip-path="url(#SVGID_2_)" fill="#0F9D58" d="M33.599,37.635L23.95,8.366h-9.864l9.054,26.986
				c0.449,1.365,1.737,2.283,3.181,2.283H33.599z"/>
		</g>
		<g>
			<defs>
				<path id="SVGID_3_" d="M23.95,8.366h-9.864L4.331,37.635h7.278c1.444,0,2.722-0.918,3.181-2.283l4.205-12.371l4.146,12.371
					c0.449,1.365,1.737,2.283,3.181,2.283h7.278L23.95,8.366z"/>
			</defs>
			<clipPath id="SVGID_4_">
				<use xlink:href="#SVGID_3_"  overflow="visible"/>
			</clipPath>
			<g clip-path="url(#SVGID_4_)">
				
					<image overflow="visible" opacity="0.2" enable-background="new    " width="147" height="205" xlink:href="20982991.png"  transform="matrix(0.1612 0 0 0.1628 3 7.0356)">
				</image>
				<path fill="#4285F4" d="M4.331,37.635l9.756-29.269h9.864l-9.161,26.986c-0.449,1.365-1.736,2.283-3.181,2.283H4.331z"/>
			</g>
		</g>
		<g>
			<defs>
				<path id="SVGID_5_" d="M23.95,8.366h-9.864L4.331,37.635h7.278c1.444,0,2.722-0.918,3.181-2.283l4.205-12.371l4.146,12.371
					c0.449,1.365,1.737,2.283,3.181,2.283h7.278L23.95,8.366z"/>
			</defs>
			<clipPath id="SVGID_6_">
				<use xlink:href="#SVGID_5_"  overflow="visible"/>
			</clipPath>
			
				<radialGradient id="SVGID_7_" cx="655.6045" cy="675.0205" r="40.3042" gradientTransform="matrix(0.4878 0 0 0.4878 -300.1733 -305.6372)" gradientUnits="userSpaceOnUse">
				<stop  offset="0" style="stop-color:#263238;stop-opacity:0.2"/>
				<stop  offset="1" style="stop-color:#263238;stop-opacity:0.02"/>
			</radialGradient>
			<path clip-path="url(#SVGID_6_)" fill="url(#SVGID_7_)" d="M18.994,22.98l0.02,0.068l14.585,14.586L23.95,8.366L18.994,22.98z"/>
		</g>
		<g>
			<defs>
				<path id="SVGID_8_" d="M23.95,18.366h-9.864L4.331,47.635h7.278c1.444,0,2.722-0.918,3.181-2.283l4.205-12.371l4.146,12.371
					c0.449,1.365,1.737,2.283,3.181,2.283h7.278L23.95,18.366z"/>
			</defs>
			<clipPath id="SVGID_9_">
				<use xlink:href="#SVGID_8_"  overflow="visible"/>
			</clipPath>
			<path opacity="0.2" clip-path="url(#SVGID_9_)" fill="#FFFFFF" enable-background="new    " d="M23.901,18.532l0.049-0.166
				h-9.864L4.331,47.635h0.059l9.697-29.103H23.901z"/>
		</g>
		<g>
			<defs>
				<path id="SVGID_10_" d="M23.95,18.366h-9.864L4.331,47.635h7.278c1.444,0,2.722-0.918,3.181-2.283l4.205-12.371l4.146,12.371
					c0.449,1.365,1.737,2.283,3.181,2.283h7.278L23.95,18.366z"/>
			</defs>
			<clipPath id="SVGID_11_">
				<use xlink:href="#SVGID_10_"  overflow="visible"/>
			</clipPath>
			<path opacity="0.2" clip-path="url(#SVGID_11_)" fill="#1A237E" enable-background="new    " d="M14.789,45.186
				c-0.449,1.365-1.736,2.283-3.181,2.283H4.389l-0.059,0.166h7.278c1.444,0,2.722-0.918,3.181-2.283l9.161-26.986h-0.059
				L14.789,45.186z"/>
		</g>
		<g>
			<defs>
				<path id="SVGID_12_" d="M23.95,18.366h-9.864L4.331,47.635h7.278c1.444,0,2.722-0.918,3.181-2.283l4.205-12.371l4.146,12.371
					c0.449,1.365,1.737,2.283,3.181,2.283h7.278L23.95,18.366z"/>
			</defs>
			<clipPath id="SVGID_13_">
				<use xlink:href="#SVGID_12_"  overflow="visible"/>
			</clipPath>
			<path opacity="0.2" clip-path="url(#SVGID_13_)" fill="#263238" enable-background="new    " d="M26.321,47.469
				c-1.444,0-2.722-0.918-3.181-2.283l-4.126-12.283l-0.029,0.088l4.146,12.371c0.449,1.365,1.737,2.283,3.181,2.283h7.288
				l-0.058-0.166h-7.22V47.469z"/>
		</g>
		<g>
			<defs>
				<path id="SVGID_14_" d="M23.95,8.366h-9.864L4.331,37.635h7.278c1.444,0,2.722-0.918,3.181-2.283l4.205-12.371l4.146,12.371
					c0.449,1.365,1.737,2.283,3.181,2.283h7.278L23.95,8.366z"/>
			</defs>
			<clipPath id="SVGID_15_">
				<use xlink:href="#SVGID_14_"  overflow="visible"/>
			</clipPath>
			<path opacity="0.2" clip-path="url(#SVGID_15_)" fill="#FFFFFF" enable-background="new    " d="M23.95,8.532l9.59,29.103h0.058
				L23.95,8.366V8.532z"/>
		</g>
		
			<radialGradient id="SVGID_16_" cx="640.4336" cy="655.8154" r="64.6304" gradientTransform="matrix(0.4878 0 0 0.4878 -300.1733 -305.6372)" gradientUnits="userSpaceOnUse">
			<stop  offset="0" style="stop-color:#FFFFFF"/>
			<stop  offset="1" style="stop-color:#FFFFFF;stop-opacity:0"/>
		</radialGradient>
		<path fill="url(#SVGID_16_)" fill-opacity="0.1" d="M23.95,8.366h-9.864L4.331,37.635h7.278c1.444,0,2.722-0.918,3.181-2.283
			l4.205-12.371l4.146,12.371c0.449,1.365,1.737,2.283,3.181,2.283h7.278L23.95,8.366z"/>
	</g>
</g>
</svg>
