<?xml version="1.0" encoding="utf-8"?>
<!-- Generator: Adobe Illustrator 16.0.0, SVG Export Plug-In . SVG Version: 6.00 Build 0)  -->
<!DOCTYPE svg PUBLIC "-//W3C//DTD SVG 1.1//EN" "http://www.w3.org/Graphics/SVG/1.1/DTD/svg11.dtd">
<svg version="1.1" xmlns="http://www.w3.org/2000/svg" xmlns:xlink="http://www.w3.org/1999/xlink" x="0px" y="0px" width="200px"
	 height="66px" viewBox="0 0 200 66" enable-background="new 0 0 200 66" xml:space="preserve">
<g id="Layer_1" display="none">
	<g id="Layer_2" display="inline">
		<rect x="42" y="40.75" fill="none" width="116" height="19.25"/>
		<g opacity="0.54" enable-background="new    ">
			<path d="M76.95,50.189c-0.158,1.354-0.658,2.398-1.499,3.133c-0.841,0.736-1.958,1.104-3.353,1.104
				c-1.512,0-2.723-0.542-3.634-1.626s-1.367-2.534-1.367-4.351v-1.23c0-1.189,0.212-2.235,0.637-3.138s1.027-1.595,1.806-2.079
				c0.779-0.482,1.682-0.725,2.707-0.725c1.359,0,2.449,0.38,3.27,1.139s1.298,1.809,1.433,3.15h-1.696
				c-0.146-1.022-0.464-1.763-0.954-2.222c-0.489-0.458-1.173-0.688-2.052-0.688c-1.078,0-1.923,0.398-2.536,1.196
				s-0.918,1.933-0.918,3.404v1.24c0,1.39,0.29,2.495,0.87,3.316s1.392,1.231,2.435,1.231c0.938,0,1.657-0.212,2.158-0.638
				c0.501-0.424,0.833-1.164,0.998-2.219H76.95z"/>
			<path d="M82.944,54.426c-1.289,0-2.338-0.423-3.146-1.27s-1.213-1.979-1.213-3.397V49.46c0-0.943,0.18-1.785,0.541-2.526
				s0.864-1.321,1.512-1.74s1.349-0.629,2.105-0.629c1.236,0,2.197,0.407,2.883,1.222s1.028,1.98,1.028,3.498v0.677h-6.442
				c0.023,0.938,0.297,1.695,0.822,2.271c0.524,0.578,1.191,0.866,2,0.866c0.574,0,1.061-0.117,1.459-0.352s0.747-0.545,1.046-0.932
				l0.993,0.773C85.733,53.813,84.538,54.426,82.944,54.426z M82.742,45.9c-0.656,0-1.207,0.239-1.652,0.717
				s-0.721,1.146-0.826,2.008h4.764v-0.123c-0.047-0.826-0.27-1.466-0.668-1.92S83.422,45.9,82.742,45.9z"/>
			<path d="M93.131,46.199c-0.246-0.041-0.513-0.062-0.8-0.062c-1.066,0-1.79,0.454-2.171,1.362v6.75h-1.626v-9.51h1.582
				l0.026,1.099c0.533-0.85,1.289-1.274,2.268-1.274c0.316,0,0.557,0.041,0.721,0.123V46.199z"/>
			<path d="M97.271,42.438v2.303h1.775v1.257h-1.775v5.905c0,0.381,0.079,0.667,0.237,0.857s0.428,0.286,0.809,0.286
				c0.188,0,0.445-0.035,0.773-0.105v1.311c-0.428,0.116-0.844,0.175-1.248,0.175c-0.727,0-1.274-0.22-1.644-0.659
				s-0.554-1.063-0.554-1.872v-5.897h-1.731V44.74h1.731v-2.303H97.271z"/>
			<path d="M100.953,42.218c0-0.264,0.08-0.486,0.242-0.668c0.16-0.182,0.399-0.272,0.716-0.272s0.557,0.091,0.721,0.272
				s0.246,0.404,0.246,0.668s-0.082,0.483-0.246,0.659s-0.404,0.264-0.721,0.264s-0.556-0.088-0.716-0.264
				C101.033,42.701,100.953,42.481,100.953,42.218z M102.711,54.25h-1.626v-9.51h1.626V54.25z"/>
			<path d="M106.112,54.25v-8.253h-1.503V44.74h1.503v-0.976c0-1.02,0.272-1.808,0.817-2.364s1.315-0.835,2.312-0.835
				c0.375,0,0.747,0.05,1.116,0.148l-0.088,1.311c-0.275-0.053-0.568-0.079-0.879-0.079c-0.527,0-0.935,0.154-1.222,0.463
				s-0.431,0.751-0.431,1.327v1.005h2.03v1.257h-2.03v8.253H106.112z"/>
			<path d="M111.57,42.218c0-0.264,0.08-0.486,0.242-0.668c0.16-0.182,0.399-0.272,0.716-0.272s0.557,0.091,0.721,0.272
				s0.246,0.404,0.246,0.668s-0.082,0.483-0.246,0.659s-0.404,0.264-0.721,0.264s-0.556-0.088-0.716-0.264
				C111.65,42.701,111.57,42.481,111.57,42.218z M113.328,54.25h-1.626v-9.51h1.626V54.25z"/>
			<path d="M119.876,54.426c-1.289,0-2.338-0.423-3.146-1.27s-1.213-1.979-1.213-3.397V49.46c0-0.943,0.181-1.785,0.54-2.526
				c0.361-0.741,0.865-1.321,1.512-1.74c0.648-0.419,1.35-0.629,2.105-0.629c1.236,0,2.197,0.407,2.883,1.222
				s1.028,1.98,1.028,3.498v0.677h-6.442c0.023,0.938,0.297,1.695,0.822,2.271c0.523,0.578,1.19,0.866,1.999,0.866
				c0.574,0,1.061-0.117,1.459-0.352s0.747-0.545,1.046-0.932l0.993,0.773C122.665,53.813,121.47,54.426,119.876,54.426z
				 M119.674,45.9c-0.656,0-1.207,0.239-1.652,0.717s-0.721,1.146-0.826,2.008h4.764v-0.123c-0.047-0.826-0.27-1.466-0.668-1.92
				S120.354,45.9,119.674,45.9z"/>
			<path d="M125.07,49.416c0-1.459,0.346-2.633,1.037-3.52c0.691-0.889,1.597-1.332,2.716-1.332c1.113,0,1.995,0.381,2.646,1.143
				V40.75h1.626v13.5h-1.494l-0.079-1.02c-0.65,0.797-1.556,1.195-2.716,1.195c-1.102,0-1.999-0.451-2.694-1.354
				c-0.693-0.902-1.041-2.08-1.041-3.533V49.416z M126.696,49.601c0,1.078,0.223,1.922,0.668,2.531s1.061,0.914,1.846,0.914
				c1.031,0,1.784-0.463,2.259-1.389v-4.368c-0.486-0.896-1.233-1.345-2.241-1.345c-0.797,0-1.418,0.308-1.863,0.923
				S126.696,48.394,126.696,49.601z"/>
		</g>
	</g>
	<g id="Layer_1_1_" display="inline">
		<path opacity="0.54" enable-background="new    " d="M43.063,21.234v2.4H48.8c-0.175,1.346-0.624,2.331-1.307,3.023
			c-0.839,0.84-2.146,1.756-4.429,1.756c-3.532,0-6.293-2.848-6.293-6.38c0-3.532,2.761-6.38,6.293-6.38
			c1.902,0,3.297,0.751,4.322,1.717l1.688-1.688c-1.424-1.386-3.336-2.439-6.01-2.439c-4.839,0-8.907,3.941-8.907,8.78
			s4.068,8.78,8.907,8.78c2.615,0,4.585-0.858,6.127-2.459c1.58-1.58,2.078-3.814,2.078-5.609c0-0.556-0.039-1.073-0.126-1.502
			L43.063,21.234L43.063,21.234z M58.439,19.283c-3.132,0-5.688,2.381-5.688,5.668c0,3.259,2.556,5.668,5.688,5.668
			s5.688-2.399,5.688-5.668C64.127,21.664,61.571,19.283,58.439,19.283z M58.439,28.385c-1.717,0-3.2-1.414-3.2-3.434
			c0-2.039,1.483-3.434,3.2-3.434c1.717,0,3.2,1.395,3.2,3.434C61.639,26.971,60.156,28.385,58.439,28.385z M86.322,20.551h-0.087
			c-0.556-0.664-1.629-1.269-2.985-1.269c-2.83,0-5.298,2.468-5.298,5.668c0,3.181,2.468,5.668,5.298,5.668
			c1.356,0,2.429-0.604,2.985-1.287h0.087v0.79c0,2.165-1.161,3.327-3.024,3.327c-1.522,0-2.468-1.094-2.858-2.02l-2.166,0.896
			c0.625,1.503,2.273,3.348,5.024,3.348c2.917,0,5.386-1.718,5.386-5.903V19.576h-2.361v0.975H86.322z M83.463,28.385
			c-1.717,0-3.024-1.463-3.024-3.434c0-2,1.307-3.434,3.024-3.434c1.698,0,3.024,1.463,3.024,3.454
			C86.498,26.951,85.161,28.385,83.463,28.385z M71.122,19.283c-3.132,0-5.688,2.381-5.688,5.668c0,3.259,2.556,5.668,5.688,5.668
			s5.688-2.399,5.688-5.668C76.81,21.664,74.254,19.283,71.122,19.283z M71.122,28.385c-1.717,0-3.2-1.414-3.2-3.434
			c0-2.039,1.483-3.434,3.2-3.434c1.717,0,3.2,1.395,3.2,3.434C74.322,26.971,72.839,28.385,71.122,28.385z M90.634,13.478h2.449
			v17.141h-2.449V13.478z M100.645,28.385c-1.27,0-2.166-0.575-2.751-1.717l7.58-3.131l-0.252-0.645
			c-0.47-1.268-1.914-3.61-4.85-3.61c-2.918,0-5.347,2.293-5.347,5.668c0,3.181,2.399,5.668,5.621,5.668
			c2.595,0,4.097-1.59,4.721-2.507l-1.932-1.288C102.79,27.761,101.912,28.385,100.645,28.385L100.645,28.385z M100.469,21.41
			c1.004,0,1.863,0.517,2.146,1.249l-5.123,2.117C97.492,22.395,99.181,21.41,100.469,21.41z M109.492,30.629h2.205l1.513-4.186
			h6.497l1.493,4.186h2.204l-5.844-15.453h-2.244L109.492,30.629L109.492,30.629z M113.873,24.58l2.527-6.965h0.088l2.525,6.965
			H113.873z M128.956,30.971c1.688,0,2.995-0.839,3.601-1.814h0.088v1.463h1.902V15.195h-1.99v4.858l0.088,1.463h-0.088
			c-0.604-0.976-1.922-1.814-3.601-1.814c-2.673,0-5.024,2.4-5.024,5.629C123.932,28.561,126.283,30.971,128.956,30.971z
			 M129.277,29.156c-1.767,0-3.365-1.443-3.365-3.824s1.6-3.825,3.365-3.825c1.767,0,3.367,1.405,3.367,3.825
			C132.645,27.751,131.044,29.156,129.277,29.156z M155.307,15.195h-2.066l-3.094,12.146h-0.088l-3.346-10.078h-1.854l-3.348,10.078
			h-0.088l-3.258-12.146h-2.068l4.293,15.453h2.029l3.326-10.185h0.088l3.327,10.185h2.028L155.307,15.195z M160.508,19.703
			c-3.172,0-5.435,2.419-5.435,5.629c0,3.209,2.263,5.629,5.435,5.629c3.17,0,5.434-2.42,5.434-5.629
			C165.941,22.122,163.678,19.703,160.508,19.703z M160.508,29.156c-1.766,0-3.453-1.405-3.453-3.824
			c0-2.42,1.688-3.825,3.453-3.825s3.453,1.405,3.453,3.825C163.961,27.751,162.273,29.156,160.508,29.156z M169.521,30.629v-5.785
			c0-1.941,1.386-3.083,2.742-3.083c0.43,0,0.779,0.039,1.053,0.146l0.752-1.854c-0.41-0.176-0.84-0.264-1.492-0.264
			c-1.104,0-2.635,0.781-3.064,1.99h-0.088v-1.727h-1.902v10.575h2V30.629z M179.678,30.971c1.688,0,2.996-0.839,3.6-1.814h0.089
			v1.463h1.901V15.195h-1.99v4.858l0.089,1.463h-0.089c-0.604-0.976-1.922-1.814-3.6-1.814c-2.673,0-5.023,2.4-5.023,5.629
			C174.654,28.561,177.005,30.971,179.678,30.971z M180,29.156c-1.766,0-3.365-1.443-3.365-3.824s1.6-3.825,3.365-3.825
			s3.365,1.405,3.365,3.825C183.365,27.751,181.775,29.156,180,29.156z M190.977,30.971c2.478,0,4.166-1.443,4.166-3.326
			c0-1.299-0.819-2.586-2.918-3.084l-2.098-0.497c-0.84-0.195-1.404-0.566-1.404-1.229c0-0.858,0.975-1.356,2.098-1.356
			c1.033,0,2.01,0.41,2.42,1.405l1.727-0.712c-0.645-1.62-2.242-2.458-4.078-2.458c-2.203,0-4.185,1.229-4.185,3.151
			c0,1.854,1.854,2.703,2.828,2.937l2.137,0.517c1.122,0.283,1.444,0.859,1.444,1.406c0,0.887-0.889,1.492-2.117,1.492
			c-1.278,0-2.313-0.645-2.868-1.99l-1.767,0.731C186.984,29.459,188.43,30.971,190.977,30.971L190.977,30.971z"/>
		<g>
			<g>
				<g>
					<defs>
						<path id="SVGID_1_" d="M23.95,8.366h-9.864L4.331,37.635h7.278c1.444,0,2.722-0.918,3.181-2.283l4.205-12.371l4.146,12.371
							c0.449,1.365,1.737,2.283,3.181,2.283H33.6L23.95,8.366z"/>
					</defs>
					<clipPath id="SVGID_2_">
						<use xlink:href="#SVGID_1_"  overflow="visible"/>
					</clipPath>
					<path clip-path="url(#SVGID_2_)" fill="#0F9D58" d="M33.599,37.635L23.95,8.366h-9.864l9.054,26.985
						c0.449,1.365,1.737,2.283,3.181,2.283H33.599z"/>
				</g>
			</g>
			<g>
				<g>
					<defs>
						<path id="SVGID_3_" d="M23.95,8.366h-9.864L4.331,37.635h7.278c1.444,0,2.722-0.918,3.181-2.283l4.205-12.371l4.146,12.371
							c0.449,1.365,1.737,2.283,3.181,2.283H33.6L23.95,8.366z"/>
					</defs>
					<clipPath id="SVGID_4_">
						<use xlink:href="#SVGID_3_"  overflow="visible"/>
					</clipPath>
					<g clip-path="url(#SVGID_4_)">
						
							<image overflow="visible" opacity="0.2" enable-background="new    " width="155" height="211" xlink:href="20982994.png"  transform="matrix(0.1611 0 0 0.1611 -7808.4834 -7902.9941)">
						</image>
						<path fill="#4285F4" d="M4.331,37.635l9.756-29.269h9.864L14.79,35.352c-0.449,1.365-1.736,2.283-3.181,2.283H4.331z"/>
					</g>
				</g>
			</g>
			<g>
				<g>
					<defs>
						<path id="SVGID_5_" d="M23.95,8.366h-9.864L4.331,37.635h7.278c1.444,0,2.722-0.918,3.181-2.283l4.205-12.371l4.146,12.371
							c0.449,1.365,1.737,2.283,3.181,2.283H33.6L23.95,8.366z"/>
					</defs>
					<clipPath id="SVGID_6_">
						<use xlink:href="#SVGID_5_"  overflow="visible"/>
					</clipPath>
					
						<radialGradient id="SVGID_7_" cx="1261.7969" cy="-1166.063" r="40.3046" gradientTransform="matrix(0.4878 0 0 -0.4878 -595.8774 -545.1714)" gradientUnits="userSpaceOnUse">
						<stop  offset="0" style="stop-color:#263238;stop-opacity:0.2"/>
						<stop  offset="1" style="stop-color:#263238;stop-opacity:0.02"/>
					</radialGradient>
					<path clip-path="url(#SVGID_6_)" fill="url(#SVGID_7_)" d="M18.994,22.98l0.02,0.068l14.585,14.586L23.95,8.366L18.994,22.98z"
						/>
				</g>
			</g>
			<g>
				<g>
					<defs>
						<path id="SVGID_8_" d="M23.95,18.366h-9.864L4.331,47.635h7.278c1.444,0,2.722-0.918,3.181-2.283l4.205-12.371l4.146,12.371
							c0.449,1.365,1.737,2.283,3.181,2.283H33.6L23.95,18.366z"/>
					</defs>
					<clipPath id="SVGID_9_">
						<use xlink:href="#SVGID_8_"  overflow="visible"/>
					</clipPath>
					<path opacity="0.2" clip-path="url(#SVGID_9_)" fill="#FFFFFF" enable-background="new    " d="M23.901,18.532l0.049-0.166
						h-9.864L4.331,47.635H4.39l9.697-29.103H23.901L23.901,18.532z"/>
				</g>
			</g>
			<g>
				<g>
					<defs>
						<path id="SVGID_10_" d="M23.95,18.366h-9.864L4.331,47.635h7.278c1.444,0,2.722-0.918,3.181-2.283l4.205-12.371l4.146,12.371
							c0.449,1.365,1.737,2.283,3.181,2.283H33.6L23.95,18.366z"/>
					</defs>
					<clipPath id="SVGID_11_">
						<use xlink:href="#SVGID_10_"  overflow="visible"/>
					</clipPath>
					<path opacity="0.2" clip-path="url(#SVGID_11_)" fill="#1A237E" enable-background="new    " d="M14.789,45.186
						c-0.449,1.365-1.736,2.283-3.181,2.283H4.389L4.33,47.635h7.278c1.444,0,2.722-0.918,3.181-2.283l9.161-26.985h-0.059
						L14.789,45.186z"/>
				</g>
			</g>
			<g>
				<g>
					<defs>
						<path id="SVGID_12_" d="M23.95,18.366h-9.864L4.331,47.635h7.278c1.444,0,2.722-0.918,3.181-2.283l4.205-12.371l4.146,12.371
							c0.449,1.365,1.737,2.283,3.181,2.283H33.6L23.95,18.366z"/>
					</defs>
					<clipPath id="SVGID_13_">
						<use xlink:href="#SVGID_12_"  overflow="visible"/>
					</clipPath>
					<path opacity="0.2" clip-path="url(#SVGID_13_)" fill="#263238" enable-background="new    " d="M26.321,47.469
						c-1.444,0-2.722-0.918-3.181-2.283l-4.126-12.283l-0.029,0.088l4.146,12.37c0.449,1.365,1.737,2.283,3.181,2.283H33.6
						l-0.058-0.166h-7.22L26.321,47.469L26.321,47.469z"/>
				</g>
			</g>
			<g>
				<g>
					<defs>
						<path id="SVGID_14_" d="M23.95,8.366h-9.864L4.331,37.635h7.278c1.444,0,2.722-0.918,3.181-2.283l4.205-12.371l4.146,12.371
							c0.449,1.365,1.737,2.283,3.181,2.283H33.6L23.95,8.366z"/>
					</defs>
					<clipPath id="SVGID_15_">
						<use xlink:href="#SVGID_14_"  overflow="visible"/>
					</clipPath>
					<path opacity="0.2" clip-path="url(#SVGID_15_)" fill="#FFFFFF" enable-background="new    " d="M23.95,8.532l9.59,29.103
						h0.058L23.95,8.366V8.532z"/>
				</g>
			</g>
			
				<radialGradient id="SVGID_16_" cx="1246.627" cy="-1146.8584" r="64.6289" gradientTransform="matrix(0.4878 0 0 -0.4878 -595.8774 -545.1714)" gradientUnits="userSpaceOnUse">
				<stop  offset="0" style="stop-color:#FFFFFF"/>
				<stop  offset="1" style="stop-color:#FFFFFF;stop-opacity:0"/>
			</radialGradient>
			<path fill="url(#SVGID_16_)" fill-opacity="0.1" d="M23.95,8.366h-9.864L4.331,37.635h7.278c1.444,0,2.722-0.918,3.181-2.283
				l4.205-12.371l4.146,12.371c0.449,1.365,1.737,2.283,3.181,2.283H33.6L23.95,8.366z"/>
		</g>
	</g>
</g>
<g id="Layer_2_1_">
	<g>
		<path fill-rule="evenodd" clip-rule="evenodd" fill="#FEC419" d="M4.946,36.301c-3.917-0.928-2.807-3.981-2.78-6.576
			c1.146-3.227,3.203-4.884,6.833-4.353c1.145,0.165,2.533,0.545,3.587-0.533l-0.111,0.051c1.578-3.18-0.105-6.674,0.95-9.906
			c0.596-0.583,1.191-1.167,1.787-1.749c2.886-0.651,5.797-0.283,8.7-0.228c2.412,2.302,1.421,5.159,1.29,7.874
			c-4.215,5.613-9.939,9.77-14.598,14.966C8.742,36.298,6.789,35.611,4.946,36.301z"/>
		<path fill-rule="evenodd" clip-rule="evenodd" fill="#F58513" d="M24.955,12.301c0.605-3.146-1.245-6.598,1.189-9.515
			c2.951-0.854,5.916-0.618,8.884-0.121c2.524,1.445,1.536,3.79,1.506,5.888c-2.504,2.654-4.628,5.734-8.127,7.283
			c-0.93,0.102-1.71-0.254-2.43-0.795c-0.337-0.273-0.62-0.6-0.86-0.961c-0.094-0.192-0.186-0.388-0.278-0.582
			C24.668,13.08,24.707,12.681,24.955,12.301z"/>
		<path fill-rule="evenodd" clip-rule="evenodd" fill="#F17A06" d="M36.536,23.952c0.053,0.796,0.143,1.595,0.152,2.391
			c0.128,10.556,0.125,10.556-10.591,9.996c-0.545-0.514-0.655-1.157-0.569-1.862c1.203-5.196,5.937-7.665,8.899-11.509
			C35.546,22.402,36.112,23.024,36.536,23.952z"/>
		<path fill-rule="evenodd" clip-rule="evenodd" fill="#F5830E" d="M28.021,15.295c3.31-1.652,4.652-5.789,8.515-6.742
			c0,2.249,0,4.497,0,6.744C35.084,16.928,33.84,18.8,31.6,19.51C29.465,18.906,27.697,17.988,28.021,15.295z"/>
		<path fill-rule="evenodd" clip-rule="evenodd" fill="#F4810A" d="M31.876,19.152c1.166-1.753,2.313-3.529,4.66-3.854
			c0,2.886,0,5.77,0,8.654c-0.589-0.316-1.178-0.632-1.768-0.948c-1.554-0.347-2.464-1.446-3.211-2.741
			C31.452,19.833,31.549,19.459,31.876,19.152z"/>
		<path fill-rule="evenodd" clip-rule="evenodd" fill="#F8AC10" d="M24.163,22.043c0.016-2.844,0.032-5.687,0.048-8.529
			c0.203-0.497,0.478-0.565,0.835-0.14l0.18,0.051c2.063,3.957,0.965,8.235,1.263,12.373c0.012,3.574-0.059,7.14-1.353,10.548
			c-0.321,0-0.644,0.001-0.965,0.001c-0.382-0.4-0.683-0.854-0.908-1.362c-0.706-2.416-0.29-4.904-0.473-7.358
			C22.718,25.635,22.998,23.729,24.163,22.043z"/>
		<path fill-rule="evenodd" clip-rule="evenodd" fill="#FEC720" d="M12.585,24.838c-0.361,0.3-0.779,0.904-1.077,0.851
			c-4.032-0.727-6.759,1.47-9.343,4.035c-0.594-3.424,0.831-5.05,4.317-4.933C8.515,24.859,10.551,24.825,12.585,24.838z"/>
		<path fill-rule="evenodd" clip-rule="evenodd" fill="#FABD14" d="M24.156,35.526c0.004,0.274,0.009,0.547,0.016,0.819
			c-6.408-0.015-12.817-0.03-19.226-0.045c1.754-1.425,3.823-0.504,5.733-0.771c1.714-1.481,3.784-1.427,5.857-1.363
			C19.147,34.216,21.876,33.625,24.156,35.526z"/>
		<path fill-rule="evenodd" clip-rule="evenodd" fill="#E86C0A" d="M25.136,36.345c0.021-3.482,0.042-6.965,0.063-10.448
			c0.603-0.274,1.082-0.132,1.44,0.426c1.484,2.856-0.01,5.519-0.539,8.243c-0.001,0.591-0.003,1.183-0.004,1.773
			C25.776,36.34,25.456,36.343,25.136,36.345z"/>
		<path fill-rule="evenodd" clip-rule="evenodd" fill="#FECC34" d="M13.424,14.983c-0.198,3.313,1.378,6.797-0.949,9.906
			C13.297,21.637,11.914,18.172,13.424,14.983z"/>
		<path fill-rule="evenodd" clip-rule="evenodd" fill="#FECC34" d="M25.046,13.374c-0.282,0.024-0.561,0.07-0.836,0.138
			c-2.999-0.091-5.997-0.185-8.998-0.277c3.136-1.472,6.544-0.121,9.743-0.934C24.985,12.658,25.016,13.016,25.046,13.374z"/>
		<path fill-rule="evenodd" clip-rule="evenodd" fill="#F58A1C" d="M35.029,2.666c-2.961,0.041-5.922,0.081-8.884,0.121
			C29.086,1.246,32.049,1.312,35.029,2.666z"/>
		<path fill-rule="evenodd" clip-rule="evenodd" fill="#FEC415" d="M16.459,35.53c-1.927,0-3.854,0-5.781,0
			c3.245-5.745,7.94-10.041,13.484-13.487c-0.001,1.928-0.002,3.854-0.002,5.781C21.936,30.735,19.002,32.938,16.459,35.53z"/>
		<path fill-rule="evenodd" clip-rule="evenodd" fill="#ED790F" d="M31.876,19.152c0,0.321,0,0.641,0,0.962
			c-0.479,2.159-1.811,3.697-3.695,4.698c-0.938,0.497-2.164,0.991-2.542-0.781c0.233-3.232-0.555-6.512,0.463-9.705
			c0.64,0.324,1.279,0.646,1.918,0.969C28.946,16.942,30.231,18.227,31.876,19.152z"/>
		<path fill-rule="evenodd" clip-rule="evenodd" fill="#E66D12" d="M26.102,14.327c0,3.535,0,7.069-0.001,10.604
			c0.216,0.215,0.286,0.431,0.212,0.644c-0.074,0.215-0.147,0.32-0.22,0.32c-0.298,0-0.597,0.002-0.895,0.002
			c0.009-4.158,0.017-8.316,0.026-12.473C25.518,13.725,25.811,14.026,26.102,14.327z"/>
		<path fill-rule="evenodd" clip-rule="evenodd" fill="#EF790A" d="M26.094,25.895c0.003-0.322,0.005-0.644,0.007-0.964
			c2.728-0.644,3.371-3.786,5.775-4.817c1.3,0.626,2.264,1.59,2.892,2.89c-0.144,2.57-2.338,3.688-3.847,5.228
			c-1.884,1.923-3.675,3.869-4.82,6.334C26.099,31.676,26.097,28.784,26.094,25.895z"/>
		<path fill-rule="evenodd" clip-rule="evenodd" fill="#FEC311" d="M16.459,35.53c1.246-3.89,4.306-5.966,7.701-7.706
			c-0.001,2.566-0.003,5.137-0.005,7.702C21.59,35.528,19.025,35.529,16.459,35.53z"/>
	</g>
	<g>
		<rect x="39.5" y="13.75" fill-rule="evenodd" clip-rule="evenodd" fill="none" width="145" height="38.5"/>
		<path fill="#565656" d="M52.044,25.589c-0.463,0.604-1.104,1.061-1.925,1.371s-1.752,0.466-2.795,0.466
			c-1.072,0-2.021-0.243-2.848-0.729s-1.463-1.182-1.912-2.087s-0.681-1.961-0.699-3.168v-1.002c0-1.934,0.463-3.444,1.389-4.531
			s2.218-1.63,3.876-1.63c1.424,0,2.555,0.353,3.393,1.059s1.342,1.721,1.512,3.045h-2.18c-0.246-1.541-1.14-2.312-2.681-2.312
			c-0.996,0-1.753,0.358-2.272,1.074s-0.787,1.766-0.804,3.151v0.981c0,1.379,0.292,2.45,0.875,3.212
			c0.583,0.763,1.393,1.144,2.43,1.144c1.137,0,1.945-0.256,2.426-0.77v-2.491h-2.637v-1.688h4.852V25.589z"/>
		<path fill="#565656" d="M54.313,22.407c0-0.932,0.185-1.771,0.554-2.518s0.888-1.321,1.556-1.723s1.436-0.602,2.303-0.602
			c1.283,0,2.325,0.413,3.125,1.239s1.232,1.922,1.296,3.287l0.009,0.501c0,0.938-0.18,1.775-0.541,2.514s-0.876,1.31-1.547,1.714
			s-1.446,0.606-2.325,0.606c-1.342,0-2.416-0.447-3.221-1.34s-1.208-2.084-1.208-3.573V22.407z M56.449,22.592
			c0,0.979,0.202,1.745,0.606,2.298s0.967,0.831,1.688,0.831s1.282-0.281,1.683-0.844s0.602-1.386,0.602-2.47
			c0-0.961-0.207-1.723-0.62-2.285s-0.974-0.844-1.683-0.844c-0.697,0-1.251,0.277-1.661,0.831S56.449,21.49,56.449,22.592z"/>
		<path fill="#565656" d="M64.993,22.407c0-0.932,0.185-1.771,0.554-2.518s0.888-1.321,1.556-1.723s1.436-0.602,2.303-0.602
			c1.283,0,2.325,0.413,3.125,1.239s1.232,1.922,1.296,3.287l0.009,0.501c0,0.938-0.18,1.775-0.541,2.514s-0.876,1.31-1.547,1.714
			s-1.446,0.606-2.325,0.606c-1.342,0-2.416-0.447-3.221-1.34s-1.208-2.084-1.208-3.573V22.407z M67.128,22.592
			c0,0.979,0.202,1.745,0.606,2.298s0.967,0.831,1.688,0.831s1.282-0.281,1.683-0.844s0.602-1.386,0.602-2.47
			c0-0.961-0.207-1.723-0.62-2.285s-0.974-0.844-1.683-0.844c-0.697,0-1.251,0.277-1.661,0.831S67.128,21.49,67.128,22.592z"/>
		<path fill="#565656" d="M75.699,22.425c0-1.477,0.347-2.656,1.042-3.538s1.616-1.323,2.764-1.323c1.084,0,1.937,0.378,2.558,1.134
			l0.097-0.958h1.925v9.22c0,1.248-0.388,2.232-1.165,2.953s-1.824,1.081-3.142,1.081c-0.697,0-1.378-0.145-2.043-0.435
			s-1.17-0.669-1.516-1.138l1.011-1.283c0.656,0.779,1.465,1.169,2.426,1.169c0.709,0,1.269-0.192,1.679-0.576
			s0.615-0.948,0.615-1.692v-0.642c-0.615,0.686-1.436,1.028-2.461,1.028c-1.113,0-2.023-0.442-2.729-1.327
			S75.699,23.989,75.699,22.425z M77.826,22.609c0,0.955,0.195,1.707,0.584,2.254s0.93,0.822,1.622,0.822
			c0.861,0,1.5-0.369,1.916-1.107v-4.184c-0.404-0.721-1.037-1.081-1.898-1.081c-0.703,0-1.25,0.278-1.639,0.835
			S77.826,21.525,77.826,22.609z"/>
		<path fill="#565656" d="M88.981,27.25h-2.136v-13.5h2.136V27.25z"/>
		<path fill="#565656" d="M95.926,27.426c-1.354,0-2.451-0.426-3.292-1.279c-0.841-0.853-1.261-1.988-1.261-3.406v-0.264
			c0-0.949,0.183-1.797,0.549-2.544s0.88-1.329,1.542-1.745s1.4-0.624,2.215-0.624c1.295,0,2.295,0.413,3.001,1.239
			s1.06,1.995,1.06,3.507v0.861h-6.214c0.064,0.785,0.326,1.406,0.787,1.863c0.459,0.457,1.038,0.686,1.735,0.686
			c0.979,0,1.775-0.396,2.391-1.187l1.151,1.099c-0.381,0.568-0.89,1.009-1.525,1.323S96.717,27.426,95.926,27.426z M95.671,19.278
			c-0.586,0-1.059,0.205-1.42,0.615c-0.359,0.41-0.59,0.981-0.689,1.714h4.069v-0.158c-0.047-0.715-0.237-1.255-0.571-1.622
			S96.263,19.278,95.671,19.278z"/>
		<path fill="#565656" d="M114.113,24.271h-4.957l-1.037,2.979h-2.312l4.834-12.797h1.995l4.843,12.797h-2.32L114.113,24.271z
			 M109.78,22.478h3.709l-1.854-5.309L109.78,22.478z"/>
		<path fill="#565656" d="M120.715,17.74l0.062,1.099c0.703-0.85,1.626-1.274,2.769-1.274c1.98,0,2.988,1.134,3.023,3.401v6.284
			h-2.136v-6.161c0-0.604-0.131-1.05-0.392-1.34s-0.687-0.435-1.278-0.435c-0.861,0-1.503,0.39-1.925,1.169v6.768h-2.136v-9.51
			H120.715z"/>
		<path fill="#565656" d="M134.857,27.25c-0.094-0.182-0.176-0.478-0.246-0.888c-0.68,0.709-1.512,1.063-2.496,1.063
			c-0.955,0-1.734-0.272-2.338-0.817s-0.905-1.219-0.905-2.021c0-1.014,0.376-1.792,1.129-2.333s1.83-0.813,3.23-0.813h1.31v-0.624
			c0-0.492-0.138-0.886-0.413-1.182s-0.694-0.444-1.257-0.444c-0.486,0-0.885,0.122-1.195,0.365s-0.466,0.552-0.466,0.927h-2.136
			c0-0.521,0.173-1.009,0.519-1.463s0.815-0.81,1.41-1.068s1.259-0.387,1.991-0.387c1.113,0,2.001,0.28,2.663,0.839
			s1.002,1.346,1.02,2.36v4.289c0,0.855,0.12,1.538,0.36,2.048v0.149H134.857z M132.511,25.712c0.422,0,0.818-0.103,1.191-0.308
			c0.371-0.205,0.651-0.48,0.839-0.826v-1.793h-1.151c-0.791,0-1.386,0.138-1.784,0.413s-0.598,0.665-0.598,1.169
			c0,0.41,0.136,0.737,0.409,0.98C131.688,25.59,132.054,25.712,132.511,25.712z"/>
		<path fill="#565656" d="M141.618,27.25h-2.136v-13.5h2.136V27.25z"/>
		<path fill="#565656" d="M147.701,24.191l1.934-6.451h2.276l-3.779,10.951c-0.58,1.6-1.564,2.399-2.953,2.399
			c-0.311,0-0.653-0.053-1.028-0.159v-1.66l0.404,0.026c0.539,0,0.944-0.098,1.218-0.294c0.271-0.196,0.487-0.526,0.646-0.988
			l0.308-0.817l-3.34-9.458h2.303L147.701,24.191z"/>
		<path fill="#565656" d="M156.245,15.429v2.312h1.679v1.582h-1.679v5.309c0,0.363,0.071,0.625,0.216,0.787
			c0.143,0.161,0.399,0.242,0.769,0.242c0.246,0,0.495-0.029,0.747-0.088v1.652c-0.486,0.135-0.955,0.202-1.406,0.202
			c-1.641,0-2.461-0.905-2.461-2.716v-5.388h-1.564V17.74h1.564v-2.312H156.245z"/>
		<path fill="#565656" d="M159.991,15.262c0-0.331,0.104-0.605,0.312-0.824c0.208-0.218,0.506-0.328,0.893-0.328
			s0.686,0.109,0.896,0.328c0.211,0.219,0.316,0.493,0.316,0.824c0,0.325-0.105,0.595-0.316,0.811
			c-0.211,0.216-0.51,0.323-0.896,0.323s-0.685-0.107-0.893-0.323C160.095,15.857,159.991,15.586,159.991,15.262z M162.259,27.25
			h-2.136v-9.51h2.136V27.25z"/>
		<path fill="#565656" d="M168.922,25.721c0.533,0,0.976-0.155,1.327-0.466s0.539-0.694,0.563-1.151h2.013
			c-0.023,0.592-0.208,1.144-0.554,1.657s-0.814,0.918-1.406,1.217s-1.23,0.448-1.916,0.448c-1.33,0-2.385-0.431-3.164-1.292
			s-1.169-2.051-1.169-3.568v-0.22c0-1.447,0.387-2.606,1.16-3.476s1.828-1.305,3.164-1.305c1.131,0,2.052,0.33,2.765,0.989
			c0.711,0.659,1.085,1.525,1.12,2.597h-2.013c-0.023-0.545-0.21-0.993-0.559-1.345s-0.792-0.527-1.331-0.527
			c-0.691,0-1.225,0.25-1.6,0.751s-0.565,1.261-0.571,2.281v0.343c0,1.031,0.186,1.8,0.559,2.307
			C167.681,25.467,168.219,25.721,168.922,25.721z"/>
		<path fill="#565656" d="M180.2,24.666c0-0.381-0.157-0.671-0.47-0.87c-0.314-0.199-0.834-0.375-1.561-0.527
			s-1.333-0.346-1.819-0.58c-1.066-0.516-1.6-1.263-1.6-2.241c0-0.82,0.346-1.506,1.037-2.057s1.57-0.826,2.637-0.826
			c1.137,0,2.055,0.281,2.755,0.844s1.051,1.292,1.051,2.188h-2.136c0-0.41-0.152-0.751-0.457-1.024s-0.709-0.409-1.213-0.409
			c-0.469,0-0.852,0.108-1.147,0.325s-0.443,0.507-0.443,0.87c0,0.328,0.138,0.583,0.413,0.765s0.832,0.365,1.67,0.549
			s1.495,0.404,1.974,0.659c0.477,0.255,0.831,0.561,1.063,0.918s0.348,0.791,0.348,1.301c0,0.855-0.354,1.548-1.063,2.079
			s-1.638,0.795-2.786,0.795c-0.779,0-1.474-0.141-2.083-0.422s-1.084-0.668-1.424-1.16s-0.51-1.022-0.51-1.591h2.074
			c0.029,0.504,0.22,0.892,0.571,1.165s0.817,0.409,1.397,0.409c0.563,0,0.99-0.107,1.283-0.321S180.2,25.012,180.2,24.666z"/>
		<path fill="#565656" d="M87.003,46.789c-0.158,1.354-0.658,2.398-1.499,3.133c-0.841,0.736-1.958,1.104-3.353,1.104
			c-1.512,0-2.723-0.542-3.634-1.626s-1.367-2.534-1.367-4.351v-1.23c0-1.189,0.212-2.235,0.637-3.138s1.027-1.595,1.806-2.079
			c0.779-0.482,1.682-0.725,2.707-0.725c1.359,0,2.449,0.38,3.27,1.139s1.298,1.809,1.433,3.15h-1.696
			c-0.146-1.022-0.464-1.763-0.954-2.222c-0.489-0.458-1.173-0.688-2.052-0.688c-1.078,0-1.923,0.398-2.536,1.196
			s-0.918,1.933-0.918,3.404v1.24c0,1.39,0.29,2.495,0.87,3.316s1.392,1.231,2.435,1.231c0.938,0,1.657-0.212,2.158-0.638
			c0.501-0.424,0.833-1.164,0.998-2.219H87.003z"/>
		<path fill="#565656" d="M93.43,51.025c-1.29,0-2.338-0.423-3.147-1.27s-1.213-1.979-1.213-3.397V46.06
			c0-0.943,0.18-1.785,0.541-2.526s0.864-1.321,1.512-1.74s1.349-0.629,2.104-0.629c1.236,0,2.197,0.407,2.883,1.222
			s1.029,1.98,1.029,3.498v0.677h-6.443c0.023,0.938,0.297,1.695,0.822,2.271c0.524,0.578,1.191,0.866,2,0.866
			c0.574,0,1.061-0.117,1.459-0.352s0.746-0.545,1.045-0.932l0.994,0.773C96.219,50.413,95.023,51.025,93.43,51.025z M93.227,42.5
			c-0.656,0-1.207,0.239-1.652,0.717s-0.721,1.146-0.826,2.008h4.763v-0.123c-0.047-0.826-0.27-1.466-0.668-1.92
			S93.906,42.5,93.227,42.5z"/>
		<path fill="#565656" d="M104.048,42.799c-0.246-0.041-0.513-0.062-0.8-0.062c-1.066,0-1.79,0.454-2.171,1.362v6.75h-1.626v-9.51
			h1.582l0.026,1.099c0.533-0.85,1.289-1.274,2.268-1.274c0.316,0,0.557,0.041,0.721,0.123V42.799z"/>
		<path fill="#565656" d="M108.619,39.037v2.303h1.775v1.257h-1.775v5.905c0,0.381,0.079,0.667,0.237,0.857s0.428,0.286,0.809,0.286
			c0.188,0,0.445-0.035,0.773-0.105v1.311c-0.428,0.116-0.844,0.175-1.248,0.175c-0.727,0-1.274-0.22-1.644-0.659
			s-0.554-1.063-0.554-1.872v-5.897h-1.731V41.34h1.731v-2.303H108.619z"/>
		<path fill="#565656" d="M112.733,38.817c0-0.264,0.08-0.486,0.241-0.668s0.4-0.272,0.717-0.272s0.557,0.091,0.721,0.272
			s0.246,0.404,0.246,0.668s-0.082,0.483-0.246,0.659s-0.404,0.264-0.721,0.264s-0.556-0.088-0.717-0.264
			S112.733,39.081,112.733,38.817z M114.491,50.85h-1.626v-9.51h1.626V50.85z"/>
		<path fill="#565656" d="M118.325,50.85v-8.253h-1.503V41.34h1.503v-0.976c0-1.02,0.272-1.808,0.817-2.364s1.315-0.835,2.312-0.835
			c0.375,0,0.747,0.05,1.116,0.148l-0.088,1.311c-0.275-0.053-0.568-0.079-0.879-0.079c-0.527,0-0.935,0.154-1.222,0.463
			s-0.431,0.751-0.431,1.327v1.005h2.03v1.257h-2.03v8.253H118.325z"/>
		<path fill="#565656" d="M124.215,38.817c0-0.264,0.08-0.486,0.241-0.668s0.4-0.272,0.717-0.272s0.557,0.091,0.721,0.272
			s0.246,0.404,0.246,0.668s-0.082,0.483-0.246,0.659s-0.404,0.264-0.721,0.264s-0.556-0.088-0.717-0.264
			S124.215,39.081,124.215,38.817z M125.973,50.85h-1.626v-9.51h1.626V50.85z"/>
		<path fill="#565656" d="M132.953,51.025c-1.289,0-2.338-0.423-3.146-1.27s-1.213-1.979-1.213-3.397V46.06
			c0-0.943,0.181-1.785,0.54-2.526c0.361-0.741,0.864-1.321,1.512-1.74s1.35-0.629,2.105-0.629c1.236,0,2.197,0.407,2.883,1.222
			s1.028,1.98,1.028,3.498v0.677h-6.442c0.023,0.938,0.297,1.695,0.822,2.271c0.523,0.578,1.19,0.866,1.999,0.866
			c0.574,0,1.061-0.117,1.459-0.352s0.747-0.545,1.046-0.932l0.993,0.773C135.742,50.413,134.547,51.025,132.953,51.025z
			 M132.751,42.5c-0.656,0-1.207,0.239-1.652,0.717s-0.721,1.146-0.826,2.008h4.764v-0.123c-0.047-0.826-0.27-1.466-0.668-1.92
			S133.431,42.5,132.751,42.5z"/>
		<path fill="#565656" d="M138.579,46.016c0-1.459,0.346-2.633,1.037-3.52c0.691-0.889,1.597-1.332,2.716-1.332
			c1.113,0,1.995,0.381,2.646,1.143V37.35h1.626v13.5h-1.494l-0.079-1.02c-0.65,0.797-1.556,1.195-2.716,1.195
			c-1.102,0-2-0.451-2.693-1.354c-0.695-0.902-1.042-2.08-1.042-3.533V46.016z M140.205,46.2c0,1.078,0.223,1.922,0.668,2.531
			s1.061,0.914,1.846,0.914c1.031,0,1.784-0.463,2.259-1.389v-4.368c-0.486-0.896-1.233-1.345-2.241-1.345
			c-0.797,0-1.418,0.308-1.863,0.923S140.205,44.993,140.205,46.2z"/>
	</g>
</g>
</svg>
