<?xml version="1.0" encoding="utf-8"?>
<!-- Generator: Adobe Illustrator 16.0.0, SVG Export Plug-In . SVG Version: 6.00 Build 0)  -->
<!DOCTYPE svg PUBLIC "-//W3C//DTD SVG 1.1//EN" "http://www.w3.org/Graphics/SVG/1.1/DTD/svg11.dtd">
<svg version="1.1" xmlns="http://www.w3.org/2000/svg" xmlns:xlink="http://www.w3.org/1999/xlink" x="0px" y="0px" width="200px"
	 height="66px" viewBox="0 0 200 66" enable-background="new 0 0 200 66" xml:space="preserve">
<g id="Layer_2">
	<g>
		<rect x="39" y="40.75" fill="none" width="150" height="19.25"/>
		<path opacity="0.54" enable-background="new    " d="M48.201,41.492l4.416,11.021l4.416-11.021h2.31V55h-1.781v-5.26l0.167-5.678
			L53.294,55H51.93l-4.425-10.91l0.176,5.65V55H45.9V41.492H48.201z"/>
		<path opacity="0.54" enable-background="new    " d="M62.106,49.889c0-0.984,0.193-1.868,0.58-2.654
			c0.387-0.785,0.925-1.391,1.614-1.818c0.69-0.426,1.477-0.64,2.361-0.64c1.367,0,2.473,0.474,3.316,1.419
			c0.845,0.947,1.267,2.205,1.267,3.776v0.12c0,0.978-0.187,1.854-0.562,2.631c-0.374,0.776-0.909,1.381-1.604,1.813
			c-0.696,0.433-1.496,0.649-2.398,0.649c-1.361,0-2.463-0.473-3.308-1.42c-0.844-0.945-1.266-2.198-1.266-3.757V49.889z
			 M63.832,50.092c0,1.113,0.258,2.008,0.775,2.682c0.516,0.674,1.207,1.012,2.073,1.012c0.872,0,1.564-0.342,2.078-1.025
			c0.513-0.684,0.77-1.641,0.77-2.871c0-1.102-0.261-1.993-0.784-2.677c-0.523-0.684-1.217-1.025-2.083-1.025
			c-0.848,0-1.531,0.337-2.05,1.011C64.091,47.872,63.832,48.837,63.832,50.092z"/>
		<path opacity="0.54" enable-background="new    " d="M82.237,50.092c0,1.534-0.353,2.767-1.058,3.697
			c-0.705,0.932-1.651,1.396-2.839,1.396c-1.268,0-2.249-0.448-2.941-1.346L75.316,55h-1.577V40.75h1.716v5.316
			c0.692-0.86,1.648-1.29,2.867-1.29c1.218,0,2.176,0.461,2.871,1.382c0.696,0.922,1.044,2.184,1.044,3.785V50.092z M80.521,49.897
			c0-1.169-0.226-2.072-0.677-2.709c-0.452-0.637-1.101-0.956-1.948-0.956c-1.132,0-1.945,0.526-2.44,1.578v4.342
			c0.525,1.051,1.345,1.576,2.458,1.576c0.822,0,1.462-0.318,1.92-0.955C80.292,52.137,80.521,51.178,80.521,49.897z"/>
		<path opacity="0.54" enable-background="new    " d="M84.75,42.299c0-0.277,0.085-0.513,0.255-0.705
			c0.17-0.191,0.422-0.287,0.756-0.287s0.587,0.096,0.761,0.287c0.173,0.192,0.26,0.428,0.26,0.705c0,0.279-0.087,0.511-0.26,0.696
			c-0.173,0.186-0.427,0.278-0.761,0.278s-0.586-0.093-0.756-0.278C84.834,42.81,84.75,42.578,84.75,42.299z M86.605,55h-1.716
			V44.962h1.716V55z"/>
		<path opacity="0.54" enable-background="new    " d="M91.558,55h-1.716V40.75h1.716V55z"/>
		<path opacity="0.54" enable-background="new    " d="M98.813,55.186c-1.361,0-2.469-0.446-3.322-1.341
			c-0.854-0.894-1.28-2.089-1.28-3.585v-0.316c0-0.995,0.19-1.884,0.571-2.667c0.379-0.782,0.912-1.395,1.596-1.837
			c0.682-0.441,1.424-0.663,2.221-0.663c1.305,0,2.32,0.43,3.043,1.29c0.725,0.859,1.086,2.09,1.086,3.691v0.715h-6.801
			c0.025,0.989,0.314,1.789,0.867,2.398c0.555,0.609,1.258,0.914,2.111,0.914c0.605,0,1.119-0.124,1.541-0.371
			c0.42-0.248,0.787-0.576,1.104-0.984l1.049,0.816C101.756,54.539,100.494,55.186,98.813,55.186z M98.598,46.187
			c-0.691,0-1.273,0.252-1.744,0.756c-0.469,0.505-0.76,1.211-0.871,2.12h5.027v-0.13c-0.049-0.872-0.283-1.548-0.705-2.027
			C99.885,46.427,99.316,46.187,98.598,46.187z"/>
		<path opacity="0.54" enable-background="new    " d="M120.304,50.714c-0.167,1.429-0.694,2.531-1.582,3.308
			s-2.067,1.164-3.539,1.164c-1.596,0-2.875-0.572-3.836-1.717c-0.962-1.144-1.443-2.675-1.443-4.592v-1.299
			c0-1.256,0.225-2.359,0.673-3.313c0.448-0.952,1.084-1.684,1.907-2.193c0.822-0.511,1.774-0.766,2.857-0.766
			c1.435,0,2.585,0.4,3.451,1.201c0.865,0.802,1.369,1.91,1.512,3.326h-1.791c-0.154-1.079-0.49-1.861-1.006-2.345
			c-0.517-0.484-1.238-0.726-2.166-0.726c-1.139,0-2.031,0.421-2.677,1.263c-0.646,0.842-0.97,2.039-0.97,3.593v1.31
			c0,1.467,0.307,2.634,0.918,3.5c0.613,0.867,1.47,1.3,2.57,1.3c0.989,0,1.749-0.224,2.277-0.672
			c0.529-0.448,0.88-1.229,1.053-2.343H120.304z"/>
		<path opacity="0.54" enable-background="new    " d="M126.975,55.186c-1.361,0-2.469-0.446-3.322-1.341
			c-0.854-0.894-1.279-2.089-1.279-3.585v-0.316c0-0.995,0.189-1.884,0.57-2.667c0.38-0.782,0.912-1.395,1.596-1.837
			c0.683-0.441,1.424-0.663,2.222-0.663c1.305,0,2.319,0.43,3.043,1.29c0.724,0.859,1.085,2.09,1.085,3.691v0.715h-6.8
			c0.024,0.989,0.313,1.789,0.867,2.398s1.257,0.914,2.11,0.914c0.606,0,1.12-0.124,1.541-0.371c0.42-0.248,0.788-0.576,1.104-0.984
			l1.049,0.816C129.918,54.539,128.656,55.186,126.975,55.186z M126.761,46.187c-0.692,0-1.274,0.252-1.744,0.756
			c-0.47,0.505-0.761,1.211-0.872,2.12h5.028v-0.13c-0.05-0.872-0.284-1.548-0.705-2.027
			C128.047,46.427,127.479,46.187,126.761,46.187z"/>
		<path opacity="0.54" enable-background="new    " d="M138.068,46.502c-0.26-0.043-0.541-0.064-0.844-0.064
			c-1.126,0-1.89,0.479-2.291,1.438V55h-1.717V44.962h1.67l0.027,1.159c0.563-0.896,1.361-1.345,2.395-1.345
			c0.334,0,0.587,0.043,0.76,0.13V46.502z"/>
		<path opacity="0.54" enable-background="new    " d="M142.78,42.531v2.431h1.875v1.327h-1.875v6.232
			c0,0.402,0.084,0.704,0.251,0.905s0.451,0.302,0.854,0.302c0.198,0,0.47-0.037,0.816-0.111v1.384
			c-0.451,0.123-0.891,0.185-1.317,0.185c-0.767,0-1.346-0.232-1.734-0.695c-0.391-0.465-0.585-1.123-0.585-1.977v-6.225h-1.827
			v-1.327h1.827v-2.431H142.78z"/>
		<path opacity="0.54" enable-background="new    " d="M147.011,42.299c0-0.277,0.084-0.513,0.255-0.705
			c0.17-0.191,0.422-0.287,0.756-0.287s0.588,0.096,0.761,0.287c0.173,0.192,0.26,0.428,0.26,0.705c0,0.279-0.087,0.511-0.26,0.696
			s-0.427,0.278-0.761,0.278s-0.586-0.093-0.756-0.278C147.095,42.81,147.011,42.578,147.011,42.299z M148.866,55h-1.717V44.962
			h1.717V55z"/>
		<path opacity="0.54" enable-background="new    " d="M152.798,55v-8.711h-1.586v-1.327h1.586v-1.03
			c0-1.076,0.288-1.907,0.863-2.495s1.389-0.882,2.439-0.882c0.396,0,0.789,0.053,1.179,0.157l-0.093,1.384
			c-0.291-0.057-0.6-0.084-0.928-0.084c-0.557,0-0.986,0.163-1.289,0.488c-0.304,0.326-0.455,0.793-0.455,1.401v1.061h2.143v1.327
			h-2.143V55H152.798z"/>
		<path opacity="0.54" enable-background="new    " d="M158.902,42.299c0-0.277,0.084-0.513,0.255-0.705
			c0.17-0.191,0.422-0.287,0.756-0.287s0.588,0.096,0.761,0.287c0.173,0.192,0.26,0.428,0.26,0.705c0,0.279-0.087,0.511-0.26,0.696
			s-0.427,0.278-0.761,0.278s-0.586-0.093-0.756-0.278C158.986,42.81,158.902,42.578,158.902,42.299z M160.758,55h-1.717V44.962
			h1.717V55z"/>
		<path opacity="0.54" enable-background="new    " d="M168.012,55.186c-1.361,0-2.469-0.446-3.322-1.341
			c-0.854-0.894-1.279-2.089-1.279-3.585v-0.316c0-0.995,0.189-1.884,0.57-2.667c0.38-0.782,0.912-1.395,1.596-1.837
			c0.683-0.441,1.424-0.663,2.222-0.663c1.305,0,2.319,0.43,3.043,1.29c0.724,0.859,1.085,2.09,1.085,3.691v0.715h-6.8
			c0.024,0.989,0.313,1.789,0.867,2.398s1.257,0.914,2.11,0.914c0.606,0,1.12-0.124,1.541-0.371c0.42-0.248,0.788-0.576,1.104-0.984
			l1.049,0.816C170.955,54.539,169.693,55.186,168.012,55.186z M167.798,46.187c-0.692,0-1.274,0.252-1.744,0.756
			c-0.47,0.505-0.761,1.211-0.872,2.12h5.028v-0.13c-0.05-0.872-0.284-1.548-0.705-2.027
			C169.084,46.427,168.516,46.187,167.798,46.187z"/>
		<path opacity="0.54" enable-background="new    " d="M173.836,49.897c0-1.54,0.365-2.778,1.096-3.716
			c0.729-0.937,1.685-1.405,2.866-1.405c1.175,0,2.106,0.402,2.792,1.206V40.75h1.717V55h-1.577l-0.083-1.076
			c-0.688,0.841-1.643,1.262-2.867,1.262c-1.163,0-2.11-0.477-2.844-1.429c-0.732-0.952-1.1-2.195-1.1-3.729V49.897z
			 M175.553,50.092c0,1.139,0.235,2.029,0.705,2.672c0.47,0.644,1.119,0.965,1.948,0.965c1.089,0,1.884-0.488,2.384-1.465v-4.611
			c-0.513-0.946-1.302-1.42-2.365-1.42c-0.841,0-1.497,0.325-1.967,0.975S175.553,48.818,175.553,50.092z"/>
	</g>
</g>
<g id="Layer_1">
	<path opacity="0.54" enable-background="new    " d="M43.063,21.234v2.4H48.8c-0.175,1.346-0.624,2.331-1.307,3.023
		c-0.839,0.84-2.146,1.756-4.429,1.756c-3.532,0-6.293-2.848-6.293-6.38c0-3.532,2.761-6.38,6.293-6.38
		c1.902,0,3.297,0.751,4.322,1.717l1.688-1.688c-1.424-1.386-3.336-2.439-6.01-2.439c-4.839,0-8.907,3.941-8.907,8.78
		s4.068,8.78,8.907,8.78c2.615,0,4.585-0.858,6.127-2.459c1.58-1.58,2.078-3.814,2.078-5.609c0-0.556-0.039-1.073-0.126-1.502
		H43.063z M58.439,19.283c-3.132,0-5.688,2.381-5.688,5.668c0,3.259,2.556,5.668,5.688,5.668s5.688-2.399,5.688-5.668
		C64.127,21.664,61.571,19.283,58.439,19.283z M58.439,28.385c-1.717,0-3.2-1.414-3.2-3.434c0-2.039,1.483-3.434,3.2-3.434
		c1.717,0,3.2,1.395,3.2,3.434C61.639,26.971,60.156,28.385,58.439,28.385z M86.322,20.551h-0.087
		c-0.556-0.664-1.629-1.269-2.985-1.269c-2.83,0-5.298,2.468-5.298,5.668c0,3.181,2.468,5.668,5.298,5.668
		c1.356,0,2.429-0.604,2.985-1.287h0.087v0.79c0,2.165-1.161,3.327-3.024,3.327c-1.522,0-2.468-1.094-2.858-2.02l-2.166,0.896
		c0.625,1.503,2.273,3.348,5.024,3.348c2.917,0,5.386-1.718,5.386-5.903V19.576h-2.361V20.551z M83.463,28.385
		c-1.717,0-3.024-1.463-3.024-3.434c0-2,1.307-3.434,3.024-3.434c1.698,0,3.024,1.463,3.024,3.454
		C86.498,26.951,85.161,28.385,83.463,28.385z M71.122,19.283c-3.132,0-5.688,2.381-5.688,5.668c0,3.259,2.556,5.668,5.688,5.668
		s5.688-2.399,5.688-5.668C76.81,21.664,74.254,19.283,71.122,19.283z M71.122,28.385c-1.717,0-3.2-1.414-3.2-3.434
		c0-2.039,1.483-3.434,3.2-3.434c1.717,0,3.2,1.395,3.2,3.434C74.322,26.971,72.839,28.385,71.122,28.385z M90.634,13.478h2.449
		v17.141h-2.449V13.478z M100.645,28.385c-1.27,0-2.166-0.575-2.752-1.717l7.58-3.131l-0.253-0.645
		c-0.469-1.268-1.913-3.61-4.849-3.61c-2.918,0-5.347,2.293-5.347,5.668c0,3.181,2.399,5.668,5.62,5.668
		c2.595,0,4.097-1.59,4.721-2.507l-1.932-1.288C102.79,27.761,101.912,28.385,100.645,28.385L100.645,28.385z M100.469,21.41
		c1.004,0,1.863,0.517,2.146,1.249l-5.123,2.117C97.492,22.395,99.181,21.41,100.469,21.41z M109.492,30.629h2.205l1.513-4.186
		h6.497l1.493,4.186h2.204l-5.844-15.453h-2.244L109.492,30.629L109.492,30.629z M113.873,24.58l2.527-6.965h0.088l2.526,6.965
		H113.873z M128.956,30.971c1.688,0,2.995-0.839,3.601-1.814h0.088v1.463h1.902V15.195h-1.99v4.858l0.088,1.463h-0.088
		c-0.605-0.976-1.922-1.814-3.601-1.814c-2.673,0-5.024,2.4-5.024,5.629C123.932,28.561,126.283,30.971,128.956,30.971z
		 M129.277,29.156c-1.766,0-3.365-1.443-3.365-3.824s1.6-3.825,3.365-3.825c1.767,0,3.367,1.405,3.367,3.825
		C132.645,27.751,131.044,29.156,129.277,29.156z M155.307,15.195h-2.067l-3.093,12.146h-0.088l-3.346-10.078h-1.854l-3.347,10.078
		h-0.088l-3.258-12.146h-2.068l4.293,15.453h2.029l3.326-10.185h0.088l3.327,10.185h2.029L155.307,15.195z M160.508,19.703
		c-3.172,0-5.435,2.419-5.435,5.629c0,3.209,2.263,5.629,5.435,5.629c3.17,0,5.434-2.42,5.434-5.629
		C165.941,22.122,163.678,19.703,160.508,19.703z M160.508,29.156c-1.766,0-3.454-1.405-3.454-3.824c0-2.42,1.688-3.825,3.454-3.825
		s3.453,1.405,3.453,3.825C163.961,27.751,162.273,29.156,160.508,29.156z M169.521,30.629v-5.785c0-1.941,1.386-3.083,2.742-3.083
		c0.43,0,0.78,0.039,1.053,0.146l0.752-1.854c-0.41-0.176-0.839-0.264-1.492-0.264c-1.104,0-2.635,0.781-3.064,1.99h-0.088v-1.727
		h-1.902v10.575H169.521L169.521,30.629z M179.678,30.971c1.688,0,2.996-0.839,3.6-1.814h0.088v1.463h1.902V15.195h-1.99v4.858
		l0.088,1.463h-0.088c-0.604-0.976-1.922-1.814-3.6-1.814c-2.673,0-5.023,2.4-5.023,5.629
		C174.654,28.561,177.005,30.971,179.678,30.971z M180,29.156c-1.766,0-3.365-1.443-3.365-3.824s1.6-3.825,3.365-3.825
		s3.365,1.405,3.365,3.825C183.365,27.751,181.775,29.156,180,29.156z M190.976,30.971c2.478,0,4.166-1.443,4.166-3.326
		c0-1.299-0.819-2.586-2.917-3.084l-2.098-0.497c-0.84-0.195-1.404-0.566-1.404-1.229c0-0.858,0.975-1.356,2.097-1.356
		c1.034,0,2.01,0.41,2.42,1.405l1.727-0.712c-0.644-1.62-2.243-2.458-4.078-2.458c-2.204,0-4.185,1.229-4.185,3.151
		c0,1.854,1.854,2.703,2.828,2.937l2.137,0.517c1.122,0.283,1.444,0.859,1.444,1.406c0,0.887-0.888,1.492-2.117,1.492
		c-1.278,0-2.312-0.645-2.868-1.99l-1.766,0.731C186.985,29.459,188.43,30.971,190.976,30.971L190.976,30.971z"/>
	<g>
		<g>
			<defs>
				<path id="SVGID_1_" d="M23.95,8.366h-9.864L4.331,37.635h7.278c1.444,0,2.722-0.918,3.181-2.283l4.205-12.371l4.146,12.371
					c0.449,1.365,1.737,2.283,3.181,2.283h7.278L23.95,8.366z"/>
			</defs>
			<clipPath id="SVGID_2_">
				<use xlink:href="#SVGID_1_"  overflow="visible"/>
			</clipPath>
			<path clip-path="url(#SVGID_2_)" fill="#0F9D58" d="M33.599,37.635L23.95,8.366h-9.864l9.054,26.986
				c0.449,1.365,1.737,2.283,3.181,2.283H33.599z"/>
		</g>
		<g>
			<defs>
				<path id="SVGID_3_" d="M23.95,8.366h-9.864L4.331,37.635h7.278c1.444,0,2.722-0.918,3.181-2.283l4.205-12.371l4.146,12.371
					c0.449,1.365,1.737,2.283,3.181,2.283h7.278L23.95,8.366z"/>
			</defs>
			<clipPath id="SVGID_4_">
				<use xlink:href="#SVGID_3_"  overflow="visible"/>
			</clipPath>
			<g clip-path="url(#SVGID_4_)">
				
					<image overflow="visible" opacity="0.2" enable-background="new    " width="147" height="205" xlink:href="20982994.png"  transform="matrix(0.1612 0 0 0.1628 3 7.0356)">
				</image>
				<path fill="#4285F4" d="M4.331,37.635l9.756-29.269h9.864l-9.161,26.986c-0.449,1.365-1.736,2.283-3.181,2.283H4.331z"/>
			</g>
		</g>
		<g>
			<defs>
				<path id="SVGID_5_" d="M23.95,8.366h-9.864L4.331,37.635h7.278c1.444,0,2.722-0.918,3.181-2.283l4.205-12.371l4.146,12.371
					c0.449,1.365,1.737,2.283,3.181,2.283h7.278L23.95,8.366z"/>
			</defs>
			<clipPath id="SVGID_6_">
				<use xlink:href="#SVGID_5_"  overflow="visible"/>
			</clipPath>
			
				<radialGradient id="SVGID_7_" cx="655.6045" cy="675.0205" r="40.3042" gradientTransform="matrix(0.4878 0 0 0.4878 -300.1733 -305.6372)" gradientUnits="userSpaceOnUse">
				<stop  offset="0" style="stop-color:#263238;stop-opacity:0.2"/>
				<stop  offset="1" style="stop-color:#263238;stop-opacity:0.02"/>
			</radialGradient>
			<path clip-path="url(#SVGID_6_)" fill="url(#SVGID_7_)" d="M18.994,22.98l0.02,0.068l14.585,14.586L23.95,8.366L18.994,22.98z"/>
		</g>
		<g>
			<defs>
				<path id="SVGID_8_" d="M23.95,18.366h-9.864L4.331,47.635h7.278c1.444,0,2.722-0.918,3.181-2.283l4.205-12.371l4.146,12.371
					c0.449,1.365,1.737,2.283,3.181,2.283h7.278L23.95,18.366z"/>
			</defs>
			<clipPath id="SVGID_9_">
				<use xlink:href="#SVGID_8_"  overflow="visible"/>
			</clipPath>
			<path opacity="0.2" clip-path="url(#SVGID_9_)" fill="#FFFFFF" enable-background="new    " d="M23.901,18.532l0.049-0.166
				h-9.864L4.331,47.635h0.059l9.697-29.103H23.901z"/>
		</g>
		<g>
			<defs>
				<path id="SVGID_10_" d="M23.95,18.366h-9.864L4.331,47.635h7.278c1.444,0,2.722-0.918,3.181-2.283l4.205-12.371l4.146,12.371
					c0.449,1.365,1.737,2.283,3.181,2.283h7.278L23.95,18.366z"/>
			</defs>
			<clipPath id="SVGID_11_">
				<use xlink:href="#SVGID_10_"  overflow="visible"/>
			</clipPath>
			<path opacity="0.2" clip-path="url(#SVGID_11_)" fill="#1A237E" enable-background="new    " d="M14.789,45.186
				c-0.449,1.365-1.736,2.283-3.181,2.283H4.389l-0.059,0.166h7.278c1.444,0,2.722-0.918,3.181-2.283l9.161-26.986h-0.059
				L14.789,45.186z"/>
		</g>
		<g>
			<defs>
				<path id="SVGID_12_" d="M23.95,18.366h-9.864L4.331,47.635h7.278c1.444,0,2.722-0.918,3.181-2.283l4.205-12.371l4.146,12.371
					c0.449,1.365,1.737,2.283,3.181,2.283h7.278L23.95,18.366z"/>
			</defs>
			<clipPath id="SVGID_13_">
				<use xlink:href="#SVGID_12_"  overflow="visible"/>
			</clipPath>
			<path opacity="0.2" clip-path="url(#SVGID_13_)" fill="#263238" enable-background="new    " d="M26.321,47.469
				c-1.444,0-2.722-0.918-3.181-2.283l-4.126-12.283l-0.029,0.088l4.146,12.371c0.449,1.365,1.737,2.283,3.181,2.283h7.288
				l-0.058-0.166h-7.22V47.469z"/>
		</g>
		<g>
			<defs>
				<path id="SVGID_14_" d="M23.95,8.366h-9.864L4.331,37.635h7.278c1.444,0,2.722-0.918,3.181-2.283l4.205-12.371l4.146,12.371
					c0.449,1.365,1.737,2.283,3.181,2.283h7.278L23.95,8.366z"/>
			</defs>
			<clipPath id="SVGID_15_">
				<use xlink:href="#SVGID_14_"  overflow="visible"/>
			</clipPath>
			<path opacity="0.2" clip-path="url(#SVGID_15_)" fill="#FFFFFF" enable-background="new    " d="M23.95,8.532l9.59,29.103h0.058
				L23.95,8.366V8.532z"/>
		</g>
		
			<radialGradient id="SVGID_16_" cx="640.4336" cy="655.8154" r="64.6304" gradientTransform="matrix(0.4878 0 0 0.4878 -300.1733 -305.6372)" gradientUnits="userSpaceOnUse">
			<stop  offset="0" style="stop-color:#FFFFFF"/>
			<stop  offset="1" style="stop-color:#FFFFFF;stop-opacity:0"/>
		</radialGradient>
		<path fill="url(#SVGID_16_)" fill-opacity="0.1" d="M23.95,8.366h-9.864L4.331,37.635h7.278c1.444,0,2.722-0.918,3.181-2.283
			l4.205-12.371l4.146,12.371c0.449,1.365,1.737,2.283,3.181,2.283h7.278L23.95,8.366z"/>
	</g>
</g>
</svg>
