<?xml version="1.0" encoding="utf-8"?>
<!-- Generator: Adobe Illustrator 16.0.0, SVG Export Plug-In . SVG Version: 6.00 Build 0)  -->
<!DOCTYPE svg PUBLIC "-//W3C//DTD SVG 1.1//EN" "http://www.w3.org/Graphics/SVG/1.1/DTD/svg11.dtd">
<svg version="1.1" xmlns="http://www.w3.org/2000/svg" xmlns:xlink="http://www.w3.org/1999/xlink" x="0px" y="0px" width="200px"
	 height="66px" viewBox="0 0 200 66" enable-background="new 0 0 200 66" xml:space="preserve">
<g id="Layer_2">
	<rect x="42" y="40.75" fill="none" width="116" height="19.25"/>
	
		<text transform="matrix(1 0 0 1 66.0522 54.25)" opacity="0.54" enable-background="new    " font-family="'Roboto-Regular'" font-size="18">Certified</text>
</g>
<g id="Layer_1">
	<path opacity="0.54" enable-background="new    " d="M43.063,21.234v2.4H48.8c-0.175,1.346-0.624,2.331-1.307,3.023
		c-0.839,0.84-2.146,1.756-4.429,1.756c-3.532,0-6.293-2.848-6.293-6.38c0-3.532,2.761-6.38,6.293-6.38
		c1.902,0,3.297,0.751,4.322,1.717l1.688-1.688c-1.424-1.386-3.336-2.439-6.01-2.439c-4.839,0-8.907,3.941-8.907,8.78
		s4.068,8.78,8.907,8.78c2.615,0,4.585-0.858,6.127-2.459c1.58-1.58,2.078-3.814,2.078-5.609c0-0.556-0.039-1.073-0.126-1.502
		H43.063z M58.439,19.283c-3.132,0-5.688,2.381-5.688,5.668c0,3.259,2.556,5.668,5.688,5.668s5.688-2.399,5.688-5.668
		C64.127,21.664,61.571,19.283,58.439,19.283z M58.439,28.385c-1.717,0-3.2-1.414-3.2-3.434c0-2.039,1.483-3.434,3.2-3.434
		c1.717,0,3.2,1.395,3.2,3.434C61.639,26.971,60.156,28.385,58.439,28.385z M86.322,20.551h-0.087
		c-0.556-0.664-1.629-1.269-2.985-1.269c-2.83,0-5.298,2.468-5.298,5.668c0,3.181,2.468,5.668,5.298,5.668
		c1.356,0,2.429-0.604,2.985-1.287h0.087v0.79c0,2.165-1.161,3.327-3.024,3.327c-1.522,0-2.468-1.094-2.858-2.02l-2.166,0.896
		c0.625,1.503,2.273,3.348,5.024,3.348c2.917,0,5.386-1.718,5.386-5.903V19.576h-2.361V20.551z M83.463,28.385
		c-1.717,0-3.024-1.463-3.024-3.434c0-2,1.307-3.434,3.024-3.434c1.698,0,3.024,1.463,3.024,3.454
		C86.498,26.951,85.161,28.385,83.463,28.385z M71.122,19.283c-3.132,0-5.688,2.381-5.688,5.668c0,3.259,2.556,5.668,5.688,5.668
		s5.688-2.399,5.688-5.668C76.81,21.664,74.254,19.283,71.122,19.283z M71.122,28.385c-1.717,0-3.2-1.414-3.2-3.434
		c0-2.039,1.483-3.434,3.2-3.434c1.717,0,3.2,1.395,3.2,3.434C74.322,26.971,72.839,28.385,71.122,28.385z M90.634,13.478h2.449
		v17.141h-2.449V13.478z M100.645,28.385c-1.27,0-2.166-0.575-2.752-1.717l7.58-3.131l-0.253-0.645
		c-0.469-1.268-1.913-3.61-4.849-3.61c-2.918,0-5.347,2.293-5.347,5.668c0,3.181,2.399,5.668,5.62,5.668
		c2.595,0,4.097-1.59,4.721-2.507l-1.932-1.288C102.79,27.761,101.912,28.385,100.645,28.385L100.645,28.385z M100.469,21.41
		c1.004,0,1.863,0.517,2.146,1.249l-5.123,2.117C97.492,22.395,99.181,21.41,100.469,21.41z M109.492,30.629h2.205l1.513-4.186
		h6.497l1.493,4.186h2.204l-5.844-15.453h-2.244L109.492,30.629L109.492,30.629z M113.873,24.58l2.527-6.965h0.088l2.526,6.965
		H113.873z M128.956,30.971c1.688,0,2.995-0.839,3.601-1.814h0.088v1.463h1.902V15.195h-1.99v4.858l0.088,1.463h-0.088
		c-0.605-0.976-1.922-1.814-3.601-1.814c-2.673,0-5.024,2.4-5.024,5.629C123.932,28.561,126.283,30.971,128.956,30.971z
		 M129.277,29.156c-1.766,0-3.365-1.443-3.365-3.824s1.6-3.825,3.365-3.825c1.767,0,3.367,1.405,3.367,3.825
		C132.645,27.751,131.044,29.156,129.277,29.156z M155.307,15.195h-2.067l-3.093,12.146h-0.088l-3.346-10.078h-1.854l-3.347,10.078
		h-0.088l-3.258-12.146h-2.068l4.293,15.453h2.029l3.326-10.185h0.088l3.327,10.185h2.029L155.307,15.195z M160.508,19.703
		c-3.172,0-5.435,2.419-5.435,5.629c0,3.209,2.263,5.629,5.435,5.629c3.17,0,5.434-2.42,5.434-5.629
		C165.941,22.122,163.678,19.703,160.508,19.703z M160.508,29.156c-1.766,0-3.454-1.405-3.454-3.824c0-2.42,1.688-3.825,3.454-3.825
		s3.453,1.405,3.453,3.825C163.961,27.751,162.273,29.156,160.508,29.156z M169.521,30.629v-5.785c0-1.941,1.386-3.083,2.742-3.083
		c0.43,0,0.78,0.039,1.053,0.146l0.752-1.854c-0.41-0.176-0.839-0.264-1.492-0.264c-1.104,0-2.635,0.781-3.064,1.99h-0.088v-1.727
		h-1.902v10.575H169.521L169.521,30.629z M179.678,30.971c1.688,0,2.996-0.839,3.6-1.814h0.088v1.463h1.902V15.195h-1.99v4.858
		l0.088,1.463h-0.088c-0.604-0.976-1.922-1.814-3.6-1.814c-2.673,0-5.023,2.4-5.023,5.629
		C174.654,28.561,177.005,30.971,179.678,30.971z M180,29.156c-1.766,0-3.365-1.443-3.365-3.824s1.6-3.825,3.365-3.825
		s3.365,1.405,3.365,3.825C183.365,27.751,181.775,29.156,180,29.156z M190.976,30.971c2.478,0,4.166-1.443,4.166-3.326
		c0-1.299-0.819-2.586-2.917-3.084l-2.098-0.497c-0.84-0.195-1.404-0.566-1.404-1.229c0-0.858,0.975-1.356,2.097-1.356
		c1.034,0,2.01,0.41,2.42,1.405l1.727-0.712c-0.644-1.62-2.243-2.458-4.078-2.458c-2.204,0-4.185,1.229-4.185,3.151
		c0,1.854,1.854,2.703,2.828,2.937l2.137,0.517c1.122,0.283,1.444,0.859,1.444,1.406c0,0.887-0.888,1.492-2.117,1.492
		c-1.278,0-2.312-0.645-2.868-1.99l-1.766,0.731C186.985,29.459,188.43,30.971,190.976,30.971L190.976,30.971z"/>
	<g>
		<g>
			<defs>
				<path id="SVGID_1_" d="M23.95,8.366h-9.864L4.331,37.635h7.278c1.444,0,2.722-0.918,3.181-2.283l4.205-12.371l4.146,12.371
					c0.449,1.365,1.737,2.283,3.181,2.283h7.278L23.95,8.366z"/>
			</defs>
			<clipPath id="SVGID_2_">
				<use xlink:href="#SVGID_1_"  overflow="visible"/>
			</clipPath>
			<path clip-path="url(#SVGID_2_)" fill="#0F9D58" d="M33.599,37.635L23.95,8.366h-9.864l9.054,26.986
				c0.449,1.365,1.737,2.283,3.181,2.283H33.599z"/>
		</g>
		<g>
			<defs>
				<path id="SVGID_3_" d="M23.95,8.366h-9.864L4.331,37.635h7.278c1.444,0,2.722-0.918,3.181-2.283l4.205-12.371l4.146,12.371
					c0.449,1.365,1.737,2.283,3.181,2.283h7.278L23.95,8.366z"/>
			</defs>
			<clipPath id="SVGID_4_">
				<use xlink:href="#SVGID_3_"  overflow="visible"/>
			</clipPath>
			<g clip-path="url(#SVGID_4_)">
				
					<image overflow="visible" opacity="0.2" enable-background="new    " width="147" height="205" xlink:href="20982994.png"  transform="matrix(0.1612 0 0 0.1628 3 7.0356)">
				</image>
				<path fill="#4285F4" d="M4.331,37.635l9.756-29.269h9.864l-9.161,26.986c-0.449,1.365-1.736,2.283-3.181,2.283H4.331z"/>
			</g>
		</g>
		<g>
			<defs>
				<path id="SVGID_5_" d="M23.95,8.366h-9.864L4.331,37.635h7.278c1.444,0,2.722-0.918,3.181-2.283l4.205-12.371l4.146,12.371
					c0.449,1.365,1.737,2.283,3.181,2.283h7.278L23.95,8.366z"/>
			</defs>
			<clipPath id="SVGID_6_">
				<use xlink:href="#SVGID_5_"  overflow="visible"/>
			</clipPath>
			
				<radialGradient id="SVGID_7_" cx="655.5156" cy="674.9326" r="40.3043" gradientTransform="matrix(0.4878 0 0 0.4878 -300.1338 -305.5977)" gradientUnits="userSpaceOnUse">
				<stop  offset="0" style="stop-color:#263238;stop-opacity:0.2"/>
				<stop  offset="1" style="stop-color:#263238;stop-opacity:0.02"/>
			</radialGradient>
			<path clip-path="url(#SVGID_6_)" fill="url(#SVGID_7_)" d="M18.994,22.98l0.02,0.068l14.585,14.586L23.95,8.366L18.994,22.98z"/>
		</g>
		<g>
			<defs>
				<path id="SVGID_8_" d="M23.95,18.366h-9.864L4.331,47.635h7.278c1.444,0,2.722-0.918,3.181-2.283l4.205-12.371l4.146,12.371
					c0.449,1.365,1.737,2.283,3.181,2.283h7.278L23.95,18.366z"/>
			</defs>
			<clipPath id="SVGID_9_">
				<use xlink:href="#SVGID_8_"  overflow="visible"/>
			</clipPath>
			<path opacity="0.2" clip-path="url(#SVGID_9_)" fill="#FFFFFF" enable-background="new    " d="M23.901,18.532l0.049-0.166
				h-9.864L4.331,47.635h0.059l9.697-29.103H23.901z"/>
		</g>
		<g>
			<defs>
				<path id="SVGID_10_" d="M23.95,18.366h-9.864L4.331,47.635h7.278c1.444,0,2.722-0.918,3.181-2.283l4.205-12.371l4.146,12.371
					c0.449,1.365,1.737,2.283,3.181,2.283h7.278L23.95,18.366z"/>
			</defs>
			<clipPath id="SVGID_11_">
				<use xlink:href="#SVGID_10_"  overflow="visible"/>
			</clipPath>
			<path opacity="0.2" clip-path="url(#SVGID_11_)" fill="#1A237E" enable-background="new    " d="M14.789,45.186
				c-0.449,1.365-1.736,2.283-3.181,2.283H4.389l-0.059,0.166h7.278c1.444,0,2.722-0.918,3.181-2.283l9.161-26.986h-0.059
				L14.789,45.186z"/>
		</g>
		<g>
			<defs>
				<path id="SVGID_12_" d="M23.95,18.366h-9.864L4.331,47.635h7.278c1.444,0,2.722-0.918,3.181-2.283l4.205-12.371l4.146,12.371
					c0.449,1.365,1.737,2.283,3.181,2.283h7.278L23.95,18.366z"/>
			</defs>
			<clipPath id="SVGID_13_">
				<use xlink:href="#SVGID_12_"  overflow="visible"/>
			</clipPath>
			<path opacity="0.2" clip-path="url(#SVGID_13_)" fill="#263238" enable-background="new    " d="M26.321,47.469
				c-1.444,0-2.722-0.918-3.181-2.283l-4.126-12.283l-0.029,0.088l4.146,12.371c0.449,1.365,1.737,2.283,3.181,2.283h7.288
				l-0.058-0.166h-7.22V47.469z"/>
		</g>
		<g>
			<defs>
				<path id="SVGID_14_" d="M23.95,8.366h-9.864L4.331,37.635h7.278c1.444,0,2.722-0.918,3.181-2.283l4.205-12.371l4.146,12.371
					c0.449,1.365,1.737,2.283,3.181,2.283h7.278L23.95,8.366z"/>
			</defs>
			<clipPath id="SVGID_15_">
				<use xlink:href="#SVGID_14_"  overflow="visible"/>
			</clipPath>
			<path opacity="0.2" clip-path="url(#SVGID_15_)" fill="#FFFFFF" enable-background="new    " d="M23.95,8.532l9.59,29.103h0.058
				L23.95,8.366V8.532z"/>
		</g>
		
			<radialGradient id="SVGID_16_" cx="640.3467" cy="655.7285" r="64.6303" gradientTransform="matrix(0.4878 0 0 0.4878 -300.1338 -305.5977)" gradientUnits="userSpaceOnUse">
			<stop  offset="0" style="stop-color:#FFFFFF"/>
			<stop  offset="1" style="stop-color:#FFFFFF;stop-opacity:0"/>
		</radialGradient>
		<path fill="url(#SVGID_16_)" fill-opacity="0.1" d="M23.95,8.366h-9.864L4.331,37.635h7.278c1.444,0,2.722-0.918,3.181-2.283
			l4.205-12.371l4.146,12.371c0.449,1.365,1.737,2.283,3.181,2.283h7.278L23.95,8.366z"/>
	</g>
</g>
</svg>
