<?xml version="1.0" encoding="utf-8"?>
<!-- Generator: Adobe Illustrator 16.0.0, SVG Export Plug-In . SVG Version: 6.00 Build 0)  -->
<!DOCTYPE svg PUBLIC "-//W3C//DTD SVG 1.1//EN" "http://www.w3.org/Graphics/SVG/1.1/DTD/svg11.dtd">
<svg version="1.1" xmlns="http://www.w3.org/2000/svg" xmlns:xlink="http://www.w3.org/1999/xlink" x="0px" y="0px" width="200px"
	 height="66px" viewBox="0 0 200 66" enable-background="new 0 0 200 66" xml:space="preserve">
<g id="Layer_2">
	<g>
		<rect x="39.5" y="13.75" fill-rule="evenodd" clip-rule="evenodd" fill="none" width="145" height="38.5"/>
		<path fill="#565656" d="M52.674,25.589c-0.463,0.604-1.104,1.061-1.925,1.371s-1.752,0.466-2.795,0.466
			c-1.072,0-2.021-0.243-2.848-0.729s-1.463-1.182-1.912-2.087s-0.681-1.961-0.699-3.168v-1.002c0-1.934,0.463-3.444,1.389-4.531
			s2.218-1.63,3.876-1.63c1.424,0,2.555,0.353,3.393,1.059s1.342,1.721,1.512,3.045h-2.18c-0.246-1.541-1.14-2.312-2.681-2.312
			c-0.996,0-1.753,0.358-2.272,1.074s-0.787,1.766-0.804,3.151v0.981c0,1.379,0.292,2.45,0.875,3.212
			c0.583,0.763,1.393,1.144,2.43,1.144c1.137,0,1.945-0.256,2.426-0.77v-2.491h-2.637v-1.688h4.852V25.589z"/>
		<path fill="#565656" d="M54.943,22.407c0-0.932,0.185-1.771,0.554-2.518s0.888-1.321,1.556-1.723s1.436-0.602,2.303-0.602
			c1.283,0,2.325,0.413,3.125,1.239s1.232,1.922,1.296,3.287l0.009,0.501c0,0.938-0.18,1.775-0.541,2.514s-0.876,1.31-1.547,1.714
			s-1.446,0.606-2.325,0.606c-1.342,0-2.416-0.447-3.221-1.34s-1.208-2.084-1.208-3.573V22.407z M57.079,22.592
			c0,0.979,0.202,1.745,0.606,2.298s0.967,0.831,1.688,0.831s1.282-0.281,1.683-0.844s0.602-1.386,0.602-2.47
			c0-0.961-0.207-1.723-0.62-2.285s-0.974-0.844-1.683-0.844c-0.697,0-1.251,0.277-1.661,0.831S57.079,21.49,57.079,22.592z"/>
		<path fill="#565656" d="M65.623,22.407c0-0.932,0.185-1.771,0.554-2.518s0.888-1.321,1.556-1.723s1.436-0.602,2.303-0.602
			c1.283,0,2.325,0.413,3.125,1.239s1.232,1.922,1.296,3.287l0.009,0.501c0,0.938-0.18,1.775-0.541,2.514s-0.876,1.31-1.547,1.714
			s-1.446,0.606-2.325,0.606c-1.342,0-2.416-0.447-3.221-1.34s-1.208-2.084-1.208-3.573V22.407z M67.758,22.592
			c0,0.979,0.202,1.745,0.606,2.298s0.967,0.831,1.688,0.831s1.282-0.281,1.683-0.844s0.602-1.386,0.602-2.47
			c0-0.961-0.207-1.723-0.62-2.285s-0.974-0.844-1.683-0.844c-0.697,0-1.251,0.277-1.661,0.831S67.758,21.49,67.758,22.592z"/>
		<path fill="#565656" d="M76.329,22.425c0-1.477,0.347-2.656,1.042-3.538s1.616-1.323,2.764-1.323c1.084,0,1.937,0.378,2.558,1.134
			l0.097-0.958h1.925v9.22c0,1.248-0.388,2.232-1.165,2.953s-1.824,1.081-3.142,1.081c-0.697,0-1.378-0.145-2.043-0.435
			s-1.17-0.669-1.516-1.138l1.011-1.283c0.656,0.779,1.465,1.169,2.426,1.169c0.709,0,1.269-0.192,1.679-0.576
			s0.615-0.948,0.615-1.692v-0.642c-0.615,0.686-1.436,1.028-2.461,1.028c-1.113,0-2.023-0.442-2.729-1.327
			S76.329,23.989,76.329,22.425z M78.456,22.609c0,0.955,0.195,1.707,0.584,2.254s0.93,0.822,1.622,0.822
			c0.861,0,1.5-0.369,1.916-1.107v-4.184c-0.404-0.721-1.037-1.081-1.898-1.081c-0.703,0-1.25,0.278-1.639,0.835
			S78.456,21.525,78.456,22.609z"/>
		<path fill="#565656" d="M89.611,27.25h-2.136v-13.5h2.136V27.25z"/>
		<path fill="#565656" d="M96.556,27.426c-1.354,0-2.451-0.426-3.292-1.279c-0.84-0.853-1.261-1.988-1.261-3.406v-0.264
			c0-0.949,0.183-1.797,0.549-2.544s0.88-1.329,1.542-1.745s1.4-0.624,2.215-0.624c1.295,0,2.295,0.413,3.001,1.239
			s1.06,1.995,1.06,3.507v0.861h-6.214c0.064,0.785,0.326,1.406,0.787,1.863c0.459,0.457,1.038,0.686,1.735,0.686
			c0.979,0,1.775-0.396,2.391-1.187l1.151,1.099c-0.381,0.568-0.89,1.009-1.525,1.323S97.347,27.426,96.556,27.426z M96.301,19.278
			c-0.586,0-1.059,0.205-1.42,0.615c-0.359,0.41-0.59,0.981-0.689,1.714h4.069v-0.158c-0.047-0.715-0.237-1.255-0.571-1.622
			S96.893,19.278,96.301,19.278z"/>
		<path fill="#565656" d="M114.743,24.271h-4.957l-1.037,2.979h-2.312l4.834-12.797h1.995l4.843,12.797h-2.32L114.743,24.271z
			 M110.41,22.478h3.709l-1.854-5.309L110.41,22.478z"/>
		<path fill="#565656" d="M119.385,22.425c0-1.465,0.34-2.641,1.02-3.529s1.591-1.332,2.733-1.332c1.008,0,1.822,0.352,2.443,1.055
			V13.75h2.136v13.5h-1.934l-0.105-0.984c-0.639,0.773-1.491,1.16-2.558,1.16c-1.113,0-2.015-0.448-2.703-1.345
			S119.385,23.966,119.385,22.425z M121.521,22.609c0,0.967,0.186,1.721,0.559,2.263c0.371,0.542,0.9,0.813,1.586,0.813
			c0.873,0,1.512-0.39,1.916-1.169v-4.061c-0.393-0.762-1.025-1.143-1.898-1.143c-0.691,0-1.225,0.274-1.6,0.822
			S121.521,21.508,121.521,22.609z"/>
		<path fill="#565656" d="M140.62,24.086l1.969-9.633h2.206l-2.953,12.797h-2.127l-2.435-9.343l-2.487,9.343h-2.136l-2.953-12.797
			h2.206l1.986,9.615l2.443-9.615h1.863L140.62,24.086z"/>
		<path fill="#565656" d="M145.975,22.407c0-0.932,0.185-1.771,0.554-2.518s0.888-1.321,1.556-1.723s1.436-0.602,2.303-0.602
			c1.283,0,2.325,0.413,3.124,1.239c0.801,0.826,1.232,1.922,1.297,3.287l0.009,0.501c0,0.938-0.181,1.775-0.54,2.514
			c-0.361,0.738-0.877,1.31-1.547,1.714c-0.672,0.404-1.446,0.606-2.325,0.606c-1.342,0-2.416-0.447-3.222-1.34
			s-1.208-2.084-1.208-3.573V22.407z M148.11,22.592c0,0.979,0.202,1.745,0.606,2.298s0.967,0.831,1.688,0.831
			s1.281-0.281,1.683-0.844s0.603-1.386,0.603-2.47c0-0.961-0.206-1.723-0.62-2.285c-0.412-0.563-0.974-0.844-1.683-0.844
			c-0.697,0-1.251,0.277-1.661,0.831S148.11,21.49,148.11,22.592z"/>
		<path fill="#565656" d="M162.033,19.691c-0.281-0.047-0.571-0.07-0.87-0.07c-0.979,0-1.638,0.375-1.978,1.125v6.504h-2.136v-9.51
			h2.039l0.053,1.063c0.516-0.826,1.23-1.239,2.145-1.239c0.305,0,0.557,0.041,0.756,0.123L162.033,19.691z"/>
		<path fill="#565656" d="M163.247,22.425c0-1.465,0.34-2.641,1.02-3.529s1.591-1.332,2.733-1.332c1.008,0,1.822,0.352,2.443,1.055
			V13.75h2.136v13.5h-1.934l-0.105-0.984c-0.639,0.773-1.491,1.16-2.558,1.16c-1.113,0-2.015-0.448-2.703-1.345
			S163.247,23.966,163.247,22.425z M165.383,22.609c0,0.967,0.186,1.721,0.559,2.263c0.371,0.542,0.9,0.813,1.586,0.813
			c0.873,0,1.512-0.39,1.916-1.169v-4.061c-0.393-0.762-1.025-1.143-1.898-1.143c-0.691,0-1.225,0.274-1.6,0.822
			S165.383,21.508,165.383,22.609z"/>
		<path fill="#565656" d="M179.57,24.666c0-0.381-0.157-0.671-0.47-0.87c-0.314-0.199-0.834-0.375-1.561-0.527
			s-1.333-0.346-1.819-0.58c-1.066-0.516-1.6-1.263-1.6-2.241c0-0.82,0.346-1.506,1.037-2.057s1.57-0.826,2.637-0.826
			c1.137,0,2.055,0.281,2.755,0.844s1.051,1.292,1.051,2.188h-2.136c0-0.41-0.152-0.751-0.457-1.024s-0.709-0.409-1.213-0.409
			c-0.469,0-0.852,0.108-1.147,0.325s-0.443,0.507-0.443,0.87c0,0.328,0.138,0.583,0.413,0.765s0.832,0.365,1.67,0.549
			s1.495,0.404,1.974,0.659c0.477,0.255,0.831,0.561,1.063,0.918s0.348,0.791,0.348,1.301c0,0.855-0.354,1.548-1.063,2.079
			s-1.638,0.795-2.786,0.795c-0.779,0-1.474-0.141-2.083-0.422s-1.084-0.668-1.424-1.16s-0.51-1.022-0.51-1.591h2.074
			c0.029,0.504,0.22,0.892,0.571,1.165s0.817,0.409,1.397,0.409c0.563,0,0.99-0.107,1.283-0.321S179.57,25.012,179.57,24.666z"/>
		<path fill="#565656" d="M55.416,48.608l3.656-10.556h1.846L56.171,50.85h-1.494L49.94,38.053h1.837L55.416,48.608z"/>
		<path fill="#565656" d="M62.817,38.817c0-0.264,0.081-0.486,0.242-0.668s0.4-0.272,0.716-0.272s0.557,0.091,0.721,0.272
			s0.246,0.404,0.246,0.668s-0.082,0.483-0.246,0.659s-0.404,0.264-0.721,0.264s-0.555-0.088-0.716-0.264
			S62.817,39.081,62.817,38.817z M64.575,50.85h-1.626v-9.51h1.626V50.85z"/>
		<path fill="#565656" d="M67.213,46.016c0-1.459,0.346-2.633,1.037-3.52c0.691-0.889,1.597-1.332,2.716-1.332
			c1.113,0,1.995,0.381,2.646,1.143V37.35h1.626v13.5h-1.494l-0.079-1.02c-0.65,0.797-1.556,1.195-2.716,1.195
			c-1.102,0-2-0.451-2.694-1.354s-1.042-2.08-1.042-3.533V46.016z M68.839,46.2c0,1.078,0.223,1.922,0.668,2.531
			s1.061,0.914,1.846,0.914c1.031,0,1.784-0.463,2.259-1.389v-4.368c-0.486-0.896-1.233-1.345-2.241-1.345
			c-0.797,0-1.418,0.308-1.863,0.923S68.839,44.993,68.839,46.2z"/>
		<path fill="#565656" d="M82.138,51.025c-1.289,0-2.338-0.423-3.146-1.27s-1.213-1.979-1.213-3.397V46.06
			c0-0.943,0.18-1.785,0.541-2.526s0.864-1.321,1.512-1.74s1.349-0.629,2.105-0.629c1.236,0,2.197,0.407,2.883,1.222
			s1.028,1.98,1.028,3.498v0.677h-6.442c0.023,0.938,0.297,1.695,0.822,2.271c0.524,0.578,1.191,0.866,2,0.866
			c0.574,0,1.061-0.117,1.459-0.352s0.747-0.545,1.046-0.932l0.993,0.773C84.927,50.413,83.732,51.025,82.138,51.025z M81.936,42.5
			c-0.656,0-1.207,0.239-1.652,0.717s-0.721,1.146-0.826,2.008h4.764v-0.123c-0.047-0.826-0.27-1.466-0.668-1.92
			S82.616,42.5,81.936,42.5z"/>
		<path fill="#565656" d="M87.729,46.007c0-0.932,0.183-1.77,0.549-2.514s0.876-1.318,1.529-1.723s1.399-0.606,2.237-0.606
			c1.295,0,2.342,0.448,3.143,1.345c0.799,0.896,1.199,2.089,1.199,3.577V46.2c0,0.926-0.178,1.757-0.531,2.491
			C95.5,49.428,94.994,50,94.334,50.41c-0.658,0.41-1.416,0.615-2.271,0.615c-1.289,0-2.333-0.448-3.133-1.345s-1.2-2.083-1.2-3.56
			V46.007z M89.364,46.2c0,1.055,0.245,1.901,0.734,2.54s1.144,0.958,1.964,0.958c0.826,0,1.482-0.323,1.969-0.972
			c0.486-0.646,0.729-1.554,0.729-2.72c0-1.043-0.248-1.888-0.743-2.536c-0.494-0.646-1.152-0.971-1.973-0.971
			c-0.803,0-1.45,0.319-1.942,0.958S89.364,45.011,89.364,46.2z"/>
		<path fill="#565656" d="M113.413,46.789c-0.158,1.354-0.658,2.398-1.498,3.133c-0.842,0.736-1.959,1.104-3.354,1.104
			c-1.512,0-2.724-0.542-3.635-1.626s-1.366-2.534-1.366-4.351v-1.23c0-1.189,0.212-2.235,0.638-3.138
			c0.424-0.902,1.026-1.595,1.806-2.079c0.779-0.482,1.682-0.725,2.707-0.725c1.359,0,2.449,0.38,3.27,1.139s1.298,1.809,1.433,3.15
			h-1.696c-0.146-1.022-0.465-1.763-0.954-2.222c-0.489-0.458-1.173-0.688-2.052-0.688c-1.078,0-1.924,0.398-2.536,1.196
			s-0.918,1.933-0.918,3.404v1.24c0,1.39,0.29,2.495,0.87,3.316s1.392,1.231,2.435,1.231c0.938,0,1.656-0.212,2.158-0.638
			c0.5-0.424,0.833-1.164,0.997-2.219H113.413z"/>
		<path fill="#565656" d="M119.84,51.025c-1.289,0-2.338-0.423-3.146-1.27s-1.213-1.979-1.213-3.397V46.06
			c0-0.943,0.181-1.785,0.54-2.526c0.361-0.741,0.864-1.321,1.512-1.74s1.35-0.629,2.105-0.629c1.236,0,2.197,0.407,2.883,1.222
			s1.028,1.98,1.028,3.498v0.677h-6.442c0.023,0.938,0.297,1.695,0.822,2.271c0.523,0.578,1.19,0.866,1.999,0.866
			c0.574,0,1.061-0.117,1.459-0.352s0.747-0.545,1.046-0.932l0.993,0.773C122.629,50.413,121.434,51.025,119.84,51.025z
			 M119.638,42.5c-0.656,0-1.207,0.239-1.652,0.717s-0.721,1.146-0.826,2.008h4.764v-0.123c-0.047-0.826-0.27-1.466-0.668-1.92
			S120.317,42.5,119.638,42.5z"/>
		<path fill="#565656" d="M130.458,42.799c-0.246-0.041-0.513-0.062-0.8-0.062c-1.066,0-1.79,0.454-2.171,1.362v6.75h-1.626v-9.51
			h1.582l0.026,1.099c0.533-0.85,1.289-1.274,2.268-1.274c0.316,0,0.557,0.041,0.721,0.123V42.799z"/>
		<path fill="#565656" d="M135.029,39.037v2.303h1.775v1.257h-1.775v5.905c0,0.381,0.079,0.667,0.237,0.857s0.428,0.286,0.809,0.286
			c0.188,0,0.445-0.035,0.773-0.105v1.311c-0.428,0.116-0.844,0.175-1.248,0.175c-0.727,0-1.274-0.22-1.644-0.659
			s-0.554-1.063-0.554-1.872v-5.897h-1.731V41.34h1.731v-2.303H135.029z"/>
		<path fill="#565656" d="M139.145,38.817c0-0.264,0.08-0.486,0.241-0.668s0.4-0.272,0.717-0.272s0.557,0.091,0.721,0.272
			s0.246,0.404,0.246,0.668s-0.082,0.483-0.246,0.659s-0.404,0.264-0.721,0.264s-0.556-0.088-0.717-0.264
			S139.145,39.081,139.145,38.817z M140.902,50.85h-1.626v-9.51h1.626V50.85z"/>
		<path fill="#565656" d="M144.735,50.85v-8.253h-1.503V41.34h1.503v-0.976c0-1.02,0.272-1.808,0.817-2.364s1.315-0.835,2.312-0.835
			c0.375,0,0.747,0.05,1.116,0.148l-0.088,1.311c-0.275-0.053-0.568-0.079-0.879-0.079c-0.527,0-0.935,0.154-1.222,0.463
			s-0.431,0.751-0.431,1.327v1.005h2.03v1.257h-2.03v8.253H144.735z"/>
		<path fill="#565656" d="M150.625,38.817c0-0.264,0.08-0.486,0.241-0.668s0.4-0.272,0.717-0.272s0.557,0.091,0.721,0.272
			s0.246,0.404,0.246,0.668s-0.082,0.483-0.246,0.659s-0.404,0.264-0.721,0.264s-0.556-0.088-0.717-0.264
			S150.625,39.081,150.625,38.817z M152.383,50.85h-1.626v-9.51h1.626V50.85z"/>
		<path fill="#565656" d="M159.363,51.025c-1.289,0-2.338-0.423-3.146-1.27s-1.213-1.979-1.213-3.397V46.06
			c0-0.943,0.181-1.785,0.54-2.526c0.361-0.741,0.864-1.321,1.512-1.74s1.35-0.629,2.105-0.629c1.236,0,2.197,0.407,2.883,1.222
			s1.028,1.98,1.028,3.498v0.677h-6.442c0.023,0.938,0.297,1.695,0.822,2.271c0.523,0.578,1.19,0.866,1.999,0.866
			c0.574,0,1.061-0.117,1.459-0.352s0.747-0.545,1.046-0.932l0.993,0.773C162.152,50.413,160.957,51.025,159.363,51.025z
			 M159.161,42.5c-0.656,0-1.207,0.239-1.652,0.717s-0.721,1.146-0.826,2.008h4.764v-0.123c-0.047-0.826-0.27-1.466-0.668-1.92
			S159.841,42.5,159.161,42.5z"/>
		<path fill="#565656" d="M164.989,46.016c0-1.459,0.346-2.633,1.037-3.52c0.691-0.889,1.597-1.332,2.716-1.332
			c1.113,0,1.995,0.381,2.646,1.143V37.35h1.626v13.5h-1.494l-0.079-1.02c-0.65,0.797-1.556,1.195-2.716,1.195
			c-1.102,0-2-0.451-2.693-1.354c-0.695-0.902-1.042-2.08-1.042-3.533V46.016z M166.615,46.2c0,1.078,0.223,1.922,0.668,2.531
			s1.061,0.914,1.846,0.914c1.031,0,1.784-0.463,2.259-1.389v-4.368c-0.486-0.896-1.233-1.345-2.241-1.345
			c-0.797,0-1.418,0.308-1.863,0.923S166.615,44.993,166.615,46.2z"/>
	</g>
</g>
<g id="Layer_3">
	<g>
		<path fill-rule="evenodd" clip-rule="evenodd" fill="#E82A0A" d="M35.494,5.967c1.654,0.625,2.111,2.009,2.273,3.582
			c0.658,1.212-0.25,2.677,0.625,3.854c0,2.468,0,4.936,0,7.404c-0.875,1.179,0.031,2.645-0.622,3.86
			c-0.551,3.891-3.092,4.8-6.533,4.36c-1.647,0.545-3.338,0.191-5.007,0.257c-1.766-1.253-0.525-2.464,0.261-3.363
			c4.456-5.095,7.014-10.917,7.324-17.722C33.858,7.237,33.778,5.832,35.494,5.967z"/>
		<path fill-rule="evenodd" clip-rule="evenodd" fill="#E93011" d="M25.822,28.852c1.805,0.058,3.609,0.117,5.414,0.175
			c-7.975,0.986-15.948,0.699-23.922-0.014c-1.507-0.135-2.493-0.849-2.986-2.266c-0.202-1.794,1.278-2.102,2.37-2.174
			c3.95-0.263,7.216-2.403,10.798-3.644c0.878-0.616,1.774-1.252,2.776-1.612c2.738-0.982,4.239-2.327,1.843-5.129
			c0.648-3.077-0.428-6.577,2.253-9.147c1.83-0.279,3.667-0.097,5.498-0.115c2.435,2.548,1.396,5.522,0.779,8.285
			c-1.3,5.816-4.595,10.476-9.417,14.501C22.918,28.232,24.616,27.741,25.822,28.852z"/>
		<path fill-rule="evenodd" clip-rule="evenodd" fill="#E92C0C" d="M25.822,28.852c-1.956,0-3.913,0-7.097,0
			c7.65-6.52,12.468-13.701,11.543-23.417c0.206-0.483,0.524-0.576,0.957-0.278c1.494-0.106,3.023-0.394,4.269,0.811
			c-1.713,1.877-0.459,4.222-0.991,6.32c-1.371,5.413-3.426,10.407-7.514,14.37C26.363,27.265,25.811,27.907,25.822,28.852z"/>
		<path fill-rule="evenodd" clip-rule="evenodd" fill="#EA381A" d="M9.507,5.191c0.163-0.183,0.328-0.185,0.496-0.006
			c1.647-0.549,3.34-0.191,5.01-0.26c1.083,0.301,1.557,1.041,1.666,2.137c0.652,6.509-7.408,12.862-13.7,10.785
			c0.001-0.75,0.002-1.5,0.003-2.249c0.028-2.564,0.665-4.602,3.467-5.616C8.479,9.248,8.591,6.869,9.507,5.191z"/>
		<path fill-rule="evenodd" clip-rule="evenodd" fill="#E93517" d="M2.979,17.847c7.983-0.642,11.693-3.673,12.9-10.428
			c0.147-0.826-0.139-1.411-0.421-2.071c1.069-0.845,2.292-0.319,3.449-0.388c2.2,2.583-0.051,5.092-0.121,7.639
			c-0.75,1.288-0.943,2.792-1.579,4.132c-3.744,3.674-7.672,6.874-13.479,5.172c-0.939-0.943-0.138-2.278-0.74-3.298
			C2.984,18.353,2.981,18.1,2.979,17.847z"/>
		<path fill-rule="evenodd" clip-rule="evenodd" fill="#E93315" d="M3.661,21.555c5.382,0.792,9.282-2.178,13.166-5.189
			c1.706,1.382,0.642,3.607,1.586,5.221c-3.936,1.031-7.175,4.157-11.612,3.775c-0.911-0.079-1.867,0.526-2.473,1.385
			c-0.902-0.717-0.856-1.718-0.814-2.717C3.217,23.184,2.99,22.342,3.661,21.555z"/>
		<path fill-rule="evenodd" clip-rule="evenodd" fill="#EA3B1D" d="M9.507,5.191c0.927,2.688-0.454,4.703-2.565,5.628
			c-2.322,1.017-3.477,2.49-3.959,4.779c0.103-1.814,0.096-3.644,0.329-5.441C3.777,6.576,5.688,4.657,9.507,5.191z"/>
		<path fill-rule="evenodd" clip-rule="evenodd" fill="#EA3B1D" d="M19.146,5.325c-1.229,0.007-2.459,0.014-3.688,0.021
			c-1.817-0.053-3.634-0.107-5.454-0.162c7.071-0.898,14.145-0.875,21.22-0.028c-0.318,0.092-0.637,0.184-0.956,0.276
			c-1.977-0.033-3.953-0.067-5.93-0.102c-1.049,0.836-2.258,0.959-3.533,0.796C20.167,6.037,19.642,5.71,19.146,5.325z"/>
		<path fill-rule="evenodd" clip-rule="evenodd" fill="#EA381A" d="M3.661,21.555c-0.049,0.824-0.098,1.647-0.147,2.474
			c-0.83-1.744-0.602-3.591-0.526-5.423C3.913,19.428,3.475,20.563,3.661,21.555z"/>
		<path fill-rule="evenodd" clip-rule="evenodd" fill="#F7F1F0" d="M18.413,21.586c-3.08-0.964-0.57-3.629-1.586-5.221
			c0.792-1.146-1.19-3.443,1.564-3.775c0.281-0.203,0.589-0.261,0.925-0.178c1.291,0.69,2.643,1.303,3.462,2.619
			c0.969,0.634,1.936,1.268,3.223,2.11C23.344,18.697,20.878,20.142,18.413,21.586z"/>
		<path fill-rule="evenodd" clip-rule="evenodd" fill="#E93315" d="M22.778,15.031c-1.249-0.683-2.825-0.766-3.749-2.044
			c-0.222-2.711,0.029-5.323,1.595-7.662c1.238,0.001,2.476,0.002,3.713,0.004C23.818,8.564,23.299,11.798,22.778,15.031z"/>
		<path fill-rule="evenodd" clip-rule="evenodd" fill="#E93516" d="M20.625,5.326c-0.531,2.554-1.063,5.107-1.595,7.662
			c-0.213-0.132-0.425-0.265-0.639-0.397c-0.899-2.542,1.126-4.78,0.755-7.266C19.639,5.325,20.132,5.325,20.625,5.326z"/>
	</g>
</g>
</svg>
