<?xml version="1.0" encoding="utf-8"?>
<!-- Generator: Adobe Illustrator 16.0.0, SVG Export Plug-In . SVG Version: 6.00 Build 0)  -->
<!DOCTYPE svg PUBLIC "-//W3C//DTD SVG 1.1//EN" "http://www.w3.org/Graphics/SVG/1.1/DTD/svg11.dtd">
<svg version="1.1" xmlns="http://www.w3.org/2000/svg" xmlns:xlink="http://www.w3.org/1999/xlink" x="0px" y="0px" width="200px"
	 height="66px" viewBox="0 0 200 66" enable-background="new 0 0 200 66" xml:space="preserve">
<g id="Layer_2">
	<g>
		<rect x="39" y="34.75" fill="none" width="150" height="19.25"/>
		<path opacity="0.54" enable-background="new    " d="M48.201,35.492l4.416,11.021l4.416-11.021h2.31V49h-1.781v-5.26l0.167-5.678
			L53.294,49H51.93l-4.425-10.91l0.176,5.65V49H45.9V35.492H48.201z"/>
		<path opacity="0.54" enable-background="new    " d="M62.106,43.889c0-0.984,0.193-1.868,0.58-2.654
			c0.387-0.785,0.925-1.391,1.614-1.818c0.69-0.426,1.477-0.64,2.361-0.64c1.367,0,2.473,0.474,3.316,1.419
			c0.845,0.947,1.267,2.205,1.267,3.776v0.12c0,0.978-0.187,1.854-0.562,2.631c-0.374,0.776-0.909,1.381-1.604,1.813
			c-0.696,0.433-1.496,0.649-2.398,0.649c-1.361,0-2.463-0.473-3.308-1.42c-0.844-0.945-1.266-2.198-1.266-3.757V43.889z
			 M63.832,44.092c0,1.113,0.258,2.008,0.775,2.682c0.516,0.674,1.207,1.012,2.073,1.012c0.872,0,1.564-0.342,2.078-1.025
			c0.513-0.684,0.77-1.641,0.77-2.871c0-1.102-0.261-1.993-0.784-2.677c-0.523-0.684-1.217-1.025-2.083-1.025
			c-0.848,0-1.531,0.337-2.05,1.011C64.091,41.872,63.832,42.837,63.832,44.092z"/>
		<path opacity="0.54" enable-background="new    " d="M82.237,44.092c0,1.534-0.353,2.767-1.058,3.697
			c-0.705,0.932-1.651,1.396-2.839,1.396c-1.268,0-2.249-0.448-2.941-1.346L75.316,49h-1.577V34.75h1.716v5.316
			c0.692-0.86,1.648-1.29,2.867-1.29c1.218,0,2.176,0.461,2.871,1.382c0.696,0.922,1.044,2.184,1.044,3.785V44.092z M80.521,43.897
			c0-1.169-0.226-2.072-0.677-2.709c-0.452-0.637-1.101-0.956-1.948-0.956c-1.132,0-1.945,0.526-2.44,1.578v4.342
			c0.525,1.051,1.345,1.576,2.458,1.576c0.822,0,1.462-0.318,1.92-0.955C80.292,46.137,80.521,45.178,80.521,43.897z"/>
		<path opacity="0.54" enable-background="new    " d="M84.75,36.299c0-0.277,0.085-0.513,0.255-0.705
			c0.17-0.191,0.422-0.287,0.756-0.287s0.587,0.096,0.761,0.287c0.173,0.192,0.26,0.428,0.26,0.705c0,0.279-0.087,0.511-0.26,0.696
			c-0.173,0.186-0.427,0.278-0.761,0.278s-0.586-0.093-0.756-0.278C84.834,36.81,84.75,36.578,84.75,36.299z M86.605,49h-1.716
			V38.962h1.716V49z"/>
		<path opacity="0.54" enable-background="new    " d="M91.558,49h-1.716V34.75h1.716V49z"/>
		<path opacity="0.54" enable-background="new    " d="M98.813,49.186c-1.361,0-2.469-0.446-3.322-1.341
			c-0.854-0.894-1.28-2.089-1.28-3.585v-0.316c0-0.995,0.19-1.884,0.571-2.667c0.379-0.782,0.912-1.395,1.596-1.837
			c0.682-0.441,1.424-0.663,2.221-0.663c1.305,0,2.32,0.43,3.043,1.29c0.725,0.859,1.086,2.09,1.086,3.691v0.715h-6.801
			c0.025,0.989,0.314,1.789,0.867,2.398c0.555,0.609,1.258,0.914,2.111,0.914c0.605,0,1.119-0.124,1.541-0.371
			c0.42-0.248,0.787-0.576,1.104-0.984l1.049,0.816C101.756,48.539,100.494,49.186,98.813,49.186z M98.598,40.187
			c-0.691,0-1.273,0.252-1.744,0.756c-0.469,0.505-0.76,1.211-0.871,2.12h5.027v-0.13c-0.049-0.872-0.283-1.548-0.705-2.027
			C99.885,40.427,99.316,40.187,98.598,40.187z"/>
		<path opacity="0.54" enable-background="new    " d="M120.304,44.714c-0.167,1.429-0.694,2.531-1.582,3.308
			s-2.067,1.164-3.539,1.164c-1.596,0-2.875-0.572-3.836-1.717c-0.962-1.144-1.443-2.675-1.443-4.592v-1.299
			c0-1.256,0.225-2.359,0.673-3.313c0.448-0.952,1.084-1.684,1.907-2.193c0.822-0.511,1.774-0.766,2.857-0.766
			c1.435,0,2.585,0.4,3.451,1.201c0.865,0.802,1.369,1.91,1.512,3.326h-1.791c-0.154-1.079-0.49-1.861-1.006-2.345
			c-0.517-0.484-1.238-0.726-2.166-0.726c-1.139,0-2.031,0.421-2.677,1.263c-0.646,0.842-0.97,2.039-0.97,3.593v1.31
			c0,1.467,0.307,2.634,0.918,3.5c0.613,0.867,1.47,1.3,2.57,1.3c0.989,0,1.749-0.224,2.277-0.672
			c0.529-0.448,0.88-1.229,1.053-2.343H120.304z"/>
		<path opacity="0.54" enable-background="new    " d="M126.975,49.186c-1.361,0-2.469-0.446-3.322-1.341
			c-0.854-0.894-1.279-2.089-1.279-3.585v-0.316c0-0.995,0.189-1.884,0.57-2.667c0.38-0.782,0.912-1.395,1.596-1.837
			c0.683-0.441,1.424-0.663,2.222-0.663c1.305,0,2.319,0.43,3.043,1.29c0.724,0.859,1.085,2.09,1.085,3.691v0.715h-6.8
			c0.024,0.989,0.313,1.789,0.867,2.398s1.257,0.914,2.11,0.914c0.606,0,1.12-0.124,1.541-0.371c0.42-0.248,0.788-0.576,1.104-0.984
			l1.049,0.816C129.918,48.539,128.656,49.186,126.975,49.186z M126.761,40.187c-0.692,0-1.274,0.252-1.744,0.756
			c-0.47,0.505-0.761,1.211-0.872,2.12h5.028v-0.13c-0.05-0.872-0.284-1.548-0.705-2.027
			C128.047,40.427,127.479,40.187,126.761,40.187z"/>
		<path opacity="0.54" enable-background="new    " d="M138.068,40.502c-0.26-0.043-0.541-0.064-0.844-0.064
			c-1.126,0-1.89,0.479-2.291,1.438V49h-1.717V38.962h1.67l0.027,1.159c0.563-0.896,1.361-1.345,2.395-1.345
			c0.334,0,0.587,0.043,0.76,0.13V40.502z"/>
		<path opacity="0.54" enable-background="new    " d="M142.78,36.531v2.431h1.875v1.327h-1.875v6.232
			c0,0.402,0.084,0.704,0.251,0.905s0.451,0.302,0.854,0.302c0.198,0,0.47-0.037,0.816-0.111v1.384
			c-0.451,0.123-0.891,0.185-1.317,0.185c-0.767,0-1.346-0.232-1.734-0.695c-0.391-0.465-0.585-1.123-0.585-1.977v-6.225h-1.827
			v-1.327h1.827v-2.431H142.78z"/>
		<path opacity="0.54" enable-background="new    " d="M147.011,36.299c0-0.277,0.084-0.513,0.255-0.705
			c0.17-0.191,0.422-0.287,0.756-0.287s0.588,0.096,0.761,0.287c0.173,0.192,0.26,0.428,0.26,0.705c0,0.279-0.087,0.511-0.26,0.696
			s-0.427,0.278-0.761,0.278s-0.586-0.093-0.756-0.278C147.095,36.81,147.011,36.578,147.011,36.299z M148.866,49h-1.717V38.962
			h1.717V49z"/>
		<path opacity="0.54" enable-background="new    " d="M152.798,49v-8.711h-1.586v-1.327h1.586v-1.03
			c0-1.076,0.288-1.907,0.863-2.495s1.389-0.882,2.439-0.882c0.396,0,0.789,0.053,1.179,0.157l-0.093,1.384
			c-0.291-0.057-0.6-0.084-0.928-0.084c-0.557,0-0.986,0.163-1.289,0.488c-0.304,0.326-0.455,0.793-0.455,1.401v1.061h2.143v1.327
			h-2.143V49H152.798z"/>
		<path opacity="0.54" enable-background="new    " d="M158.902,36.299c0-0.277,0.084-0.513,0.255-0.705
			c0.17-0.191,0.422-0.287,0.756-0.287s0.588,0.096,0.761,0.287c0.173,0.192,0.26,0.428,0.26,0.705c0,0.279-0.087,0.511-0.26,0.696
			s-0.427,0.278-0.761,0.278s-0.586-0.093-0.756-0.278C158.986,36.81,158.902,36.578,158.902,36.299z M160.758,49h-1.717V38.962
			h1.717V49z"/>
		<path opacity="0.54" enable-background="new    " d="M168.012,49.186c-1.361,0-2.469-0.446-3.322-1.341
			c-0.854-0.894-1.279-2.089-1.279-3.585v-0.316c0-0.995,0.189-1.884,0.57-2.667c0.38-0.782,0.912-1.395,1.596-1.837
			c0.683-0.441,1.424-0.663,2.222-0.663c1.305,0,2.319,0.43,3.043,1.29c0.724,0.859,1.085,2.09,1.085,3.691v0.715h-6.8
			c0.024,0.989,0.313,1.789,0.867,2.398s1.257,0.914,2.11,0.914c0.606,0,1.12-0.124,1.541-0.371c0.42-0.248,0.788-0.576,1.104-0.984
			l1.049,0.816C170.955,48.539,169.693,49.186,168.012,49.186z M167.798,40.187c-0.692,0-1.274,0.252-1.744,0.756
			c-0.47,0.505-0.761,1.211-0.872,2.12h5.028v-0.13c-0.05-0.872-0.284-1.548-0.705-2.027
			C169.084,40.427,168.516,40.187,167.798,40.187z"/>
		<path opacity="0.54" enable-background="new    " d="M173.836,43.897c0-1.54,0.365-2.778,1.096-3.716
			c0.729-0.937,1.685-1.405,2.866-1.405c1.175,0,2.106,0.402,2.792,1.206V34.75h1.717V49h-1.577l-0.083-1.076
			c-0.688,0.841-1.643,1.262-2.867,1.262c-1.163,0-2.11-0.477-2.844-1.429c-0.732-0.952-1.1-2.195-1.1-3.729V43.897z
			 M175.553,44.092c0,1.139,0.235,2.029,0.705,2.672c0.47,0.644,1.119,0.965,1.948,0.965c1.089,0,1.884-0.488,2.384-1.465v-4.611
			c-0.513-0.946-1.302-1.42-2.365-1.42c-0.841,0-1.497,0.325-1.967,0.975S175.553,42.818,175.553,44.092z"/>
	</g>
	<g>
		<rect x="28.25" y="12.375" fill="none" width="169.5" height="19.25"/>
		<path opacity="0.54" enable-background="new    " d="M39.153,20.204h5.517v7.525c-0.902,0.295-1.769,0.503-2.599,0.626
			c-0.831,0.123-1.728,0.185-2.692,0.185c-2.27,0-4.02-0.672-5.25-2.015c-1.23-1.344-1.846-3.238-1.846-5.687
			c0-2.412,0.694-4.301,2.082-5.665c1.388-1.363,3.298-2.046,5.732-2.046c1.565,0,3.049,0.302,4.45,0.902l-0.861,2.041
			c-1.217-0.561-2.434-0.841-3.65-0.841c-1.6,0-2.864,0.503-3.794,1.507c-0.93,1.006-1.395,2.379-1.395,4.123
			c0,1.832,0.418,3.225,1.256,4.178c0.837,0.954,2.042,1.431,3.614,1.431c0.793,0,1.641-0.099,2.543-0.298v-3.865h-3.107V20.204z"/>
		<path opacity="0.54" enable-background="new    " d="M57.757,22.644c0,1.854-0.475,3.299-1.425,4.338s-2.273,1.559-3.968,1.559
			c-1.06,0-1.996-0.239-2.81-0.718s-1.439-1.165-1.876-2.062c-0.438-0.895-0.656-1.934-0.656-3.117c0-1.838,0.472-3.273,1.415-4.307
			c0.943-1.031,2.273-1.548,3.989-1.548c1.641,0,2.939,0.528,3.896,1.584C57.278,19.43,57.757,20.854,57.757,22.644z M49.502,22.644
			c0,2.619,0.967,3.928,2.902,3.928c1.914,0,2.871-1.309,2.871-3.928c0-2.59-0.964-3.886-2.892-3.886
			c-1.012,0-1.745,0.335-2.2,1.005S49.502,21.394,49.502,22.644z"/>
		<path opacity="0.54" enable-background="new    " d="M70.27,22.644c0,1.854-0.475,3.299-1.425,4.338s-2.273,1.559-3.968,1.559
			c-1.06,0-1.996-0.239-2.81-0.718s-1.439-1.165-1.876-2.062c-0.438-0.895-0.656-1.934-0.656-3.117c0-1.838,0.472-3.273,1.415-4.307
			c0.943-1.031,2.273-1.548,3.989-1.548c1.641,0,2.939,0.528,3.896,1.584C69.791,19.43,70.27,20.854,70.27,22.644z M62.015,22.644
			c0,2.619,0.967,3.928,2.902,3.928c1.914,0,2.871-1.309,2.871-3.928c0-2.59-0.964-3.886-2.892-3.886
			c-1.012,0-1.745,0.335-2.2,1.005S62.015,21.394,62.015,22.644z"/>
		<path opacity="0.54" enable-background="new    " d="M82.3,16.994v1.323l-1.938,0.358c0.178,0.239,0.325,0.533,0.441,0.882
			s0.174,0.718,0.174,1.107c0,1.169-0.403,2.089-1.21,2.758c-0.807,0.671-1.917,1.006-3.333,1.006c-0.362,0-0.69-0.027-0.984-0.082
			c-0.52,0.321-0.779,0.697-0.779,1.127c0,0.261,0.121,0.455,0.364,0.585c0.242,0.13,0.688,0.194,1.338,0.194h1.979
			c1.251,0,2.201,0.268,2.851,0.801s0.974,1.302,0.974,2.307c0,1.285-0.53,2.276-1.589,2.974s-2.591,1.046-4.594,1.046
			c-1.545,0-2.724-0.273-3.538-0.82s-1.22-1.326-1.22-2.338c0-0.697,0.22-1.283,0.662-1.759c0.44-0.475,1.058-0.805,1.851-0.989
			c-0.321-0.137-0.586-0.357-0.795-0.661c-0.208-0.305-0.313-0.624-0.313-0.959c0-0.424,0.12-0.782,0.359-1.077
			c0.239-0.293,0.595-0.584,1.066-0.871c-0.588-0.253-1.065-0.665-1.43-1.235c-0.366-0.571-0.549-1.239-0.549-2.005
			c0-1.23,0.388-2.184,1.164-2.861c0.775-0.676,1.881-1.015,3.317-1.015c0.321,0,0.658,0.022,1.01,0.066
			c0.352,0.045,0.617,0.091,0.794,0.139H82.3z M73.39,30.099c0,0.52,0.234,0.919,0.703,1.199c0.468,0.28,1.126,0.421,1.974,0.421
			c1.313,0,2.29-0.188,2.933-0.563c0.643-0.377,0.964-0.876,0.964-1.498c0-0.492-0.176-0.842-0.528-1.051
			c-0.352-0.208-1.006-0.313-1.963-0.313h-1.825c-0.69,0-1.239,0.162-1.646,0.487C73.593,29.105,73.39,29.545,73.39,30.099z
			 M74.425,20.665c0,0.711,0.183,1.258,0.549,1.641c0.365,0.383,0.89,0.574,1.574,0.574c1.395,0,2.092-0.745,2.092-2.235
			c0-0.738-0.173-1.308-0.518-1.707c-0.345-0.4-0.87-0.601-1.574-0.601c-0.697,0-1.225,0.199-1.584,0.596
			C74.605,19.329,74.425,19.906,74.425,20.665z"/>
		<path opacity="0.54" enable-background="new    " d="M86.497,28.335h-2.41V12.38h2.41V28.335z"/>
		<path opacity="0.54" enable-background="new    " d="M94.58,28.54c-1.764,0-3.143-0.515-4.137-1.543
			c-0.995-1.029-1.492-2.445-1.492-4.25c0-1.853,0.461-3.309,1.384-4.369c0.923-1.059,2.191-1.589,3.804-1.589
			c1.497,0,2.68,0.455,3.548,1.364s1.302,2.16,1.302,3.752v1.303h-7.557c0.034,1.101,0.332,1.946,0.892,2.538
			c0.561,0.591,1.35,0.887,2.369,0.887c0.67,0,1.293-0.063,1.871-0.189c0.577-0.127,1.198-0.337,1.861-0.631v1.958
			c-0.588,0.281-1.183,0.479-1.784,0.596C96.039,28.481,95.352,28.54,94.58,28.54z M94.139,18.614c-0.766,0-1.379,0.243-1.841,0.729
			c-0.461,0.485-0.736,1.192-0.825,2.122h5.147c-0.014-0.937-0.239-1.646-0.677-2.128C95.506,18.855,94.904,18.614,94.139,18.614z"
			/>
		<path opacity="0.54" enable-background="new    " d="M116.108,28.335l-1.497-4.163h-5.731l-1.467,4.163h-2.584l5.609-15.053h2.666
			l5.608,15.053H116.108z M113.966,22.06l-1.405-4.081c-0.103-0.273-0.244-0.704-0.426-1.292c-0.181-0.588-0.306-1.019-0.374-1.292
			c-0.185,0.841-0.455,1.761-0.811,2.759l-1.354,3.906H113.966z"/>
		<path opacity="0.54" enable-background="new    " d="M123.945,28.54c-1.414,0-2.519-0.513-3.312-1.538s-1.189-2.464-1.189-4.317
			c0-1.858,0.401-3.307,1.205-4.342c0.803-1.036,1.915-1.554,3.337-1.554c1.49,0,2.625,0.551,3.404,1.651h0.123
			c-0.116-0.813-0.174-1.457-0.174-1.928V12.38h2.42v15.955h-1.887l-0.42-1.486h-0.113C126.567,27.976,125.436,28.54,123.945,28.54z
			 M124.592,26.592c0.991,0,1.713-0.278,2.164-0.836c0.451-0.557,0.683-1.461,0.697-2.712v-0.338c0-1.429-0.233-2.444-0.697-3.046
			c-0.466-0.602-1.193-0.902-2.185-0.902c-0.848,0-1.501,0.344-1.958,1.03c-0.459,0.688-0.688,1.666-0.688,2.938
			c0,1.259,0.222,2.217,0.666,2.877C123.036,26.262,123.703,26.592,124.592,26.592z"/>
		<path opacity="0.54" enable-background="new    " d="M146.979,28.335h-2.666l-2.543-8.941c-0.109-0.39-0.246-0.952-0.41-1.687
			c-0.164-0.735-0.264-1.246-0.298-1.533c-0.068,0.438-0.179,1.005-0.333,1.702c-0.153,0.697-0.282,1.217-0.384,1.559l-2.482,8.9
			h-2.666l-1.938-7.506l-1.969-7.485h2.502l2.143,8.736c0.335,1.401,0.574,2.639,0.719,3.712c0.074-0.581,0.188-1.23,0.338-1.948
			s0.287-1.299,0.41-1.743l2.44-8.757h2.431l2.502,8.798c0.238,0.813,0.492,2.03,0.758,3.65c0.104-0.978,0.35-2.222,0.738-3.732
			l2.133-8.716h2.482L146.979,28.335z"/>
		<path opacity="0.54" enable-background="new    " d="M162.494,22.644c0,1.854-0.475,3.299-1.425,4.338s-2.273,1.559-3.968,1.559
			c-1.061,0-1.997-0.239-2.811-0.718s-1.438-1.165-1.876-2.062c-0.438-0.895-0.656-1.934-0.656-3.117
			c0-1.838,0.472-3.273,1.415-4.307c0.943-1.031,2.272-1.548,3.988-1.548c1.641,0,2.939,0.528,3.896,1.584
			C162.016,19.43,162.494,20.854,162.494,22.644z M154.24,22.644c0,2.619,0.967,3.928,2.902,3.928c1.913,0,2.871-1.309,2.871-3.928
			c0-2.59-0.965-3.886-2.893-3.886c-1.012,0-1.744,0.335-2.199,1.005C154.468,20.433,154.24,21.394,154.24,22.644z"/>
		<path opacity="0.54" enable-background="new    " d="M170.701,16.789c0.485,0,0.886,0.034,1.2,0.103l-0.235,2.246
			c-0.343-0.082-0.697-0.123-1.066-0.123c-0.965,0-1.745,0.314-2.344,0.943c-0.598,0.629-0.896,1.445-0.896,2.45v5.927h-2.41V16.994
			h1.887l0.318,1.999h0.123c0.375-0.676,0.866-1.213,1.471-1.609C169.354,16.987,170.004,16.789,170.701,16.789z"/>
		<path opacity="0.54" enable-background="new    " d="M177.513,28.54c-1.414,0-2.519-0.513-3.312-1.538s-1.189-2.464-1.189-4.317
			c0-1.858,0.401-3.307,1.205-4.342c0.803-1.036,1.915-1.554,3.337-1.554c1.49,0,2.625,0.551,3.404,1.651h0.123
			c-0.116-0.813-0.174-1.457-0.174-1.928V12.38h2.42v15.955h-1.887l-0.42-1.486h-0.113C180.135,27.976,179.003,28.54,177.513,28.54z
			 M178.159,26.592c0.991,0,1.713-0.278,2.164-0.836c0.451-0.557,0.683-1.461,0.697-2.712v-0.338c0-1.429-0.233-2.444-0.697-3.046
			c-0.466-0.602-1.193-0.902-2.185-0.902c-0.848,0-1.501,0.344-1.958,1.03c-0.459,0.688-0.688,1.666-0.688,2.938
			c0,1.259,0.222,2.217,0.666,2.877C176.604,26.262,177.271,26.592,178.159,26.592z"/>
		<path opacity="0.54" enable-background="new    " d="M194.077,25.104c0,1.107-0.404,1.957-1.211,2.549
			c-0.807,0.591-1.962,0.887-3.465,0.887c-1.512,0-2.725-0.229-3.641-0.688v-2.081c1.333,0.615,2.574,0.923,3.723,0.923
			c1.482,0,2.225-0.447,2.225-1.344c0-0.287-0.082-0.525-0.246-0.717s-0.435-0.391-0.811-0.596s-0.898-0.437-1.568-0.697
			c-1.306-0.505-2.189-1.011-2.65-1.518c-0.462-0.505-0.692-1.161-0.692-1.969c0-0.97,0.392-1.724,1.174-2.261
			c0.783-0.536,1.848-0.805,3.194-0.805c1.333,0,2.594,0.271,3.783,0.81l-0.779,1.815c-1.224-0.506-2.252-0.759-3.086-0.759
			c-1.271,0-1.907,0.362-1.907,1.087c0,0.355,0.166,0.656,0.497,0.902c0.332,0.246,1.055,0.585,2.169,1.015
			c0.937,0.363,1.616,0.694,2.04,0.995s0.738,0.647,0.943,1.041C193.974,24.088,194.077,24.559,194.077,25.104z"/>
	</g>
</g>
<g id="Layer_1">
	<g>
		<g>
			<defs>
				<path id="SVGID_1_" d="M23.95,8.366h-9.864L4.331,37.635h7.278c1.444,0,2.722-0.918,3.181-2.283l4.205-12.371l4.146,12.371
					c0.449,1.365,1.737,2.283,3.181,2.283h7.278L23.95,8.366z"/>
			</defs>
			<clipPath id="SVGID_2_">
				<use xlink:href="#SVGID_1_"  overflow="visible"/>
			</clipPath>
			<path clip-path="url(#SVGID_2_)" fill="#0F9D58" d="M33.599,37.635L23.95,8.366h-9.864l9.054,26.986
				c0.449,1.365,1.737,2.283,3.181,2.283H33.599z"/>
		</g>
		<g>
			<defs>
				<path id="SVGID_3_" d="M23.95,8.366h-9.864L4.331,37.635h7.278c1.444,0,2.722-0.918,3.181-2.283l4.205-12.371l4.146,12.371
					c0.449,1.365,1.737,2.283,3.181,2.283h7.278L23.95,8.366z"/>
			</defs>
			<clipPath id="SVGID_4_">
				<use xlink:href="#SVGID_3_"  overflow="visible"/>
			</clipPath>
			<g clip-path="url(#SVGID_4_)">
				
					<image overflow="visible" opacity="0.2" enable-background="new    " width="147" height="205" xlink:href="20982996.png"  transform="matrix(0.1612 0 0 0.1628 3 7.0356)">
				</image>
				<path fill="#4285F4" d="M4.331,37.635l9.756-29.269h9.864l-9.161,26.986c-0.449,1.365-1.736,2.283-3.181,2.283H4.331z"/>
			</g>
		</g>
		<g>
			<defs>
				<path id="SVGID_5_" d="M23.95,8.366h-9.864L4.331,37.635h7.278c1.444,0,2.722-0.918,3.181-2.283l4.205-12.371l4.146,12.371
					c0.449,1.365,1.737,2.283,3.181,2.283h7.278L23.95,8.366z"/>
			</defs>
			<clipPath id="SVGID_6_">
				<use xlink:href="#SVGID_5_"  overflow="visible"/>
			</clipPath>
			
				<radialGradient id="SVGID_7_" cx="655.6045" cy="675.0205" r="40.3042" gradientTransform="matrix(0.4878 0 0 0.4878 -300.1733 -305.6372)" gradientUnits="userSpaceOnUse">
				<stop  offset="0" style="stop-color:#263238;stop-opacity:0.2"/>
				<stop  offset="1" style="stop-color:#263238;stop-opacity:0.02"/>
			</radialGradient>
			<path clip-path="url(#SVGID_6_)" fill="url(#SVGID_7_)" d="M18.994,22.98l0.02,0.068l14.585,14.586L23.95,8.366L18.994,22.98z"/>
		</g>
		<g>
			<defs>
				<path id="SVGID_8_" d="M23.95,18.366h-9.864L4.331,47.635h7.278c1.444,0,2.722-0.918,3.181-2.283l4.205-12.371l4.146,12.371
					c0.449,1.365,1.737,2.283,3.181,2.283h7.278L23.95,18.366z"/>
			</defs>
			<clipPath id="SVGID_9_">
				<use xlink:href="#SVGID_8_"  overflow="visible"/>
			</clipPath>
			<path opacity="0.2" clip-path="url(#SVGID_9_)" fill="#FFFFFF" enable-background="new    " d="M23.901,18.532l0.049-0.166
				h-9.864L4.331,47.635h0.059l9.697-29.103H23.901z"/>
		</g>
		<g>
			<defs>
				<path id="SVGID_10_" d="M23.95,18.366h-9.864L4.331,47.635h7.278c1.444,0,2.722-0.918,3.181-2.283l4.205-12.371l4.146,12.371
					c0.449,1.365,1.737,2.283,3.181,2.283h7.278L23.95,18.366z"/>
			</defs>
			<clipPath id="SVGID_11_">
				<use xlink:href="#SVGID_10_"  overflow="visible"/>
			</clipPath>
			<path opacity="0.2" clip-path="url(#SVGID_11_)" fill="#1A237E" enable-background="new    " d="M14.789,45.186
				c-0.449,1.365-1.736,2.283-3.181,2.283H4.389l-0.059,0.166h7.278c1.444,0,2.722-0.918,3.181-2.283l9.161-26.986h-0.059
				L14.789,45.186z"/>
		</g>
		<g>
			<defs>
				<path id="SVGID_12_" d="M23.95,18.366h-9.864L4.331,47.635h7.278c1.444,0,2.722-0.918,3.181-2.283l4.205-12.371l4.146,12.371
					c0.449,1.365,1.737,2.283,3.181,2.283h7.278L23.95,18.366z"/>
			</defs>
			<clipPath id="SVGID_13_">
				<use xlink:href="#SVGID_12_"  overflow="visible"/>
			</clipPath>
			<path opacity="0.2" clip-path="url(#SVGID_13_)" fill="#263238" enable-background="new    " d="M26.321,47.469
				c-1.444,0-2.722-0.918-3.181-2.283l-4.126-12.283l-0.029,0.088l4.146,12.371c0.449,1.365,1.737,2.283,3.181,2.283h7.288
				l-0.058-0.166h-7.22V47.469z"/>
		</g>
		<g>
			<defs>
				<path id="SVGID_14_" d="M23.95,8.366h-9.864L4.331,37.635h7.278c1.444,0,2.722-0.918,3.181-2.283l4.205-12.371l4.146,12.371
					c0.449,1.365,1.737,2.283,3.181,2.283h7.278L23.95,8.366z"/>
			</defs>
			<clipPath id="SVGID_15_">
				<use xlink:href="#SVGID_14_"  overflow="visible"/>
			</clipPath>
			<path opacity="0.2" clip-path="url(#SVGID_15_)" fill="#FFFFFF" enable-background="new    " d="M23.95,8.532l9.59,29.103h0.058
				L23.95,8.366V8.532z"/>
		</g>
		
			<radialGradient id="SVGID_16_" cx="640.4336" cy="655.8154" r="64.6304" gradientTransform="matrix(0.4878 0 0 0.4878 -300.1733 -305.6372)" gradientUnits="userSpaceOnUse">
			<stop  offset="0" style="stop-color:#FFFFFF"/>
			<stop  offset="1" style="stop-color:#FFFFFF;stop-opacity:0"/>
		</radialGradient>
		<path fill="url(#SVGID_16_)" fill-opacity="0.1" d="M23.95,8.366h-9.864L4.331,37.635h7.278c1.444,0,2.722-0.918,3.181-2.283
			l4.205-12.371l4.146,12.371c0.449,1.365,1.737,2.283,3.181,2.283h7.278L23.95,8.366z"/>
	</g>
</g>
</svg>
